<?xml version="1.0" encoding="utf-8"?>
<!-- Generator: Adobe Illustrator 25.0.0, SVG Export Plug-In . SVG Version: 6.00 Build 0)  -->
<svg version="1.1" id="Layer_1" xmlns="http://www.w3.org/2000/svg" xmlns:xlink="http://www.w3.org/1999/xlink" x="0px" y="0px"
	 viewBox="0 0 700 400" style="enable-background:new 0 0 700 400;" xml:space="preserve">
<style type="text/css">
	.st0{fill:#F2F2F2;}
	.st1{fill:#3F3D56;}
	.st2{fill:#069FCF;}
	.st3{fill:#E6E6E6;}
	.st4{fill:#FF6584;}
	.st5{fill:#CCCCCC;}
	.st6{fill:#FFB8B8;}
	.st7{fill:#2F2E41;}
	.st8{fill:#A0616A;}
	.st9{fill:url(#SVGID_1_);}
	.st10{fill:#FBBEBE;}
	.st11{opacity:0.1;enable-background:new    ;}
	.st12{opacity:0.1;}
	.st13{fill:#65617D;}
</style>
<g>
	<path class="st0" d="M118.2,85.8H92.4c-5.2,0-9.3,4.2-9.3,9.3v27.9c-0.3,0-0.7,0-1-0.1c-18.1-1.9-31.2-18.1-29.3-36.2
		S70.9,55.6,89,57.5c14.7,1.6,26.6,12.7,29.1,27.4C118.1,85.2,118.1,85.5,118.2,85.8z"/>
	<path class="st1" d="M422.4,84.9h-330c-5.7,0-10.3,4.6-10.3,10.3v174.1c0,5.7,4.6,10.3,10.3,10.3h330c5.7,0,10.3-4.6,10.3-10.3
		V95.2C432.7,89.5,428.1,84.9,422.4,84.9z M431.8,269.3c0,5.2-4.2,9.3-9.3,9.3h-330c-5.2,0-9.3-4.2-9.3-9.3V95.2
		c0-5.2,4.2-9.3,9.3-9.3h330c5.2,0,9.3,4.2,9.3,9.3V269.3z"/>
	<path class="st1" d="M406.2,113.1H108.6c-0.3,0-0.5-0.2-0.5-0.5s0.2-0.5,0.5-0.5h297.5c0.3,0,0.5,0.2,0.5,0.5
		S406.5,113.1,406.2,113.1z"/>
	<path class="st1" d="M192.7,258.5c-0.3,0-0.5-0.2-0.5-0.5V96.2c0-0.3,0.2-0.5,0.5-0.5c0.3,0,0.5,0.2,0.5,0.5V258
		C193.2,258.3,193,258.5,192.7,258.5z"/>
	<path class="st1" d="M267,258.5c-0.3,0-0.5-0.2-0.5-0.5V96.2c0-0.3,0.2-0.5,0.5-0.5s0.5,0.2,0.5,0.5V258
		C267.5,258.3,267.3,258.5,267,258.5z"/>
	<path class="st1" d="M341.3,258.5c-0.3,0-0.5-0.2-0.5-0.5V96.2c0-0.3,0.2-0.5,0.5-0.5s0.5,0.2,0.5,0.5V258
		C341.8,258.3,341.5,258.5,341.3,258.5z"/>
	<path class="st2" d="M145,163.8h-18c-1.2,0-2.2-1-2.2-2.2v-21.2c0-1.2,1-2.2,2.2-2.2h18c1.2,0,2.2,1,2.2,2.2v21.2
		C147.2,162.9,146.2,163.8,145,163.8z"/>
	<path class="st2" d="M170.6,224.3h-18c-1.2,0-2.2-1-2.2-2.2v-21.2c0-1.2,1-2.2,2.2-2.2h18c1.2,0,2.2,1,2.2,2.2v21.2
		C172.8,223.3,171.8,224.3,170.6,224.3z"/>
	<path class="st2" d="M228.6,176.6h-18c-1.2,0-2.2-1-2.2-2.2v-21.2c0-1.2,1-2.2,2.2-2.2h18c1.2,0,2.2,1,2.2,2.2v21.2
		C230.8,175.6,229.8,176.6,228.6,176.6z"/>
	<path class="st2" d="M303.9,153.5h-18c-1.2,0-2.2-1-2.2-2.2v-21.2c0-1.2,1-2.2,2.2-2.2h18c1.2,0,2.2,1,2.2,2.2v21.2
		C306.1,152.5,305.1,153.5,303.9,153.5z"/>
	<path class="st2" d="M373.2,153.5h-18c-1.2,0-2.2-1-2.2-2.2v-21.2c0-1.2,1-2.2,2.2-2.2h18c1.2,0,2.2,1,2.2,2.2v21.2
		C375.4,152.5,374.4,153.5,373.2,153.5z"/>
	<path class="st3" d="M405.2,159.4h-18c-1.2,0-2.2-1-2.2-2.2V136c0-1.2,1-2.2,2.2-2.2h18c1.2,0,2.2,1,2.2,2.2v21.2
		C407.4,158.4,406.4,159.4,405.2,159.4z"/>
	<path class="st3" d="M390.9,197.3h-18c-1.2,0-2.2-1-2.2-2.2v-21.2c0-1.2,1-2.2,2.2-2.2h18c1.2,0,2.2,1,2.2,2.2v21.2
		C393.1,196.3,392.1,197.3,390.9,197.3z"/>
	<path class="st4" d="M329.9,189.4h-18c-1.2,0-2.2-1-2.2-2.2V166c0-1.2,1-2.2,2.2-2.2h18c1.2,0,2.2,1,2.2,2.2v21.2
		C332.1,188.4,331.1,189.4,329.9,189.4z"/>
	<path class="st3" d="M295,197.3h-18c-1.2,0-2.2-1-2.2-2.2v-21.2c0-1.2,1-2.2,2.2-2.2h18c1.2,0,2.2,1,2.2,2.2v21.2
		C297.2,196.3,296.2,197.3,295,197.3z"/>
	<path class="st3" d="M219.8,230.7h-18c-1.2,0-2.2-1-2.2-2.2v-21.2c0-1.2,1-2.2,2.2-2.2h18c1.2,0,2.2,1,2.2,2.2v21.2
		C222,229.7,221,230.7,219.8,230.7z"/>
	<path class="st4" d="M128.8,207.3h-18c-1.2,0-2.2-1-2.2-2.2v-21.2c0-1.2,1-2.2,2.2-2.2h18c1.2,0,2.2,1,2.2,2.2v21.2
		C131,206.3,130,207.3,128.8,207.3z"/>
	<path class="st3" d="M179.4,163.8h-18c-1.2,0-2.2-1-2.2-2.2v-21.2c0-1.2,1-2.2,2.2-2.2h18c1.2,0,2.2,1,2.2,2.2v21.2
		C181.6,162.9,180.6,163.8,179.4,163.8z"/>
	<path class="st5" d="M164.7,105h-28c-1.1,0-2-0.9-2-2s0.9-2,2-2h28c1.1,0,2,0.9,2,2S165.8,105,164.7,105z"/>
	<path class="st5" d="M243.9,105h-28c-1.1,0-2-0.9-2-2s0.9-2,2-2h28c1.1,0,2,0.9,2,2S245,105,243.9,105z"/>
	<path class="st5" d="M318.2,105h-28c-1.1,0-2-0.9-2-2s0.9-2,2-2h28c1.1,0,2,0.9,2,2S319.2,105,318.2,105z"/>
	<path class="st5" d="M387.5,105h-28c-1.1,0-2-0.9-2-2s0.9-2,2-2h28c1.1,0,2,0.9,2,2S388.6,105,387.5,105z"/>
	<path class="st6" d="M101.9,249.1c-2.7-0.3-4.7-2.7-4.4-5.4c0-0.3,0.1-0.6,0.2-0.9L85,231.1l6.7-1.7l12.4,10.1
		c2.6,0.9,3.9,3.8,3,6.3C106.4,248,104.2,249.3,101.9,249.1L101.9,249.1z"/>
	<polygon class="st6" points="119.3,335.8 125.4,335.8 128.2,312.6 119.3,312.6 	"/>
	<path class="st7" d="M137,341.4l-18.9,0l0,0l0-7.3l0,0l11.6,0C133.7,334.1,137,337.4,137,341.4L137,341.4L137,341.4z"/>
	<polygon class="st6" points="78,331.5 83.8,333 92.6,311.3 84,309 	"/>
	<path class="st7" d="M93.6,341.4l-18.3-4.9l0,0l1.9-7.1l0,0l11.2,3C92.3,333.5,94.7,337.5,93.6,341.4L93.6,341.4L93.6,341.4z"/>
	<path class="st7" d="M127,331.4h-9.2c-1.2,0-2.2-0.9-2.3-2.1l-5.6-58c-0.1-1-1-1.8-2-1.7c-0.7,0.1-1.4,0.6-1.6,1.3l-16.2,54.2
		c-0.4,1.2-1.6,1.9-2.8,1.6l-8.6-2.1c-1.3-0.3-2-1.6-1.7-2.8c0,0,0,0,0,0c0.1-0.5,14-54.6,14.1-55.2c3.1-23.1,6.9-29.3,8.9-32.6
		c0.2-0.3,0.3-0.5,0.5-0.8c0.2-0.3,1.2-3.3,1.9-5.2c0.2-0.6,0.6-1.2,1.2-1.5c8.5-4.3,18.4-1.3,21.2-0.3c0.5,0.2,0.9,0.5,1.1,0.9
		c8.5,12.8,4.3,87.3,3.4,102.1C129.2,330.5,128.2,331.4,127,331.4z"/>
	<circle class="st6" cx="103.2" cy="177" r="12.1"/>
	<path class="st5" d="M102,230.4L102,230.4c-0.2-0.2-16.3-16-14.3-30.6c0.9-6.2,5.9-10.2,14.6-11.5c6.6-1,12.9,3,14.8,9.4l8.6,29.3
		L102,230.4z"/>
	<path class="st5" d="M93.7,241.6l-11.5-11.4c-1.6-1.6-2.2-3.9-1.7-6.1l5.6-22.6c0.7-2.7,3.4-4.4,6.2-3.7c0.1,0,0.2,0.1,0.3,0.1
		c2.6,0.8,4.1,3.6,3.3,6.3L90.1,224l9.5,10.1L93.7,241.6z"/>
	<path class="st6" d="M155.2,202.7c-1.1,2.5-4.1,3.6-6.6,2.4c-0.3-0.1-0.5-0.3-0.8-0.4l-15.3,7.9l0.7-6.7l13.6-8.4
		c1.7-2.1,4.8-2.5,7-0.8C155.6,198.1,156.2,200.6,155.2,202.7L155.2,202.7z"/>
	<path class="st5" d="M146.2,207.7l-14.9,6.4c-2,0.9-4.3,0.6-6.1-0.7l-19-13.6c-2.3-1.6-2.8-4.8-1.2-7.1c0.1-0.1,0.1-0.2,0.2-0.3
		c1.8-2.1,4.9-2.5,7.1-0.8l16.3,12.8l12.9-5L146.2,207.7z"/>
	<path class="st7" d="M105.2,180.9c1.5-1.9,4.3-2,6.3-3.2c2.7-1.6,3.8-5.2,2.9-8.2s-3.4-5.4-6.3-6.5c-2.9-1.1-6.2-1.1-9.3-0.6
		c-4.6,0.8-9.1,2.9-11.9,6.7s-3.5,9.2-1,13.1c1.2,1.8,3,3.3,3.4,5.4c0.6,2.7-1.3,5.4-3.4,7.3c-2.3,2.2-5,4-7.1,6.5
		c-2.1,2.5-3.4,5.8-2.5,8.9c0.8,2.6,3.1,4.5,5.6,5.4s5.2,1.1,7.9,1.1c2.6,0.1,5.4,0,7.6-1.4c2.3-1.5,3.6-4.4,3.7-7.1
		c0.1-2.8-0.8-5.5-2.1-8c-0.7-1.5-1.6-2.9-2.1-4.5c-0.5-1.6-0.6-3.4,0.2-4.9c0.8-1.5,2.5-2.5,4.2-2.8c0.1,0,0.2,0,0.3,0
		c2-0.3,3.4-2.1,3.1-4.1c0-0.1,0-0.1,0-0.2C104.7,182.6,104.7,181.5,105.2,180.9z"/>
	<polygon class="st8" points="266.3,336.3 260.3,336.3 257.4,313.1 266.3,313.1 	"/>
	<path class="st7" d="M256,334.6h11.6l0,0v7.3l0,0h-18.9l0,0l0,0C248.6,337.9,251.9,334.6,256,334.6L256,334.6z"/>
	<polygon class="st8" points="310,329.5 304.6,332 292.3,312 300.4,308.3 	"/>
	<path class="st7" d="M299.9,332.2l10.6-4.8l0,0l3,6.7l0,0l-17.2,7.9l0,0l0,0C294.6,338.2,296.3,333.9,299.9,332.2z"/>
	<path class="st8" d="M292.5,257.9c2.2-1.6,2.6-4.7,1-6.9c-0.2-0.2-0.4-0.4-0.6-0.6l7.1-16.1l-9,1.5l-5.4,15c-1.7,2.1-1.4,5.3,0.7,7
		C288.1,259.3,290.7,259.3,292.5,257.9z"/>
	<path class="st7" d="M265.9,330.2h-5.8c-1.2,0-2.1-0.9-2.2-2.1l-3.1-83.9c-0.1-1.2,0.8-2.3,2-2.4c0.1,0,0.3,0,0.4,0l33.3,3.5
		c1.1,0.1,2,1,2,2.2l0.7,37c0,0.2,0,0.4,0.1,0.6l13.7,35.4c0.4,1.1-0.1,2.4-1.3,2.9c0,0,0,0,0,0l-5.8,2.2c-1,0.4-2.2-0.1-2.7-1.1
		l-16.8-32.6c-0.1-0.2-0.2-0.4-0.2-0.6l-2.9-13.8c-0.2-0.9-1.1-1.5-2-1.3c-0.7,0.2-1.3,0.8-1.4,1.5l-5.8,50.5
		C268,329.4,267,330.2,265.9,330.2z"/>
	<circle class="st8" cx="268.8" cy="172.1" r="12.1"/>
	<path class="st2" d="M277.1,251.9c-8.2-0.1-16.2-2.5-23.1-7l-0.1-0.1l0-0.1l4.6-53.8c0.3-3.8,3.4-6.7,7.2-6.9
		c6-0.3,14,0.1,18.3,3.3c6.5,4.8,9.6,12.1,8.6,20c-2.2,16.3,0.3,38.4,0.6,40.8l0,0.2l-0.2,0.1C288.1,250.7,282.6,251.9,277.1,251.9z
		"/>
	<path class="st2" d="M293.2,248.2c-0.7,0-1.3-0.3-1.8-0.8l-2.6-2.9c-0.6-0.6-0.8-1.5-0.5-2.4l6-20.4l-9.2-19.3
		c-0.4-0.9-0.5-1.9-0.3-2.9c0.6-2.3,2.9-3.7,5.2-3.2c1.2,0.3,2.2,1.1,2.8,2.2l12.4,20.2c1,1.7,1.2,3.7,0.4,5.5l-10.1,22.5
		c-0.3,0.8-1,1.3-1.9,1.4C293.4,248.2,293.3,248.2,293.2,248.2z"/>
	<path class="st8" d="M208,209.3c2.2,1.6,5.3,1.2,6.9-1c0.2-0.2,0.3-0.5,0.5-0.7l17.4,2.3l-4-8.2l-15.9-0.9
		c-2.5-1.1-5.4,0.1-6.5,2.7C205.5,205.5,206.2,207.9,208,209.3z"/>
	<path class="st2" d="M246.4,213.8c-0.3,0-0.6,0-0.9-0.1l-27.4-3.8c-0.9-0.1-1.7-0.7-2.1-1.5c-0.1-0.1-0.1-0.3-0.2-0.4h0
		c-0.2-0.7-0.1-1.5,0.3-2.2l2.3-3.8c0.5-0.8,1.4-1.3,2.3-1.3h0l23.9,0l17.8-16c0.8-0.7,1.9-1.2,3-1.2c2.7-0.1,4.9,1.9,5.1,4.6
		c0.1,1.4-0.5,2.7-1.4,3.7l-17.8,19.8C250.1,213,248.3,213.8,246.4,213.8z"/>
	<path class="st7" d="M270.2,182.9c1.1-2.6,2-6-0.1-7.8c-1.2-1-3-1-4.6-1.2c-4.5-0.4-9.2-2.5-11.4-6.4s-1-9.9,3.2-11.7
		c2.8-1.2,6-0.4,9,0.5l8.9,2.5c2.6,0.7,5.4,1.6,7.3,3.5c3,3.1,2.8,8.5,0.4,12.1c-2.4,3.6-6,7.4-10.1,8.8L270.2,182.9z"/>
	<path class="st1" d="M671.7,342.1h-642c-0.6,0-1-0.3-1-0.6c0-0.3,0.5-0.6,1-0.6c0,0,0,0,0,0h642c0.6,0,1,0.3,1,0.6
		C672.7,341.8,672.2,342.1,671.7,342.1C671.7,342.1,671.7,342.1,671.7,342.1z"/>
	<g>
		<path class="st1" d="M545.8,238.4c-0.1-0.5-0.4-1-0.8-1.2c-0.8-0.3-1.7,0-2.1,0.8c0,0,0,0,0,0l-7.5,15.8l-1.7,62.2h2.7l1-62.1
			l8.3-14.6C545.9,239.1,545.9,238.7,545.8,238.4z"/>
		
			<linearGradient id="SVGID_1_" gradientUnits="userSpaceOnUse" x1="628.139" y1="-64.2786" x2="628.139" y2="103.7747" gradientTransform="matrix(1 0 0 -1 -28 277.63)">
			<stop  offset="0" style="stop-color:#808080;stop-opacity:0.25"/>
			<stop  offset="0.54" style="stop-color:#808080;stop-opacity:0.12"/>
			<stop  offset="1" style="stop-color:#808080;stop-opacity:0.1"/>
		</linearGradient>
		<path class="st9" d="M659.9,339.9c0,0.1-0.1,0.1-0.1,0.2c-0.3,0.2-0.6,0.4-0.9,0.5l0,0c-0.7,0.2-1.4,0.3-2.1,0.3h-0.2
			c-0.4,0-0.8,0-1.2,0c-0.3,0-0.6-0.1-0.9-0.1h0c-0.4,0.1-0.9,0.2-1.3,0.3c-0.9,0.3-1.9,0.4-2.8,0.4h-0.3c-1.1,0-2.1,0-3.2,0
			c-0.2,0-0.3,0-0.5,0c-1.8,0-3.6,0.3-5.5,0.4h-0.6c-1.8,0-3.6-0.4-5-1.6c-0.3-0.2-0.5-0.5-0.7-0.8c-0.1-0.3-0.2-0.7-0.1-1
			c0-0.6,0.2-1.3,0.6-1.7c0.3-0.2,0.6-0.4,1-0.5c0.6-0.2,1.2-0.4,1.9-0.6c0.6-0.2,1.3-0.4,2-0.6l0.1,0l0.4-0.1l0.2-0.1
			c0.3-0.1,0.6-0.2,0.8-0.4c0.3-0.2,0.6-0.5,0.9-0.9c0-0.1,0.1-0.1,0.1-0.2s0-0.1,0-0.2c-0.1-0.4-0.1-0.9-0.2-1.3
			c-1-0.2-1.8-0.7-2.5-1.5c-0.6-0.6-1.1-1.3-1.5-2c-0.8-1.6-1.3-3.4-1.9-5.2c-1-2.6-2.4-5.1-3.8-7.5c-1.3-2.2-2.6-4.4-4.1-6.5
			c-1-1.4-2-2.7-3-4.1c-2.7-3.9-4.7-8.3-5.8-13c-0.2-0.9-0.4-1.8-0.7-2.6c-0.6-1.5-1.6-2.7-2.5-4c-0.9-1.4-1.5-3-1.8-4.7
			c-0.2-1-0.5-2-1.4-2.1l0,0l-0.1,0.2c-1.9,3.8-3.9,7.7-6.8,10.8c-0.5,0.5-0.9,1-1.3,1.5c-0.3,0.5-0.6,1.1-0.8,1.6
			c-0.5,1-1.1,1.9-1.8,2.7c-0.2,0.2-0.5,0.4-0.7,0.6c-0.3,0.3-0.7,0.4-1.1,0.6l0,0c-0.2,0-0.3,0.1-0.5,0.1c0,0,0,0.1,0,0.1
			c0,0,0,0.1,0,0.1c0.5,2.8,0.3,5.7-0.6,8.3c0,0.1-0.1,0.2-0.1,0.2c-0.1,0.4-0.3,0.8-0.5,1.1c-0.4,0.9-0.9,1.8-1.3,2.7
			c-0.1,0.2-0.1,0.3-0.2,0.5c-1.4,3.7-1,7.9-1.2,11.9c0,0.9-0.1,1.7-0.3,2.6c-0.2,1-0.6,2-0.8,3c-0.2,0.7-0.2,1.5,0,2.3l-0.1,0
			c-0.4,0.1-0.7,0.3-1.1,0.4v0.1c0.1,0.8,0.3,1.6,0.4,2.3c0.1,0.7,0.2,1.4,0.7,1.9c0.1,0.1,0.2,0.2,0.3,0.3c0.3,0.4,0,1,0.1,1.5
			c0.1,0.7,0.7,1.3,0.6,2.1c-0.1,0.4-0.4,0.8-0.8,1c-0.2,0.1-0.3,0.1-0.5,0.2l-0.1,0c-0.2,0-0.4,0.1-0.6,0.1
			c-2.5,0.3-5.1,0.5-7.6,0.1c-0.5-0.1-1-0.2-1.5-0.2c-0.6,0-1.3,0-1.9,0.1c-4.6,0.5-9.3,0.5-13.9,0.3c-1.2-0.1-2.6-0.3-3.2-1.3
			c-0.5-0.9-0.3-2-0.1-3c0.1-0.4,0.2-0.7,0.4-1c0,0,0-0.1,0.1-0.1c0.6-0.8,1.8-0.8,2.8-0.8l3.3,0.1c0.3,0,0.7,0,1-0.1
			c0.5-0.2,0.9-0.6,1.4-0.8c0.6-0.3,1.4-0.3,1.9-0.9l0.1-0.1c0.1-0.1,0.2-0.2,0.2-0.3c0,0,0,0,0-0.1l0,0c0,0,0,0,0-0.1
			c0.4-0.6,1.1-0.8,1.7-1.1c0.1-0.1,0.2-0.1,0.3-0.2l0.1-0.1c-0.6-0.5-1.2-1-1.6-1.7c-0.2-0.2-0.3-0.4-0.4-0.7c0-0.2,0-0.4,0-0.6
			c0,0,0-0.1,0.1-0.1l0,0c0.2-0.5,0.7-0.9,1-1.4c0,0,0,0,0,0c0.4-0.7,0.4-1.8-0.1-2.3c0.3-4.6,1.5-9,1.8-13.6
			c0.1-1.8,0.1-3.6,0.1-5.5s0.3-3.6,0.5-5.4c0.4-4.1,1.5-8.1,1.4-12.2c0-0.4,0-0.8,0-1.1c0,0,0-0.1,0-0.1c0.1-0.8,0.4-1.7,0.8-2.4
			c0.5-0.8,1-1.7,1.7-2.4c2.1-2.8,4.6-5.6,5.3-9c0.4-1.8,1.2-3.4,2.1-5c0.5-0.9,1-1.9,1.8-2.6c0.4-0.3,0.8-0.7,1.2-1
			c0.6-0.7,0.6-1.8,0.9-2.6c0.2-0.5,0.4-0.9,0.6-1.3c0,0,0-0.1,0-0.1c0.1-0.5,0.1-1,0.1-1.4c0-0.1,0-0.3,0-0.4l0,0
			c0.2-1.4,0.6-2.7,1.2-4c0.1-0.2,0.1-0.3,0.2-0.5c-1.6-0.9-2.9-2.2-4.1-3.6c-0.4-0.5-0.7-1-1-1.5c-0.7-1.4-0.9-3-1.2-4.6
			c-0.8-3.7-2.6-7.2-2.8-11c-0.1-1.2,0-2.4-0.4-3.5c-0.1-0.3-0.2-0.6-0.4-0.9c-0.1-0.1-0.1-0.2-0.2-0.3l-0.1-0.1l-0.2-0.3l-0.3,0.2
			c-6.9,5.6-14.2,10.7-21.7,15.3l-0.6,0.4c-0.3,0.2-0.6,0.4-0.9,0.7c0,0-0.1,0.1-0.1,0.1l0,0c-0.2,0.3-0.2,0.7-0.3,1
			c-0.3,0.8-1.1,1.3-1.9,1.5c-1.4,0.4-3,0.2-4.3-0.6c-0.2-0.1-0.3-0.2-0.5-0.3c-0.4,0.2-0.8,0.4-1.2,0.5c-1.4,0.4-2.8,0.4-4.2,0.4
			c-1.4,0-2.8,0-4.2,0.5c-0.9,0.3-1.7,0.8-2.7,0.9c-0.1,0-0.2,0-0.3,0c-0.5-0.1-1-0.2-1.5-0.5l-0.3-0.1c-0.1-0.1-0.3-0.1-0.4-0.2
			c-0.1-0.1-0.3-0.2-0.4-0.3c-0.2-0.2-0.3-0.4-0.4-0.7c0-0.2,0-0.4,0-0.6c0-0.1,0.1-0.2,0.1-0.2c0.1,0,0.1-0.1,0.2-0.1
			c0.4,0,0.8,0,1.2,0.1c0.2,0,0.5,0,0.7,0h0.1c0.4,0,0.8-0.3,1-0.6c0-0.1,0.1-0.1,0.1-0.2l0,0c0-0.1,0.1-0.2,0.1-0.3
			c0,0,0-0.1,0-0.1c-0.1-0.1-0.3-0.1-0.4-0.2c-0.1,0-0.1-0.1-0.2-0.1l0,0c-0.1-0.1-0.2-0.2-0.3-0.3c-0.1-0.1-0.1-0.1-0.2-0.2
			c-0.1-0.1-0.2-0.3-0.2-0.4l0,0c-0.3-0.1-0.6-0.1-0.8,0c-0.4,0.1-0.7,0.3-1.1,0.4c-0.2,0-0.4,0-0.6,0c-0.5-0.2-0.7-0.9-0.8-1.4
			c0-0.1,0-0.2-0.1-0.3l0,0c0-0.2,0-0.4,0-0.6c0.2-0.5,0.5-0.9,0.9-1.2l1.1-1l0.1-0.1c0-0.1,0-0.2-0.1-0.3c0-0.2,0-0.4,0-0.7
			c0.2-0.5,0.5-0.9,0.9-1.2l2.5-2.1c0.5-0.4,1-0.8,1.6-0.9c0.9-0.1,1.6,0.7,2.3,1.3c0.8,0.8,1.9,1.4,3,1.5c0.5,0,1.1-0.1,1.6-0.2
			l0.3-0.1c-0.1-0.1-0.1-0.3-0.2-0.4c-0.1-0.2-0.2-0.4-0.3-0.6c1.4-0.1,2.7-0.9,3.8-1.9c1.1-1,2-2.1,3.1-3.1c1.2-1,2.6-1.8,3.8-2.8
			c2.8-2.3,4.7-5.8,7.7-7.8c1-0.7,2.2-1.3,3-2.4c0.2-0.3,0.4-0.7,0.6-1c0.7-1,2-1.5,3-2.2c1-0.7,1.9-1.8,2.7-2.8
			c0.6-0.7,1.2-1.5,1.7-2.2c0.5-1,1-2,1.5-3c0.5-0.8,1-1.6,1.6-2.3c0.1-0.3,0.3-0.6,0.4-0.8c0.2-0.3,0.3-0.5,0.4-0.7
			c0.1-0.2,0.2-0.3,0.3-0.5c-0.3-0.6-0.6-1-0.7-1.3l-0.1-0.1c-0.3-0.3-0.6-0.6-1-0.9c-0.4-0.1-0.7-0.1-1-0.2
			c-4.3-1.2-7.3-5.2-7.3-9.8c0,0,0,0,0,0c0-1.6,0.4-3.2,1.1-4.6c0.1-0.3,0.3-0.6,0.5-0.8c-0.2-0.1-0.3-0.1-0.4-0.2
			c-0.2-0.1-0.5-0.3-0.6-0.5c-0.1-0.2-0.2-0.4-0.3-0.7c-0.1-0.6,0-1.2,0.2-1.7c0.1-0.3,0.2-0.5,0.3-0.8c0,0,0,0,0,0
			c1.5-3.1,4.7-5.1,8-5.2c3.5-0.1,6.9,1.5,9.6,3.9c0.8,0.7,1.5,1.5,2.2,2.4c1.4,2,2.1,4.7,2.3,7.3c0.1,0.8,0.1,1.6,0,2.4
			c0,0.3-0.1,0.6-0.2,0.8c0,0.2-0.1,0.3-0.2,0.5c-0.1,0.2-0.1,0.2-0.2,0.3v0c-0.1,0.1-0.1,0.2-0.2,0.3l0,0l0,0.1
			c0,0.1,0.1,0.1,0.1,0.2c0,0.1,0.1,0.1,0.1,0.2h0c0.7,0.1,1.3,0.2,2,0.2c0.3,0,0.6,0.1,1,0.2c0.7,0.2,1.2,0.7,1.8,1.1
			c1.4,1,3.1,1.5,4.5,2.6c2,1.6,3,4.1,4.3,6.4c1.6,3.1,4.3,5.7,5.4,9c0.5,1.5,1.1,3,1.6,4.5c1,2.9,2.1,5.9,3.5,8.6
			c2,3.8,4.6,7.3,6.2,11.3c0.2,0.4,0.4,0.7,0.8,0.9c2.1,3.1,4,6.4,5.7,9.8c0.9,1.8,1.7,3.7,1.9,5.7c0.2,1.8,0.1,3.6-0.4,5.3
			c-0.3,1-0.6,2-1,3c-0.2,0.3-0.3,0.7-0.3,1.1c0,0,0,0.1,0,0.1c-0.1,0.7,0.2,1.3,0.2,2c0.1,0.5,0,1.1-0.2,1.6c0,0.1-0.1,0.2-0.1,0.2
			c-0.2,0.4-0.4,0.8-0.5,1.3c0,0.1,0,0.1,0,0.2c-0.1,0.8,0.2,1.5,0.3,2.3c0.6,2.7,0.5,5.6,0.3,8.3c-0.1,1.4,1,2.5,1.9,3.5
			c1.7,1.9,3,4.2,4.3,6.4c0.7,1.1,1.3,2.3,1.7,3.6c0.5,1.4,0.7,3,0.9,4.4c0.9,4.6,3.7,8.6,4.4,13.3c0.4,2.1,1.3,4.1,2.6,5.7
			c0.4,0.4,0.8,0.9,1.1,1.4c0.2,0.4,0.4,0.8,0.6,1.3c0.3,1,0.5,2.1,0.5,3.2c-0.1,0.5,0,1,0.1,1.5c0.3,1.1,1.5,1.7,1.9,2.7
			c0.5,1,0.1,2.3,0.3,3.4c0.2,0.9,0.6,1.7,1.4,2.3c-0.3,0.2-0.6,0.5-0.8,0.7c0.3,0.2,0.5,0.5,0.7,0.8c0.1,0.2,0.2,0.4,0.3,0.6
			c0.4,1.1,0.5,2.3,0.8,3.5c0.2,0.5,0.4,1,0.2,1.5c-0.1,0.1-0.1,0.3-0.1,0.4c0,0.3,0.3,0.5,0.4,0.8
			C660.1,339.4,660.1,339.7,659.9,339.9z"/>
		<path class="st10" d="M588.3,203.4c2.1-0.6,3.9-1.7,5.7-2.9l6.3-4c-1.7-0.1-3.2-1.4-4.1-2.8s-1.2-3.2-1.5-4.9
			c-2.7,1.1-5,2.8-7.2,4.7c-0.9,0.7-2.7,1.9-3,3c-0.3,1.2,1.4,2.1,2.1,2.9C586.8,199.8,589,203.2,588.3,203.4z"/>
		<path class="st11" d="M588.3,203.4c2.1-0.6,3.9-1.7,5.7-2.9l6.3-4c-1.7-0.1-3.2-1.4-4.1-2.8s-1.2-3.2-1.5-4.9
			c-2.7,1.1-5,2.8-7.2,4.7c-0.9,0.7-2.7,1.9-3,3c-0.3,1.2,1.4,2.1,2.1,2.9C586.8,199.8,589,203.2,588.3,203.4z"/>
		<path class="st10" d="M553.9,236.5c-1.1,0.6-2.3,1.1-3.5,1.1c-1.1-0.1-2.1-0.7-3-1.4c-0.7-0.6-1.4-1.3-2.3-1.3
			c-0.6,0-1.1,0.4-1.6,0.8l-2.5,2.1c-0.4,0.3-0.7,0.7-0.9,1.1c0,0.3,0,0.6,0.1,1c0.1,0.5,0.3,1.2,0.8,1.4c0.5,0.2,1.1-0.2,1.7-0.4
			c0.7-0.2,1.4,0,1.9,0.6c0.2,0.2,0.3,0.5,0.3,0.7c0,0.6-0.7,1-1.3,1c-0.6,0-1.2-0.2-1.8-0.1c-0.2,0-0.3,0.1-0.3,0.2c0,0,0,0,0,0
			c-0.1,0.4,0.1,0.9,0.4,1.2c0.3,0.3,0.7,0.5,1.1,0.7c0.5,0.2,1,0.4,1.5,0.4c1,0.1,2-0.5,3-0.8c1.3-0.4,2.8-0.5,4.2-0.5
			c1.4,0,2.8,0,4.2-0.4c1.3-0.4,2.6-1.3,3.1-2.6c0.1-0.1,0.1-0.3,0.1-0.4c-0.1-0.1-0.2-0.3-0.3-0.3c-1.9-1.4-2.7-3.1-4.8-4.1
			L553.9,236.5z"/>
		<path class="st11" d="M553.9,236.5c-1.1,0.6-2.3,1.1-3.5,1.1c-1.1-0.1-2.1-0.7-3-1.4c-0.7-0.6-1.4-1.3-2.3-1.3
			c-0.6,0-1.1,0.4-1.6,0.8l-2.5,2.1c-0.4,0.3-0.7,0.7-0.9,1.1c0,0.3,0,0.6,0.1,1c0.1,0.5,0.3,1.2,0.8,1.4c0.5,0.2,1.1-0.2,1.7-0.4
			c0.7-0.2,1.4,0,1.9,0.6c0.2,0.2,0.3,0.5,0.3,0.7c0,0.6-0.7,1-1.3,1c-0.6,0-1.2-0.2-1.8-0.1c-0.2,0-0.3,0.1-0.3,0.2c0,0,0,0,0,0
			c-0.1,0.4,0.1,0.9,0.4,1.2c0.3,0.3,0.7,0.5,1.1,0.7c0.5,0.2,1,0.4,1.5,0.4c1,0.1,2-0.5,3-0.8c1.3-0.4,2.8-0.5,4.2-0.5
			c1.4,0,2.8,0,4.2-0.4c1.3-0.4,2.6-1.3,3.1-2.6c0.1-0.1,0.1-0.3,0.1-0.4c-0.1-0.1-0.2-0.3-0.3-0.3c-1.9-1.4-2.7-3.1-4.8-4.1
			L553.9,236.5z"/>
		<path class="st2" d="M593.5,200.5c-1.1-0.7-2.4-0.8-3.6-0.4c-1.2,0.4-2.2,1.1-3.1,2.1c-0.8,0.9-1.6,1.8-2.2,2.9
			c-0.6,1-1,2.1-1.6,3.1c-1,1.8-2.3,3.4-3.7,5c-0.8,1-1.7,2-2.7,2.7c-1.1,0.7-2.2,1.2-3,2.2c-0.2,0.3-0.4,0.7-0.6,1
			c-0.7,1-1.9,1.6-3,2.3c-3,2-4.9,5.3-7.7,7.6c-1.2,1-2.6,1.7-3.8,2.7c-1.1,0.9-2,2-3.1,3c-1.1,0.9-2.4,1.7-3.8,1.8
			c1,2.1,2.1,4.2,3.8,5.9c1.6,1.7,4.1,2.7,6.4,2.1c0.8-0.2,1.6-0.7,1.9-1.5c0.1-0.4,0.2-0.8,0.4-1.2c0.2-0.3,0.5-0.5,0.9-0.7
			c9-5.3,17.6-11.2,25.7-17.8c2.2-1.8,4.3-3.4,6.6-5.1c0.8-0.6,1.5-1.2,2.2-1.9c1.9-2.3,2.3-5.5,0.9-8.1c-0.6-1-1.3-1.9-2-2.8
			C597,203.4,595.3,201.8,593.5,200.5z"/>
		<path class="st11" d="M593.5,200.5c-1.1-0.7-2.4-0.8-3.6-0.4c-1.2,0.4-2.2,1.1-3.1,2.1c-0.8,0.9-1.6,1.8-2.2,2.9
			c-0.6,1-1,2.1-1.6,3.1c-1,1.8-2.3,3.4-3.7,5c-0.8,1-1.7,2-2.7,2.7c-1.1,0.7-2.2,1.2-3,2.2c-0.2,0.3-0.4,0.7-0.6,1
			c-0.7,1-1.9,1.6-3,2.3c-3,2-4.9,5.3-7.7,7.6c-1.2,1-2.6,1.7-3.8,2.7c-1.1,0.9-2,2-3.1,3c-1.1,0.9-2.4,1.7-3.8,1.8
			c1,2.1,2.1,4.2,3.8,5.9c1.6,1.7,4.1,2.7,6.4,2.1c0.8-0.2,1.6-0.7,1.9-1.5c0.1-0.4,0.2-0.8,0.4-1.2c0.2-0.3,0.5-0.5,0.9-0.7
			c9-5.3,17.6-11.2,25.7-17.8c2.2-1.8,4.3-3.4,6.6-5.1c0.8-0.6,1.5-1.2,2.2-1.9c1.9-2.3,2.3-5.5,0.9-8.1c-0.6-1-1.3-1.9-2-2.8
			C597,203.4,595.3,201.8,593.5,200.5z"/>
		<path class="st1" d="M579,331.1c-0.6,0.3-1.3,0.5-1.7,1.1c-0.1,0.2-0.2,0.4-0.4,0.6c-0.4,0.5-1.2,0.6-1.9,0.9
			c-0.5,0.2-0.9,0.7-1.4,0.8c-0.3,0.1-0.6,0.1-1,0.1l-3.3-0.1c-1,0-2.3,0-2.9,0.9c-0.2,0.3-0.3,0.7-0.4,1c-0.3,1-0.5,2.1,0.1,3
			c0.6,1,2,1.3,3.2,1.3c4.6,0.3,9.3,0.2,13.9-0.3c0.6-0.1,1.3-0.1,1.9-0.1c0.5,0,1,0.2,1.5,0.2c2.5,0.4,5,0.2,7.6-0.1
			c0.4,0,0.8-0.1,1.2-0.3c0.4-0.2,0.7-0.5,0.8-1c0.1-0.7-0.5-1.3-0.6-2c-0.1-0.5,0.2-1.1-0.1-1.5c-0.1-0.1-0.2-0.2-0.3-0.3
			c-0.5-0.5-0.6-1.2-0.7-1.9l-0.6-3.6c0-0.3-0.1-0.5-0.3-0.7c-0.1-0.1-0.3-0.2-0.4-0.2c-2.6-0.6-5.2-0.1-7.8,0.3
			c-1.3,0.2-2.7,0.3-4,0.2c-0.6,0-0.8-0.1-1.2,0.3C579.7,330.3,579.5,330.8,579,331.1z"/>
		<path class="st1" d="M641.2,334.6c-0.5,0.3-0.9,0.5-1.4,0.6c-1.3,0.4-2.7,0.8-4,1.2c-0.4,0.1-0.7,0.3-1,0.5
			c-0.5,0.4-0.6,1.1-0.6,1.7c0,0.4,0,0.7,0.1,1c0.2,0.3,0.4,0.6,0.7,0.8c1.5,1.2,3.5,1.5,5.4,1.5s3.8-0.3,5.7-0.4
			c2.3-0.1,4.7,0.3,6.9-0.4c0.4-0.2,0.9-0.3,1.3-0.3c0.3,0,0.6,0,0.9,0.1c1.2,0.1,2.4,0,3.5-0.3c0.3-0.1,0.7-0.2,0.9-0.5
			c0.3-0.2,0.4-0.6,0.3-1c-0.1-0.3-0.4-0.5-0.4-0.8c0-0.1,0.1-0.3,0.1-0.4c0.1-0.5-0.1-1-0.2-1.4c-0.4-1.3-0.4-2.9-1.1-4.1
			c-0.8-1.2-2.2-1.6-3.6-1.8c-1.1-0.2-2.2-0.1-3.3,0.1c-1.2,0.3-2.4,0.8-3.6,1.2c-1.4,0.4-2.9,0.6-4.3,0.4c-1-0.1-0.6,0.1-1,0.9
			C642.1,333.8,641.7,334.2,641.2,334.6z"/>
		<circle class="st10" cx="587.2" cy="188.9" r="9.8"/>
		<path class="st2" d="M658.3,331c-3,2.7-7.2,3.9-11.2,3.9c-1.7,0-3.4-0.2-4.9-1.1c-0.1-0.6-0.1-1.2-0.2-1.8c-1.7-0.4-3.1-1.8-4-3.5
			s-1.3-3.4-1.9-5.1c-1-2.6-2.4-5-3.8-7.4c-1.3-2.2-2.6-4.4-4.1-6.5c-1-1.4-2-2.7-3-4.1c-2.7-3.9-4.7-8.2-5.8-12.9
			c-0.2-0.9-0.4-1.8-0.7-2.6c-0.6-1.5-1.6-2.6-2.5-4c-0.9-1.4-1.5-3-1.8-4.7c-0.2-0.9-0.4-2-1.4-2.1l0,0c-1.9,3.9-3.9,7.8-6.9,11
			c-0.5,0.5-0.9,1-1.3,1.5c-0.3,0.5-0.6,1-0.8,1.6c-0.5,1-1.1,1.9-1.8,2.7c-0.6,0.7-1.4,1.1-2.3,1.3c0.7,3.3,0.3,6.8-1.1,9.9
			c-0.4,0.9-0.9,1.8-1.3,2.7c-1.6,3.8-1.2,8.1-1.4,12.3c0,0.9-0.1,1.7-0.3,2.6c-0.4,1.7-1.3,3.5-0.8,5.2c-4.2,1.7-9,1.6-13.4,0.9
			c-0.9-0.1-1.7-0.3-2.5-0.8c-0.6-0.5-1.2-1-1.6-1.7c-0.2-0.2-0.3-0.4-0.4-0.7c-0.2-0.8,0.7-1.4,1.1-2.1s0.5-1.8-0.1-2.4
			c0.3-4.6,1.5-9,1.8-13.6c0.1-1.8,0.1-3.6,0.1-5.4s0.3-3.6,0.5-5.4c0.4-4.1,1.5-8.1,1.4-12.1c0-1.3,0.2-2.5,0.8-3.6
			c0.5-0.8,1-1.6,1.7-2.4c2.1-2.8,4.6-5.5,5.3-8.9c0.4-1.8,1.2-3.4,2.1-4.9c0.5-0.9,1-1.9,1.8-2.6c0.4-0.3,0.8-0.7,1.2-1
			c0.6-0.7,0.6-1.7,0.9-2.6c0.2-0.5,0.4-0.9,0.6-1.3c0.1-0.5,0.2-1,0.2-1.6c0.1-1.7,0.7-3.3,1.4-4.9c-1.6-0.9-2.9-2.1-4.1-3.6
			c-0.4-0.5-0.7-1-1-1.5c-0.7-1.4-0.9-3-1.2-4.6c-0.8-3.7-2.6-7.2-2.8-10.9c-0.1-1.2,0-2.3-0.4-3.4c-0.2-0.5-0.4-0.9-0.6-1.3
			c-0.2-0.4-0.4-0.9-0.5-1.3c-0.2-1,0.1-2.1,0-3.1c-0.1-0.9-0.5-1.8-0.7-2.7c-0.2-1.2-0.2-2.4-0.1-3.5c0.1-1.4,0.4-2.8,0.3-4.2
			c-0.4-4.6,1.2-9.1,4.2-12.5l0.1-0.1c0.6-0.7,1.4-1.3,1.9-2c0.8-1,1.4-2.1,2.2-3.1c0.4-0.4,0.8-0.8,1.1-1.2
			c0.3-0.5,0.7-0.9,1.1-1.3c0.4-0.4,1-0.5,1.5-0.4c0.1,0.5,0.2,1,0.5,1.5c0.7,0.1,1.3,0.2,2,0.2c0.3,0,0.6,0.1,1,0.2
			c0.7,0.2,1.2,0.7,1.8,1.1c1.4,1,3.1,1.5,4.5,2.5c2,1.5,3,4.1,4.3,6.4c1.6,3.1,4.3,5.7,5.4,9l1.6,4.5c1,2.9,2.1,5.8,3.5,8.6
			c2,3.8,4.6,7.3,6.2,11.3c0.2,0.4,0.4,0.7,0.8,0.9c2.1,3.1,4,6.3,5.7,9.7c0.9,1.8,1.7,3.7,1.9,5.6c0.4,2.8-0.4,5.6-1.4,8.3
			c-0.2,0.4-0.3,0.8-0.3,1.2c-0.1,0.7,0.2,1.3,0.2,2c0.1,0.6,0,1.2-0.3,1.8c-0.2,0.4-0.4,0.8-0.5,1.3c-0.2,0.8,0.1,1.6,0.3,2.4
			c0.6,2.7,0.5,5.5,0.3,8.3c-0.1,1.4,1,2.5,1.9,3.5c1.7,1.9,3,4.1,4.3,6.4c0.7,1.1,1.3,2.3,1.7,3.6c0.5,1.4,0.7,2.9,0.9,4.4
			c0.9,4.6,3.7,8.6,4.4,13.2c0.4,2.1,1.3,4.1,2.6,5.7c0.4,0.4,0.8,0.9,1.1,1.4c0.2,0.4,0.4,0.8,0.6,1.2c0.3,1,0.5,2.1,0.5,3.2
			c-0.1,0.5,0,1,0.1,1.5c0.3,1.1,1.5,1.6,1.9,2.6c0.5,1,0.1,2.3,0.3,3.4C657.1,329.6,657.5,330.4,658.3,331z"/>
		<path class="st10" d="M555.9,233.5c-1.1,0.6-2.3,1.1-3.5,1.1c-1.1-0.1-2.1-0.7-3-1.4c-0.7-0.6-1.4-1.3-2.3-1.3
			c-0.6,0-1.1,0.4-1.6,0.8l-2.5,2.1c-0.4,0.3-0.7,0.7-0.9,1.1c0,0.3,0,0.6,0.1,1c0.1,0.5,0.3,1.2,0.8,1.4c0.5,0.2,1.1-0.2,1.7-0.4
			c0.7-0.2,1.4,0,1.9,0.6c0.2,0.2,0.3,0.5,0.3,0.7c0,0.6-0.7,1-1.3,1s-1.2-0.2-1.8-0.1c-0.2,0-0.3,0.1-0.3,0.2c0,0,0,0,0,0
			c-0.1,0.4,0.1,0.9,0.4,1.2c0.3,0.3,0.7,0.5,1.1,0.7c0.5,0.2,1,0.4,1.5,0.4c1,0.1,2-0.5,3-0.8c1.3-0.4,2.8-0.5,4.2-0.5
			c1.4,0,2.8,0,4.2-0.4c1.3-0.4,2.6-1.3,3.1-2.6c0.1-0.1,0.1-0.3,0.1-0.4c-0.1-0.1-0.2-0.3-0.3-0.3c-1.9-1.4-2.7-3.1-4.8-4.1
			L555.9,233.5z"/>
		<path class="st1" d="M582.4,182.9c-0.6,0.1-1.1,0.5-1.6,0.7c-0.8,0.3-1.6,0.2-2.3-0.1c-0.2-0.1-0.5-0.3-0.6-0.5
			c-0.5-0.6-0.3-1.5,0-2.3c1.3-3.5,4.8-5.6,8.3-5.8c3.5-0.1,6.8,1.5,9.6,3.8c0.8,0.7,1.5,1.4,2.2,2.3c1.4,2,2.1,4.5,2.3,7
			c0.1,1.1,0,2.1-0.2,3.1c-0.2,1-0.9,1.9-1.8,2.4c-1,0.5-2.1,0.3-3.1-0.1c-1-0.5-1.8-1.2-2.7-1.9c-0.4-0.4-0.8-0.7-1.3-0.8
			c-0.5-0.2-1.1,0-1.4,0.3c-0.5,0.5-0.3,1.4-0.8,2c-0.4,0.6-1.3,0.7-2,0.7c-0.7,0-1.5-0.1-1.9-0.6c-0.4-0.5-0.3-1.3-0.2-1.9
			c0.1-0.7,0.4-1.3,0.3-2c-0.1-1.4-1.3-2.2-1.7-3.4c-0.2-0.8,0.3-1.2,0.2-1.9C583.6,183.1,582.9,182.8,582.4,182.9z"/>
		<path class="st11" d="M613.2,279.1L613.2,279.1L613.2,279.1c-1.9,4-3.9,7.9-6.9,11.1c-0.5,0.5-0.9,1-1.3,1.5
			c-0.3,0.5-0.6,1-0.8,1.6c-0.5,1-1.1,1.9-1.8,2.7l-2.4,1.3l7.8-41.7L613.2,279.1z"/>
		<path class="st11" d="M601.9,214.8c-0.7,0.7-1.4,1.4-2.2,1.9c-2.2,1.7-4.4,3.3-6.6,5.1c-1.7,1.4-3.5,2.8-5.3,4.2
			c-0.2-0.4-0.4-0.9-0.5-1.3c-0.2-1,0.1-2,0-3c-0.1-0.9-0.5-1.7-0.7-2.6c-0.2-1.1-0.2-2.3-0.1-3.4c0.1-1.4,0.4-2.7,0.3-4.1
			c-0.4-4.5,1.2-8.9,4.3-12.2l0.1-0.1c0.4-0.2,0.7-0.4,1.1-0.5c1.2-0.4,2.5-0.3,3.6,0.4c1.8,1.4,3.5,3,4.9,4.8
			c0.8,0.9,1.5,1.8,2,2.8C604.1,209.3,603.8,212.5,601.9,214.8z"/>
		<path class="st2" d="M595.5,197.4c-1.1-0.7-2.4-0.8-3.6-0.4c-1.2,0.4-2.2,1.1-3.1,2.1c-0.8,0.9-1.6,1.8-2.2,2.9
			c-0.6,1-1,2.1-1.6,3.1c-1,1.8-2.3,3.4-3.7,5c-0.8,1-1.7,2-2.7,2.7c-1.1,0.7-2.2,1.2-3,2.2c-0.2,0.3-0.4,0.7-0.6,1
			c-0.7,1-1.9,1.6-3,2.3c-3,2-4.9,5.3-7.7,7.6c-1.2,1-2.6,1.7-3.8,2.7c-1.1,0.9-2,2-3.1,3c-1.1,0.9-2.4,1.7-3.8,1.8
			c1,2.1,2.1,4.2,3.8,5.9c1.6,1.7,4.1,2.7,6.4,2.1c0.8-0.2,1.6-0.7,1.9-1.5c0.1-0.4,0.2-0.8,0.4-1.2c0.2-0.3,0.5-0.5,0.9-0.7
			c9-5.3,17.6-11.2,25.7-17.8c2.2-1.8,4.3-3.4,6.6-5.1c0.8-0.6,1.5-1.2,2.2-1.9c1.9-2.3,2.3-5.5,0.9-8.1c-0.6-1-1.3-1.9-2-2.8
			C599,200.4,597.4,198.8,595.5,197.4z"/>
		<g class="st12">
			<path d="M587.5,192.3c-0.7,0-1.5-0.1-1.9-0.6c-0.4-0.5-0.3-1.3-0.2-1.9c0.1-0.7,0.4-1.3,0.3-2c-0.1-1.4-1.3-2.2-1.7-3.4
				c-0.2-0.8,0.3-1.2,0.2-1.9c0-0.6-0.7-1-1.3-0.9c-0.6,0.1-1.1,0.5-1.6,0.7c-0.8,0.3-1.6,0.2-2.3-0.1c-0.2-0.1-0.5-0.3-0.6-0.5
				c-0.5-0.6-0.3-1.5,0-2.3c0,0,0-0.1,0-0.1c-0.3,0.5-0.5,0.9-0.7,1.4c-0.3,0.7-0.4,1.7,0,2.3c0.2,0.2,0.4,0.4,0.6,0.5
				c0.7,0.4,1.6,0.4,2.3,0.1c0.6-0.2,1.1-0.6,1.6-0.7c0.5-0.1,1.2,0.2,1.3,0.9c0.1,0.7-0.5,1.1-0.2,1.9c0.4,1.2,1.5,2.1,1.7,3.4
				c0.1,0.7-0.2,1.3-0.3,2s-0.2,1.4,0.2,1.9c0.4,0.6,1.2,0.6,1.9,0.6c0.7,0,1.6,0,2-0.7c0.2-0.3,0.3-0.7,0.4-1
				C588.7,192.3,588.1,192.3,587.5,192.3z"/>
			<path d="M598.8,192.2c-1,0.5-2.1,0.3-3.1-0.1c-1-0.5-1.8-1.2-2.7-1.9c-0.4-0.4-0.8-0.7-1.3-0.8c-0.5-0.2-1.1,0-1.4,0.3
				c-0.2,0.3-0.4,0.7-0.4,1.1c0.4-0.2,0.8-0.3,1.2-0.1c0.5,0.2,0.9,0.5,1.3,0.8c0.8,0.7,1.7,1.5,2.7,1.9c1,0.5,2.1,0.6,3.1,0.1
				c0.9-0.5,1.5-1.3,1.7-2.3C599.6,191.6,599.2,191.9,598.8,192.2z"/>
		</g>
		<circle class="st1" cx="514.6" cy="327.4" r="10.1"/>
		<circle class="st11" cx="514.6" cy="327.4" r="10.1"/>
		<circle class="st13" cx="514.6" cy="327.4" r="6.4"/>
		<circle class="st11" cx="514.6" cy="327.4" r="6.4"/>
		<path class="st1" d="M506.8,311.5l6.7,15.1c0.3,0.7,1,1,1.7,0.7c0.3-0.1,0.5-0.3,0.6-0.6l7.9-16.1L506.8,311.5z"/>
		<path class="st11" d="M506.8,311.5l6.7,15.1c0.3,0.7,1,1,1.7,0.7c0.3-0.1,0.5-0.3,0.6-0.6l7.9-16.1L506.8,311.5z"/>
		<circle class="st1" cx="451.4" cy="327.4" r="10.1"/>
		<circle class="st11" cx="451.4" cy="327.4" r="10.1"/>
		<circle class="st13" cx="451.4" cy="327.4" r="6.4"/>
		<circle class="st11" cx="451.4" cy="327.4" r="6.4"/>
		<path class="st1" d="M443.6,311.5l6.7,15.1c0.3,0.7,1,1,1.7,0.7c0.3-0.1,0.5-0.3,0.6-0.6l7.9-16.1L443.6,311.5z"/>
		<path class="st11" d="M443.6,311.5l6.7,15.1c0.3,0.7,1,1,1.7,0.7c0.3-0.1,0.5-0.3,0.6-0.6l7.9-16.1L443.6,311.5z"/>
		<path class="st1" d="M547.5,239.1c-0.1-0.5-0.4-1-0.8-1.2c-0.8-0.3-1.7,0-2.1,0.8c0,0,0,0,0,0l-5.8,14.5l-1.7,64.9h2.7l1-64.8
			l6.6-13.3C547.5,239.7,547.6,239.4,547.5,239.1z"/>
		<polygon class="st2" points="427.9,313 437,307.3 535.6,306.4 538.1,313 		"/>
		<polygon class="st1" points="427.9,319.1 427.9,313 539.9,312 539.8,316.1 429.9,316.1 429.9,319.1 		"/>
		<circle class="st1" cx="442.1" cy="331" r="10.1"/>
		<circle class="st13" cx="442.1" cy="331" r="6.4"/>
		<path class="st1" d="M434.3,315.1l6.7,15.1c0.3,0.7,1,1,1.7,0.7c0.3-0.1,0.5-0.3,0.6-0.6l7.9-16.1L434.3,315.1z"/>
		<circle class="st1" cx="520.9" cy="331" r="10.1"/>
		<circle class="st13" cx="520.9" cy="331" r="6.4"/>
		<path class="st1" d="M513.1,315.1l6.7,15.1c0.3,0.7,1,1,1.7,0.7c0.3-0.1,0.5-0.3,0.6-0.6l7.9-16.1L513.1,315.1z"/>
		<rect x="440.5" y="286.5" class="st13" width="42.3" height="23.3"/>
		<rect x="455.4" y="290.6" class="st11" width="12.9" height="2.7"/>
		<rect x="457" y="290.9" class="st11" width="9.6" height="2"/>
		<rect x="483.5" y="286.5" class="st13" width="42.3" height="23.3"/>
		<rect x="498.4" y="290.6" class="st11" width="12.9" height="2.7"/>
		<rect x="500" y="290.9" class="st11" width="9.6" height="2"/>
		<rect x="440.5" y="262.5" class="st13" width="42.3" height="23.3"/>
		<rect x="455.4" y="266.5" class="st11" width="12.9" height="2.7"/>
		<rect x="457" y="266.9" class="st11" width="9.6" height="2"/>
		<rect x="483.5" y="262.5" class="st13" width="42.3" height="23.3"/>
		<rect x="498.4" y="266.5" class="st11" width="12.9" height="2.7"/>
		<rect x="500" y="266.9" class="st11" width="9.6" height="2"/>
		<rect x="440.5" y="238.1" class="st13" width="42.3" height="23.3"/>
		<rect x="455.4" y="242.2" class="st11" width="12.9" height="2.7"/>
		<rect x="457" y="242.5" class="st11" width="9.6" height="2"/>
		<rect x="483.5" y="238.1" class="st13" width="42.3" height="23.3"/>
		<rect x="498.4" y="242.2" class="st11" width="12.9" height="2.7"/>
		<rect x="500" y="242.5" class="st11" width="9.6" height="2"/>
		<rect x="483.5" y="213.8" class="st13" width="42.3" height="23.3"/>
		<rect x="498.4" y="217.8" class="st11" width="12.9" height="2.7"/>
		<rect x="500" y="218.2" class="st11" width="9.6" height="2"/>
	</g>
</g>
</svg>
