<?xml version="1.0" encoding="utf-8"?>
<!-- Generator: Adobe Illustrator 25.0.0, SVG Export Plug-In . SVG Version: 6.00 Build 0)  -->
<svg version="1.1" id="Layer_1" xmlns="http://www.w3.org/2000/svg" xmlns:xlink="http://www.w3.org/1999/xlink" x="0px" y="0px"
	 viewBox="0 0 700 400" style="enable-background:new 0 0 700 400;" xml:space="preserve">
<style type="text/css">
	.st0{fill:#3F3D56;}
	.st1{fill:#E6E6E6;}
	.st2{fill:#FFB6B6;}
	.st3{fill:#2F2E41;}
	.st4{fill:#069FCF;}
	.st5{fill:#FFFFFF;}
	.st6{fill:#CCCCCC;}
	.st7{opacity:0.1;fill:#069FCF;enable-background:new    ;}
</style>
<path class="st0" d="M577.3,11.2H146.1c-8.3,0-15.1,6.8-15.1,15.1V289c0,8.3,6.8,15.1,15.1,15.1h431.2c8.3,0,15.1-6.8,15.1-15.1
	V26.3C592.4,18,585.6,11.2,577.3,11.2z M591.1,289c0,7.6-6.2,13.8-13.8,13.8l0,0H146.1c-7.6,0-13.8-6.2-13.8-13.8l0,0V116.2
	c0-57.2,46.4-103.6,103.6-103.6c0,0,0,0,0,0h341.3c7.6,0,13.8,6.2,13.8,13.8l0,0V289z"/>
<path class="st1" d="M551.7,234.7H354.2c-4.3,0-7.7-3.5-7.7-7.7v-64.1c0-4.3,3.5-7.7,7.7-7.7h197.5c4.3,0,7.7,3.5,7.7,7.7V227
	C559.4,231.3,556,234.7,551.7,234.7z"/>
<ellipse class="st0" cx="243.7" cy="47.7" rx="5.8" ry="5.9"/>
<ellipse class="st0" cx="223.9" cy="47.7" rx="5.8" ry="5.9"/>
<ellipse class="st0" cx="204" cy="47.7" rx="5.8" ry="5.9"/>
<path class="st1" d="M431.7,107.8h-80.5c-2.8,0-5-2.2-5-5c0-2.8,2.2-5,5-5h80.5c2.8,0,5,2.2,5,5
	C436.7,105.6,434.5,107.8,431.7,107.8z"/>
<path class="st1" d="M494.5,124.7H351.3c-2.8,0-5-2.2-5-5c0-2.8,2.2-5,5-5h143.3c2.8,0,5,2.2,5,5
	C499.5,122.5,497.3,124.7,494.5,124.7z"/>
<polygon class="st2" points="207.7,361.4 214.4,361.4 217.6,335.5 207.7,335.5 "/>
<path class="st3" d="M207.5,368.5l20.7,0v-0.3c0-4.4-3.6-8-8-8h0l-3.8-2.9l-7,2.9l-1.8,0L207.5,368.5z"/>
<polygon class="st2" points="168.9,361.4 175.6,361.4 178.8,335.5 168.9,335.5 "/>
<path class="st3" d="M168.7,368.5l20.7,0v-0.3c0-4.4-3.6-8-8-8h0l-3.8-2.9l-7,2.9l-1.8,0L168.7,368.5z"/>
<path class="st2" d="M253,189.4L230.1,168l6.2-10.4l22.6,25.8c3.6-0.4,6.8,2.3,7.2,5.9s-2.3,6.8-5.9,7.2c-3.6,0.4-6.8-2.3-7.2-5.9
	C252.9,190.2,252.9,189.8,253,189.4L253,189.4z"/>
<path class="st3" d="M162.3,220.7c0,0-2.8,25.6,3.3,49.7l-2.3,11.7l5.2,66.9H181l8.8-110.3L206.2,349h13.2l-1.6-60.6l5.7-58.2
	l-2.4-13.3L162.3,220.7z"/>
<path class="st4" d="M196.9,121h-28l-4.7,12l1.1,94.5c0,0,55.4,0,59.2-3.8l-11.8-41.2l-4.3-52.6L196.9,121z"/>
<polygon class="st3" points="212.3,129.5 232.2,150.8 239.3,155.6 241.2,161.7 233.1,175.4 224.1,172.1 221.3,161.7 204.6,148.1 
	202.8,126.2 "/>
<polygon class="st3" points="194.3,121.7 197.6,135.7 202.1,185.6 208.3,223.5 226,223.5 215.4,182.3 211.1,129.3 196.9,120.8 "/>
<polygon class="st3" points="171.5,121.7 176.5,137.8 184.6,190.8 172.3,228.7 160.3,228.9 157.2,217.2 164.2,187 154.7,129.3 
	169,120.8 "/>
<circle class="st2" cx="181.9" cy="105.4" r="16.9"/>
<path class="st3" d="M172.1,113.8c0,0-0.8,1.2,0.8,6.5l-7.2-5.8l-0.8-6.4c0,0-3.7-13.1,8.9-19.4c0,0,11-5.8,21.5,2.6
	c0,0,4.2,0.5,3.7,1c-0.5,0.5-3.1,2.1-0.5,1.6c2.6-0.5,4.2-3.1,4.2-1.6c0,1.6-4.7,5.2-4.7,5.2s1.8,5-10.7-1.8l0,0
	c-1.3,3.4-3.9,6.1-7.2,7.6l0.4,0.4l0,0l-3.1,6.7C177.2,110.4,173.9,106.2,172.1,113.8z"/>
<path class="st5" d="M173.4,240l56.9-128.4c1.2-2.8,4.5-4,7.3-2.8l41.7,18.5c2.8,1.2,4,4.5,2.8,7.3L225.2,263
	c-1.2,2.8-4.5,4-7.3,2.8l-41.7-18.5C173.4,246,172.2,242.8,173.4,240z"/>
<path class="st0" d="M173.4,240l56.9-128.4c1.2-2.8,4.5-4,7.3-2.8l41.7,18.5c2.8,1.2,4,4.5,2.8,7.3L225.2,263
	c-1.2,2.8-4.5,4-7.3,2.8l-41.7-18.5C173.4,246,172.2,242.8,173.4,240z M281.2,134.2c1-2.3,0-5-2.3-6l-41.7-18.5c-2.3-1-5,0-6,2.3
	l-56.9,128.4c-1,2.3,0,5,2.3,6l41.7,18.5c2.3,1,5,0,6-2.3L281.2,134.2z"/>
<circle class="st6" cx="235.7" cy="166.2" r="21.3"/>
<circle class="st0" cx="225.3" cy="189.6" r="21.3"/>
<path class="st4" d="M206.3,232.4c-10.8-4.8-15.6-17.4-10.8-28.1c4.8-10.8,17.4-15.6,28.1-10.8l0,0c10.8,4.8,22.6,29.2,10.8,28.1
	C221,220.3,217.1,237.2,206.3,232.4z"/>
<path class="st2" d="M177.6,219.8L161,178.3l13.3,2.7l11.1,35.6c3.5,1.1,5.4,4.8,4.3,8.2c-1.1,3.5-4.8,5.4-8.2,4.3
	c-3.5-1.1-5.4-4.8-4.3-8.2C177.3,220.5,177.5,220.1,177.6,219.8L177.6,219.8z"/>
<path class="st3" d="M150.7,139.4c-1,10.7,1,20.1,4.6,28.8l0.5,7.7l3.7,5.3l15.8,2.1l2.9-9.1l-6.5-8.6l-0.5-21.6l-16.2-14.8
	L150.7,139.4z"/>
<ellipse class="st7" cx="204" cy="371.2" rx="96.4" ry="17.6"/>
</svg>
