<?xml version="1.0" encoding="UTF-8"?>
<svg xmlns="http://www.w3.org/2000/svg" xmlns:xlink="http://www.w3.org/1999/xlink" width="155px" height="54px" viewBox="0 0 154 54" version="1.1">
<g id="surface1">
<path style="fill:none;stroke-width:2;stroke-linecap:butt;stroke-linejoin:miter;stroke:rgb(93.72549%,25.490196%,13.72549%);stroke-opacity:1;stroke-miterlimit:4;" d="M 468.761567 597.693866 C 468.878348 598.043258 468.819957 598.39265 468.586394 598.800275 C 468.411222 599.091435 468.177658 599.266131 467.885704 599.440828 C 432.851207 618.075087 395.889813 629.080946 357.001522 632.57487 C 309.880124 636.767578 261.474127 629.546803 217.739397 610.621383 C 165.596388 588.143808 123.379819 553.321036 91.089692 506.211299 C 61.251978 462.653718 44.493811 410.768953 41.924614 358.709491 C 39.588981 311.890914 48.114042 267.11046 67.383015 224.251664 C 67.73336 223.436415 67.73336 222.912326 67.324625 222.73763 " transform="matrix(0.0668983,0,0,0.0670807,0,0)"/>
<path style="fill:none;stroke-width:2;stroke-linecap:butt;stroke-linejoin:miter;stroke:rgb(95.686275%,48.627451%,12.54902%);stroke-opacity:1;stroke-miterlimit:4;" d="M 536.72849 291.160301 C 537.662744 290.927373 538.480215 291.393229 539.122514 292.499638 C 539.297687 292.732567 539.53125 292.907263 539.823204 292.907263 C 539.998377 292.907263 540.173549 293.023727 540.290331 293.140191 C 593.951502 352.129268 621.161627 428.471499 616.081625 507.900029 C 609.36668 613.532986 545.311942 706.762514 449.317421 751.834129 C 443.244775 754.6875 437.113738 757.307943 430.92431 759.637225 C 377.146358 780.018446 321.558289 784.152922 264.218496 772.157118 " transform="matrix(0.0668983,0,0,0.0670807,0,0)"/>
<path style=" stroke:none;fill-rule:nonzero;fill:rgb(96.470588%,57.254902%,11.764706%);fill-opacity:1;" d="M 12.917969 11.578125 C 14.3125 8.097656 16.460938 5.125 19.355469 2.65625 C 19.960938 2.136719 20.6875 1.601562 21.535156 1.054688 C 22.171875 0.636719 22.78125 0.476562 23.464844 0.78125 C 23.871094 0.964844 24.117188 1.25 24.332031 1.648438 C 25.5 3.796875 26.664062 5.933594 27.816406 8.058594 C 27.828125 8.078125 27.820312 8.089844 27.800781 8.097656 C 24.644531 9.257812 21.832031 11.359375 19.578125 13.898438 C 16.121094 17.792969 13.789062 22.671875 13.152344 27.871094 C 13.125 28.105469 13.105469 28.332031 13.09375 28.542969 C 13.089844 28.648438 13.066406 28.652344 13.03125 28.554688 C 12.621094 27.464844 12.277344 26.335938 12.003906 25.167969 C 11.613281 23.5 11.402344 21.855469 11.367188 20.230469 C 11.300781 17.199219 11.816406 14.316406 12.917969 11.578125 Z M 12.917969 11.578125 "/>
<path style=" stroke:none;fill-rule:nonzero;fill:rgb(94.509804%,39.607843%,13.333333%);fill-opacity:1;" d="M 29.363281 8.757812 C 29.382812 8.75 29.386719 8.734375 29.378906 8.714844 L 26.953125 4.238281 C 26.945312 4.21875 26.949219 4.195312 26.964844 4.183594 C 30.542969 1.789062 34.738281 0.6875 39.070312 0.789062 C 39.824219 0.808594 40.46875 1.253906 40.695312 1.957031 C 40.75 2.128906 40.789062 2.425781 40.804688 2.839844 C 40.925781 5.96875 41.054688 9.070312 41.183594 12.148438 C 41.1875 12.175781 41.175781 12.1875 41.148438 12.183594 C 38.4375 11.878906 35.65625 11.878906 32.9375 12.25 C 27.882812 12.9375 23.183594 15.039062 19.652344 18.664062 C 18.136719 20.222656 16.875 21.960938 15.867188 23.882812 C 15.804688 24.003906 15.78125 24 15.804688 23.859375 C 16.707031 18.460938 20.507812 13.945312 25.039062 11.035156 C 26.410156 10.15625 27.851562 9.398438 29.363281 8.757812 Z M 29.363281 8.757812 "/>
<path style=" stroke:none;fill-rule:nonzero;fill:rgb(92.54902%,10.980392%,14.117647%);fill-opacity:1;" d="M 31.359375 40.09375 C 31.367188 40.117188 31.363281 40.140625 31.347656 40.167969 C 31.335938 40.1875 31.320312 40.199219 31.300781 40.210938 C 28.957031 41.460938 26.484375 42.199219 23.882812 42.433594 C 20.730469 42.714844 17.492188 42.230469 14.566406 40.960938 C 11.078125 39.453125 8.253906 37.117188 6.09375 33.957031 C 4.097656 31.035156 2.976562 27.554688 2.804688 24.0625 C 2.648438 20.921875 3.21875 17.917969 4.507812 15.042969 C 4.53125 14.988281 4.53125 14.953125 4.503906 14.941406 C 6.382812 11.921875 8.789062 9.410156 11.71875 7.40625 C 12.523438 6.855469 13.378906 6.351562 14.273438 5.886719 C 14.316406 5.863281 14.328125 5.875 14.300781 5.914062 C 11.789062 9.796875 10.390625 14.390625 10.042969 19.003906 C 9.855469 21.441406 10.039062 23.890625 10.585938 26.347656 C 11.800781 31.804688 14.980469 36.820312 19.960938 39.464844 C 21.640625 40.355469 23.421875 40.890625 25.304688 41.070312 C 27.359375 41.269531 29.378906 40.945312 31.359375 40.09375 Z M 31.359375 40.09375 "/>
<path style=" stroke:none;fill-rule:nonzero;fill:rgb(92.54902%,10.980392%,14.117647%);fill-opacity:1;" d="M 42.359375 13.386719 L 42.101562 8.253906 C 42.097656 8.214844 42.117188 8.195312 42.15625 8.191406 C 43.425781 8.113281 44.742188 8.292969 45.949219 8.605469 C 48.203125 9.195312 50.3125 10.105469 52.273438 11.34375 C 52.675781 11.597656 52.960938 11.972656 53.125 12.472656 C 53.261719 12.886719 53.261719 13.324219 53.128906 13.785156 C 53.082031 13.960938 52.960938 14.195312 52.769531 14.492188 C 51.003906 17.222656 49.261719 19.921875 47.542969 22.582031 C 47.539062 22.585938 47.535156 22.589844 47.527344 22.589844 C 47.523438 22.589844 47.515625 22.589844 47.511719 22.585938 C 45.449219 20.585938 43.058594 19.152344 40.351562 18.285156 C 37.25 17.289062 33.945312 17.070312 30.695312 17.449219 C 27.140625 17.859375 23.605469 18.9375 20.304688 20.449219 C 20.199219 20.496094 20.1875 20.480469 20.265625 20.398438 C 22.4375 18.078125 24.984375 16.316406 27.90625 15.105469 C 32.429688 13.234375 37.453125 12.851562 42.316406 13.425781 C 42.347656 13.429688 42.359375 13.414062 42.359375 13.386719 Z M 42.359375 13.386719 "/>
<path style=" stroke:none;fill-rule:nonzero;fill:rgb(92.54902%,10.980392%,14.117647%);fill-opacity:1;" d="M 84.15625 29.367188 L 84.15625 15.765625 C 84.15625 15.726562 84.128906 15.695312 84.089844 15.695312 L 60.476562 15.695312 C 60.453125 15.695312 60.441406 15.6875 60.441406 15.664062 L 60.441406 9.859375 C 60.441406 9.839844 60.453125 9.828125 60.472656 9.828125 C 68.503906 9.828125 76.507812 9.828125 84.488281 9.828125 C 84.882812 9.828125 85.332031 9.890625 85.828125 10.011719 C 88.472656 10.664062 90.007812 12.890625 90.007812 15.5625 C 90.011719 23.519531 90.011719 31.476562 90.011719 39.433594 C 90.011719 39.765625 89.988281 39.992188 89.941406 40.113281 C 89.855469 40.351562 89.691406 40.523438 89.445312 40.640625 C 89.214844 40.746094 88.972656 40.757812 88.714844 40.675781 C 88.480469 40.601562 88.230469 40.363281 88.023438 40.195312 C 81.835938 35.101562 75.652344 30.015625 69.472656 24.941406 C 69.132812 24.664062 68.789062 24.46875 68.429688 24.359375 C 67.527344 24.078125 67.148438 24.859375 67.148438 25.609375 C 67.148438 28.453125 67.148438 31.34375 67.148438 34.277344 C 67.148438 35.230469 67.890625 35.925781 68.832031 35.921875 C 71.074219 35.921875 73.136719 35.921875 75.023438 35.921875 C 75.046875 35.921875 75.058594 35.933594 75.058594 35.957031 L 75.058594 41.773438 C 75.058594 41.796875 75.046875 41.8125 75.019531 41.8125 C 72.925781 41.804688 70.773438 41.804688 68.5625 41.8125 C 68.078125 41.816406 67.664062 41.789062 67.328125 41.738281 C 64.222656 41.265625 61.84375 38.882812 61.386719 35.761719 C 61.335938 35.414062 61.308594 34.960938 61.308594 34.414062 C 61.308594 31.59375 61.3125 28.84375 61.320312 26.160156 C 61.324219 25.121094 61.480469 24.074219 61.773438 23.078125 C 62.132812 21.839844 62.804688 20.730469 63.828125 19.960938 C 64.371094 19.558594 65.019531 19.246094 65.777344 19.027344 C 68.796875 18.15625 71.789062 19.472656 74.210938 21.257812 C 74.433594 21.421875 74.785156 21.699219 75.261719 22.089844 C 78.3125 24.601562 81.265625 27.03125 84.125 29.378906 C 84.132812 29.386719 84.140625 29.386719 84.148438 29.382812 C 84.152344 29.378906 84.15625 29.375 84.15625 29.367188 Z M 84.15625 29.367188 "/>
<path style=" stroke:none;fill-rule:nonzero;fill:rgb(92.54902%,10.980392%,14.117647%);fill-opacity:1;" d="M 99.351562 21.027344 C 100.476562 21.035156 101.621094 21.035156 102.789062 21.023438 C 103.359375 21.019531 103.792969 21.042969 104.089844 21.085938 C 105.972656 21.371094 107.503906 22.226562 108.679688 23.660156 C 109.484375 24.636719 109.992188 25.789062 110.207031 27.117188 C 110.261719 27.46875 110.289062 27.90625 110.285156 28.421875 C 110.277344 29.269531 110.324219 30.097656 110.15625 30.917969 C 109.800781 32.628906 108.96875 34.023438 107.652344 35.097656 C 106.582031 35.976562 105.367188 36.496094 104.007812 36.65625 C 103.691406 36.695312 103.296875 36.714844 102.816406 36.714844 C 100.074219 36.714844 97.210938 36.707031 94.226562 36.699219 C 93.71875 36.695312 93.433594 36.3125 93.4375 35.832031 C 93.445312 34.597656 93.445312 33.246094 93.433594 31.777344 C 93.433594 31.53125 93.460938 31.351562 93.523438 31.234375 C 93.65625 30.988281 93.898438 30.828125 94.171875 30.828125 C 97.105469 30.820312 99.863281 30.820312 102.445312 30.828125 C 102.757812 30.828125 103.011719 30.800781 103.199219 30.738281 C 103.851562 30.527344 104.347656 29.933594 104.414062 29.25 C 104.433594 29.050781 104.4375 28.847656 104.429688 28.644531 C 104.382812 27.667969 103.625 26.914062 102.644531 26.914062 C 99.453125 26.914062 96.398438 26.917969 93.480469 26.917969 C 93.453125 26.917969 93.4375 26.902344 93.4375 26.875 C 93.441406 22.882812 93.441406 19.128906 93.441406 15.625 C 93.4375 13.789062 94.089844 12.304688 95.386719 11.175781 C 96.140625 10.515625 97.015625 10.097656 98.011719 9.914062 C 98.347656 9.851562 98.765625 9.820312 99.265625 9.820312 C 104.453125 9.832031 109.496094 9.832031 114.394531 9.820312 C 114.863281 9.820312 115.261719 9.847656 115.589844 9.902344 C 116.847656 10.117188 117.90625 10.691406 118.765625 11.628906 C 119.753906 12.703125 120.246094 14.003906 120.246094 15.539062 C 120.25 24.105469 120.25 32.855469 120.246094 41.789062 C 120.246094 41.800781 120.238281 41.808594 120.230469 41.808594 L 114.414062 41.808594 C 114.390625 41.808594 114.378906 41.796875 114.378906 41.769531 C 114.378906 33.789062 114.378906 25.664062 114.378906 17.398438 C 114.378906 16.460938 113.5625 15.695312 112.636719 15.695312 C 108.625 15.699219 104.753906 15.699219 101.03125 15.695312 C 100.273438 15.695312 99.585938 16.234375 99.375 16.953125 C 99.324219 17.121094 99.300781 17.378906 99.304688 17.722656 C 99.3125 18.851562 99.3125 19.941406 99.308594 20.980469 C 99.308594 21.011719 99.320312 21.027344 99.351562 21.027344 Z M 99.351562 21.027344 "/>
<path style=" stroke:none;fill-rule:nonzero;fill:rgb(92.54902%,10.980392%,14.117647%);fill-opacity:1;" d="M 129.53125 29.359375 C 129.53125 29.382812 129.539062 29.386719 129.558594 29.371094 C 132.40625 27.035156 135.253906 24.691406 138.105469 22.34375 C 138.246094 22.230469 138.390625 22.109375 138.542969 21.984375 C 140.5 20.347656 142.933594 18.902344 145.542969 18.761719 C 147.472656 18.65625 149.535156 19.3125 150.777344 20.859375 C 151.757812 22.082031 152.171875 23.667969 152.316406 25.273438 C 152.34375 25.578125 152.359375 26.027344 152.359375 26.613281 C 152.363281 31.730469 152.363281 36.789062 152.359375 41.789062 C 152.359375 41.800781 152.351562 41.808594 152.339844 41.808594 L 146.558594 41.808594 C 146.546875 41.808594 146.539062 41.800781 146.539062 41.792969 C 146.542969 35.707031 146.539062 30.300781 146.527344 25.574219 C 146.527344 25.179688 146.429688 24.855469 146.238281 24.605469 C 146.042969 24.347656 145.753906 24.253906 145.375 24.328125 C 144.917969 24.414062 144.46875 24.726562 144.101562 25.023438 C 137.628906 30.34375 131.34375 35.507812 125.246094 40.523438 C 124.933594 40.777344 124.492188 40.785156 124.152344 40.59375 C 123.792969 40.382812 123.660156 40.039062 123.660156 39.644531 C 123.664062 31.265625 123.664062 23.28125 123.664062 15.695312 C 123.664062 15.160156 123.71875 14.640625 123.824219 14.136719 C 124.3125 11.867188 126.054688 10.285156 128.316406 9.90625 C 128.652344 9.851562 129.085938 9.824219 129.625 9.824219 C 137.402344 9.828125 145.269531 9.832031 153.226562 9.828125 C 153.238281 9.828125 153.246094 9.835938 153.246094 9.847656 L 153.246094 15.664062 C 153.246094 15.683594 153.230469 15.695312 153.214844 15.695312 L 129.566406 15.695312 C 129.542969 15.695312 129.53125 15.707031 129.53125 15.730469 Z M 129.53125 29.359375 "/>
<path style=" stroke:none;fill-rule:nonzero;fill:rgb(94.509804%,39.607843%,13.333333%);fill-opacity:1;" d="M 4.503906 14.941406 C 4.53125 14.953125 4.53125 14.988281 4.507812 15.042969 C 3.21875 17.917969 2.648438 20.921875 2.804688 24.0625 C 2.976562 27.554688 4.097656 31.035156 6.09375 33.957031 C 8.253906 37.117188 11.078125 39.453125 14.566406 40.960938 C 17.492188 42.230469 20.730469 42.714844 23.882812 42.433594 C 26.484375 42.199219 28.957031 41.460938 31.300781 40.210938 C 31.320312 40.199219 31.335938 40.1875 31.347656 40.167969 C 31.363281 40.140625 31.367188 40.117188 31.359375 40.09375 C 32.226562 39.714844 32.980469 39.285156 33.632812 38.808594 C 34.796875 37.953125 35.8125 36.890625 36.675781 35.621094 C 38.734375 32.597656 39.476562 28.859375 38.652344 25.285156 C 38.164062 23.160156 37.246094 21.242188 35.90625 19.53125 C 35.96875 19.515625 36.023438 19.546875 36.066406 19.621094 C 36.078125 19.636719 36.09375 19.648438 36.113281 19.648438 C 36.125 19.648438 36.136719 19.65625 36.144531 19.664062 C 39.734375 23.621094 41.554688 28.742188 41.214844 34.070312 C 40.765625 41.15625 36.480469 47.410156 30.058594 50.433594 C 29.652344 50.625 29.242188 50.800781 28.828125 50.957031 C 25.230469 52.324219 21.511719 52.601562 17.675781 51.796875 C 17.566406 51.796875 17.390625 51.75 17.140625 51.65625 C 14.746094 50.753906 12.613281 49.59375 10.742188 48.171875 C 7.230469 45.503906 4.585938 42.148438 2.816406 38.117188 C 2.640625 37.714844 2.476562 37.304688 2.324219 36.886719 C 0.933594 33.089844 0.46875 29.207031 0.921875 25.238281 C 1.34375 21.5625 2.535156 18.128906 4.503906 14.941406 Z M 4.503906 14.941406 "/>
<path style=" stroke:none;fill-rule:nonzero;fill:rgb(96.470588%,57.254902%,11.764706%);fill-opacity:1;" d="M 17.675781 51.796875 C 21.511719 52.601562 25.230469 52.324219 28.828125 50.957031 C 29.242188 50.800781 29.652344 50.625 30.058594 50.433594 C 36.480469 47.410156 40.765625 41.15625 41.214844 34.070312 C 41.554688 28.742188 39.734375 23.621094 36.144531 19.664062 C 36.136719 19.65625 36.125 19.648438 36.113281 19.648438 C 36.09375 19.648438 36.078125 19.636719 36.066406 19.621094 C 36.023438 19.546875 35.96875 19.515625 35.90625 19.53125 L 35.105469 18.621094 C 35.046875 18.554688 35.058594 18.535156 35.144531 18.550781 C 35.269531 18.578125 35.449219 18.5625 35.558594 18.566406 C 38.519531 18.722656 41.292969 19.855469 43.570312 21.769531 C 47.144531 24.765625 49.164062 29.289062 49.050781 33.960938 C 49 36.023438 48.539062 38.042969 47.667969 40.011719 C 47.492188 40.40625 47.285156 40.800781 47.039062 41.195312 C 45.003906 44.496094 42.371094 47.183594 39.144531 49.257812 C 35.40625 51.664062 31.097656 52.976562 26.671875 53.15625 C 23.824219 53.269531 20.957031 52.878906 18.078125 51.980469 C 17.886719 51.917969 17.753906 51.859375 17.675781 51.796875 Z M 17.675781 51.796875 "/>
<path style=" stroke:none;fill-rule:nonzero;fill:rgb(13.72549%,12.156863%,12.54902%);fill-opacity:1;" d="M 88.988281 46.738281 L 87.636719 46.738281 C 87.613281 46.738281 87.601562 46.75 87.601562 46.773438 L 87.601562 51.214844 C 87.601562 51.234375 87.589844 51.25 87.570312 51.25 L 86.933594 51.25 C 86.910156 51.25 86.902344 51.238281 86.902344 51.214844 L 86.902344 46.773438 C 86.902344 46.75 86.890625 46.738281 86.867188 46.738281 L 80.746094 46.738281 C 80.722656 46.738281 80.710938 46.75 80.710938 46.773438 L 80.710938 51.21875 C 80.710938 51.226562 80.710938 51.234375 80.703125 51.242188 C 80.699219 51.246094 80.6875 51.25 80.679688 51.25 C 80.515625 51.246094 80.335938 51.246094 80.152344 51.253906 C 80.054688 51.257812 79.960938 51.234375 79.871094 51.191406 C 79.003906 50.777344 78.105469 50.355469 77.171875 49.917969 C 77.152344 49.910156 77.144531 49.894531 77.144531 49.875 C 77.121094 49.445312 77.125 49.128906 77.152344 48.921875 C 77.238281 48.285156 77.601562 47.871094 78.246094 47.671875 C 78.800781 47.503906 79.375 47.328125 79.96875 47.152344 C 79.992188 47.144531 80.011719 47.121094 80.011719 47.09375 L 80.011719 46.773438 C 80.011719 46.75 80 46.738281 79.976562 46.738281 L 76.265625 46.738281 C 76.242188 46.738281 76.230469 46.75 76.230469 46.773438 L 76.230469 51.214844 C 76.230469 51.238281 76.21875 51.25 76.195312 51.25 L 75.5625 51.25 C 75.539062 51.25 75.527344 51.238281 75.527344 51.214844 L 75.527344 46.773438 C 75.527344 46.75 75.515625 46.738281 75.496094 46.738281 L 74.925781 46.738281 C 74.914062 46.738281 74.910156 46.734375 74.910156 46.722656 L 74.910156 46.136719 C 74.910156 46.125 74.914062 46.117188 74.925781 46.117188 L 75.480469 46.117188 C 75.507812 46.117188 75.523438 46.105469 75.523438 46.078125 C 75.496094 45.179688 75.859375 44.550781 76.621094 44.195312 C 76.789062 44.113281 76.976562 44.070312 77.183594 44.058594 C 77.394531 44.050781 77.605469 44.058594 77.816406 44.085938 C 78.617188 44.191406 79.402344 44.292969 80.171875 44.394531 C 80.1875 44.398438 80.195312 44.40625 80.191406 44.421875 L 80.113281 44.992188 C 80.113281 45 80.105469 45.003906 80.097656 45.003906 C 79.386719 44.914062 78.617188 44.816406 77.789062 44.710938 C 77.222656 44.636719 76.808594 44.691406 76.453125 45.117188 C 76.207031 45.417969 76.210938 45.730469 76.234375 46.09375 C 76.234375 46.105469 76.246094 46.117188 76.261719 46.117188 L 90.3125 46.117188 C 90.324219 46.117188 90.328125 46.125 90.328125 46.136719 L 90.328125 46.703125 C 90.328125 46.722656 90.316406 46.738281 90.296875 46.738281 C 89.492188 46.816406 89.183594 47.664062 89.207031 48.363281 C 89.214844 48.683594 89.214844 49.015625 89.203125 49.359375 C 89.183594 49.972656 89.457031 50.472656 90.078125 50.632812 C 90.085938 50.636719 90.085938 50.640625 90.089844 50.648438 C 90.097656 50.824219 90.097656 51.027344 90.089844 51.253906 C 90.089844 51.261719 90.085938 51.265625 90.078125 51.265625 C 89.285156 51.101562 88.785156 50.65625 88.574219 49.933594 C 88.519531 49.738281 88.496094 49.480469 88.5 49.160156 C 88.507812 48.875 88.511719 48.597656 88.507812 48.332031 C 88.503906 47.734375 88.671875 47.214844 89.011719 46.78125 C 89.035156 46.753906 89.027344 46.738281 88.988281 46.738281 Z M 79.980469 50.542969 C 79.988281 50.546875 79.996094 50.546875 80 50.542969 C 80.007812 50.539062 80.011719 50.53125 80.011719 50.523438 L 80.011719 47.824219 C 80.011719 47.816406 80.007812 47.808594 80 47.804688 C 79.992188 47.796875 79.984375 47.796875 79.976562 47.800781 C 79.519531 47.941406 79.035156 48.089844 78.523438 48.242188 C 78.351562 48.292969 78.21875 48.355469 78.125 48.429688 C 77.789062 48.699219 77.820312 49.046875 77.839844 49.5 C 77.84375 49.523438 77.851562 49.539062 77.871094 49.550781 Z M 79.980469 50.542969 "/>
<path style=" stroke:none;fill-rule:nonzero;fill:rgb(13.72549%,12.156863%,12.54902%);fill-opacity:1;" d="M 126.523438 47.5625 L 126.523438 46.773438 C 126.523438 46.75 126.511719 46.738281 126.488281 46.738281 L 121.539062 46.738281 C 121.515625 46.738281 121.503906 46.75 121.503906 46.773438 L 121.503906 51.222656 C 121.503906 51.238281 121.492188 51.25 121.480469 51.25 L 120.835938 51.25 C 120.8125 51.25 120.800781 51.238281 120.800781 51.214844 L 120.800781 46.773438 C 120.800781 46.75 120.789062 46.738281 120.769531 46.738281 L 117.207031 46.738281 C 117.1875 46.738281 117.171875 46.753906 117.171875 46.777344 C 117.175781 47.816406 117.171875 48.824219 117.167969 49.800781 C 117.167969 49.953125 117.199219 50.09375 117.261719 50.214844 C 117.425781 50.539062 117.71875 50.683594 118.148438 50.644531 C 118.636719 50.601562 118.957031 50.363281 119.117188 49.925781 C 119.152344 49.828125 119.167969 49.726562 119.164062 49.617188 C 119.15625 49.484375 119.183594 49.335938 119.144531 49.214844 C 118.984375 48.675781 118.546875 48.511719 118.035156 48.574219 C 117.972656 48.582031 117.941406 48.554688 117.941406 48.488281 L 117.941406 48.015625 C 117.941406 47.957031 117.96875 47.929688 118.027344 47.9375 C 118.109375 47.949219 118.195312 47.953125 118.277344 47.949219 C 119.039062 47.921875 119.773438 48.460938 119.855469 49.238281 C 119.921875 49.855469 119.792969 50.394531 119.308594 50.820312 C 118.839844 51.238281 118.324219 51.289062 117.730469 51.242188 C 117.179688 51.203125 116.699219 50.789062 116.535156 50.265625 C 116.484375 50.109375 116.460938 49.882812 116.464844 49.585938 C 116.472656 48.59375 116.472656 47.65625 116.46875 46.773438 C 116.46875 46.75 116.457031 46.738281 116.433594 46.738281 L 113.671875 46.738281 C 113.644531 46.738281 113.632812 46.753906 113.636719 46.785156 C 113.667969 46.953125 113.75 47.089844 113.878906 47.195312 C 114.300781 47.550781 114.828125 47.625 115.371094 47.589844 C 115.402344 47.589844 115.417969 47.601562 115.417969 47.628906 L 115.417969 51.214844 C 115.417969 51.238281 115.40625 51.25 115.382812 51.25 L 114.765625 51.25 C 114.742188 51.25 114.730469 51.238281 114.730469 51.214844 L 114.730469 48.21875 C 114.730469 48.195312 114.71875 48.183594 114.699219 48.183594 C 113.941406 48.109375 113.066406 47.640625 112.949219 46.824219 C 112.945312 46.8125 112.941406 46.804688 112.933594 46.800781 C 112.921875 46.792969 112.914062 46.792969 112.902344 46.796875 C 112.441406 46.976562 112.148438 47.390625 112.171875 47.890625 C 112.175781 47.980469 112.175781 48.066406 112.167969 48.148438 C 112.144531 48.519531 112.320312 48.8125 112.722656 48.8125 C 113 48.8125 113.167969 48.667969 113.226562 48.371094 C 113.230469 48.34375 113.246094 48.332031 113.273438 48.332031 L 113.882812 48.332031 C 113.914062 48.332031 113.929688 48.347656 113.929688 48.378906 C 113.929688 48.707031 113.925781 49.035156 113.925781 49.363281 C 113.921875 50.441406 113.097656 51.289062 112.011719 51.25 C 111.773438 51.242188 111.523438 51.273438 111.296875 51.214844 C 110.375 50.980469 109.84375 50.246094 109.847656 49.296875 C 109.847656 48.691406 109.847656 48.148438 109.847656 47.664062 C 109.84375 47.640625 109.859375 47.628906 109.882812 47.628906 L 110.511719 47.628906 C 110.535156 47.628906 110.546875 47.640625 110.550781 47.664062 C 110.554688 48.140625 110.550781 48.648438 110.542969 49.1875 C 110.539062 49.726562 110.65625 50.132812 111.089844 50.441406 C 111.398438 50.664062 111.773438 50.664062 112.144531 50.636719 C 112.792969 50.589844 113.1875 50.027344 113.226562 49.394531 C 113.230469 49.363281 113.214844 49.351562 113.1875 49.363281 C 113.023438 49.410156 112.839844 49.433594 112.644531 49.433594 C 111.949219 49.429688 111.460938 48.886719 111.464844 48.207031 C 111.464844 48.0625 111.46875 47.917969 111.476562 47.773438 C 111.496094 47.402344 111.625 47.070312 111.871094 46.777344 C 111.890625 46.75 111.886719 46.738281 111.851562 46.738281 L 108.976562 46.738281 C 108.957031 46.738281 108.945312 46.75 108.945312 46.773438 L 108.945312 51.214844 C 108.945312 51.234375 108.929688 51.25 108.910156 51.25 L 108.273438 51.25 C 108.253906 51.25 108.242188 51.238281 108.242188 51.214844 L 108.242188 46.773438 C 108.242188 46.75 108.230469 46.738281 108.207031 46.738281 L 105.585938 46.738281 C 105.558594 46.738281 105.542969 46.753906 105.542969 46.78125 C 105.554688 47.109375 105.554688 47.464844 105.542969 47.847656 C 105.53125 48.261719 105.613281 48.601562 106.097656 48.59375 C 106.332031 48.589844 106.488281 48.484375 106.570312 48.285156 C 106.617188 48.160156 106.601562 48.027344 106.601562 47.898438 C 106.601562 47.875 106.613281 47.863281 106.636719 47.863281 L 107.269531 47.863281 C 107.292969 47.863281 107.304688 47.875 107.304688 47.898438 C 107.304688 48.394531 107.304688 48.898438 107.304688 49.417969 C 107.296875 50.464844 106.4375 51.292969 105.394531 51.25 C 105.136719 51.242188 104.875 51.273438 104.617188 51.21875 C 103.972656 51.085938 103.421875 50.582031 103.226562 49.941406 C 103.171875 49.765625 103.148438 49.535156 103.152344 49.242188 C 103.160156 48.726562 103.160156 48.203125 103.15625 47.664062 C 103.152344 47.640625 103.167969 47.628906 103.191406 47.628906 L 103.808594 47.628906 C 103.828125 47.628906 103.839844 47.640625 103.839844 47.664062 C 103.84375 48.09375 103.84375 48.53125 103.839844 48.976562 C 103.835938 49.371094 103.859375 49.644531 103.910156 49.792969 C 104.003906 50.078125 104.179688 50.308594 104.4375 50.472656 C 104.761719 50.679688 105.140625 50.65625 105.515625 50.636719 C 106.019531 50.613281 106.433594 50.214844 106.5625 49.746094 C 106.605469 49.597656 106.617188 49.402344 106.601562 49.15625 C 106.597656 49.136719 106.585938 49.128906 106.566406 49.132812 C 105.898438 49.328125 105.230469 49.164062 104.933594 48.480469 C 104.863281 48.316406 104.835938 48.074219 104.84375 47.742188 C 104.851562 47.402344 104.851562 47.078125 104.84375 46.769531 C 104.84375 46.75 104.832031 46.738281 104.8125 46.738281 L 102.269531 46.738281 C 102.25 46.738281 102.238281 46.75 102.238281 46.773438 L 102.238281 51.214844 C 102.238281 51.234375 102.222656 51.25 102.203125 51.25 L 101.585938 51.25 C 101.5625 51.25 101.550781 51.238281 101.550781 51.214844 L 101.550781 46.773438 C 101.550781 46.75 101.539062 46.738281 101.519531 46.738281 L 100.949219 46.738281 C 100.941406 46.738281 100.933594 46.730469 100.933594 46.722656 L 100.933594 46.136719 C 100.933594 46.125 100.9375 46.117188 100.949219 46.117188 L 101.503906 46.117188 C 101.53125 46.117188 101.546875 46.105469 101.546875 46.074219 C 101.503906 45.128906 101.917969 44.480469 102.789062 44.132812 C 102.933594 44.074219 103.148438 44.050781 103.433594 44.058594 C 103.609375 44.066406 103.78125 44.078125 103.953125 44.101562 C 104.714844 44.199219 105.460938 44.296875 106.191406 44.394531 C 106.207031 44.398438 106.214844 44.40625 106.210938 44.417969 L 106.136719 44.992188 C 106.132812 45.003906 106.128906 45.007812 106.117188 45.007812 C 105.113281 44.875 104.246094 44.765625 103.515625 44.679688 C 103.398438 44.667969 103.285156 44.671875 103.171875 44.699219 C 102.675781 44.816406 102.375 45.097656 102.269531 45.550781 C 102.238281 45.6875 102.226562 45.863281 102.234375 46.070312 C 102.234375 46.101562 102.253906 46.117188 102.285156 46.117188 L 108.203125 46.117188 C 108.230469 46.117188 108.242188 46.105469 108.242188 46.078125 C 108.203125 45.191406 108.570312 44.5625 109.339844 44.191406 C 109.492188 44.117188 109.671875 44.074219 109.871094 44.0625 C 110.089844 44.050781 110.3125 44.058594 110.535156 44.085938 C 111.332031 44.1875 112.121094 44.292969 112.902344 44.398438 C 112.910156 44.398438 112.914062 44.402344 112.910156 44.410156 L 112.835938 44.980469 C 112.835938 44.992188 112.828125 45 112.8125 45 C 112.789062 45 112.765625 44.996094 112.738281 44.992188 C 111.941406 44.890625 111.132812 44.792969 110.316406 44.691406 C 109.988281 44.648438 109.707031 44.703125 109.480469 44.847656 C 108.992188 45.160156 108.917969 45.546875 108.945312 46.074219 C 108.945312 46.097656 108.964844 46.117188 108.988281 46.117188 L 119.125 46.117188 C 119.148438 46.117188 119.160156 46.109375 119.160156 46.085938 C 119.210938 45.640625 118.960938 45.371094 118.53125 45.375 C 118.1875 45.378906 117.832031 45.382812 117.46875 45.382812 C 116.914062 45.382812 116.523438 44.972656 116.464844 44.429688 C 116.460938 44.382812 116.484375 44.355469 116.53125 44.355469 L 117.140625 44.355469 C 117.148438 44.355469 117.15625 44.359375 117.164062 44.367188 C 117.171875 44.375 117.175781 44.382812 117.175781 44.394531 C 117.167969 44.589844 117.277344 44.765625 117.484375 44.761719 C 117.925781 44.753906 118.332031 44.757812 118.695312 44.769531 C 119.390625 44.792969 119.894531 45.390625 119.867188 46.082031 C 119.863281 46.105469 119.875 46.117188 119.902344 46.117188 L 127.824219 46.117188 C 127.835938 46.117188 127.84375 46.125 127.84375 46.136719 L 127.84375 46.722656 C 127.84375 46.734375 127.835938 46.738281 127.824219 46.738281 L 127.257812 46.738281 C 127.234375 46.738281 127.222656 46.75 127.222656 46.773438 L 127.222656 51.199219 C 127.222656 51.234375 127.207031 51.25 127.171875 51.25 L 126.558594 51.25 C 126.535156 51.25 126.523438 51.238281 126.523438 51.210938 C 126.519531 50.480469 126.523438 49.644531 126.523438 48.703125 C 126.523438 47.882812 125.199219 47.847656 125.246094 48.765625 C 125.253906 48.925781 125.253906 49.078125 125.25 49.222656 C 125.25 49.242188 125.238281 49.253906 125.214844 49.253906 L 124.582031 49.253906 C 124.5625 49.253906 124.550781 49.242188 124.546875 49.21875 C 124.542969 49.0625 124.546875 48.910156 124.550781 48.757812 C 124.566406 48.441406 124.394531 48.152344 124.082031 48.101562 C 123.664062 48.03125 123.363281 48.175781 123.1875 48.539062 C 123.121094 48.675781 123.09375 48.882812 123.105469 49.164062 C 123.128906 49.5625 123.304688 49.824219 123.644531 49.949219 C 123.820312 50.015625 124.035156 49.996094 124.226562 49.988281 C 124.273438 49.984375 124.296875 50.007812 124.296875 50.054688 L 124.296875 50.550781 C 124.296875 50.597656 124.273438 50.617188 124.226562 50.613281 C 124.152344 50.609375 124.078125 50.609375 124.003906 50.613281 C 123.125 50.660156 122.402344 50.042969 122.417969 49.148438 C 122.421875 48.996094 122.425781 48.839844 122.429688 48.683594 C 122.4375 48.460938 122.53125 48.238281 122.710938 48.011719 C 122.976562 47.679688 123.351562 47.5 123.832031 47.46875 C 124.25 47.441406 124.589844 47.554688 124.851562 47.8125 C 124.867188 47.828125 124.886719 47.832031 124.910156 47.8125 C 125.382812 47.433594 125.90625 47.359375 126.480469 47.589844 C 126.507812 47.601562 126.523438 47.589844 126.523438 47.5625 Z M 126.523438 47.5625 "/>
<path style=" stroke:none;fill-rule:nonzero;fill:rgb(13.72549%,12.156863%,12.54902%);fill-opacity:1;" d="M 64.328125 49.132812 C 64.09375 49.207031 63.859375 49.226562 63.617188 49.195312 C 63.1875 49.132812 62.882812 48.894531 62.703125 48.476562 C 62.632812 48.316406 62.601562 48.039062 62.613281 47.652344 C 62.621094 47.359375 62.621094 47.066406 62.613281 46.769531 C 62.613281 46.75 62.601562 46.738281 62.582031 46.738281 L 60.433594 46.738281 C 60.417969 46.738281 60.410156 46.730469 60.410156 46.714844 L 60.410156 46.136719 C 60.410156 46.125 60.414062 46.117188 60.425781 46.117188 L 73.605469 46.117188 C 73.617188 46.117188 73.621094 46.125 73.621094 46.136719 L 73.621094 46.722656 C 73.621094 46.730469 73.613281 46.738281 73.605469 46.738281 L 71.214844 46.738281 C 71.203125 46.738281 71.195312 46.746094 71.195312 46.753906 L 71.195312 47.121094 C 71.195312 47.136719 71.203125 47.140625 71.214844 47.140625 C 71.378906 47.136719 71.523438 47.136719 71.660156 47.140625 C 72.398438 47.160156 73.136719 47.640625 73.210938 48.425781 C 73.277344 49.121094 73.007812 49.59375 72.402344 49.847656 C 72.253906 49.910156 72.097656 49.941406 71.929688 49.941406 C 71.898438 49.941406 71.882812 49.925781 71.882812 49.898438 L 71.882812 49.371094 C 71.882812 49.34375 71.894531 49.328125 71.921875 49.324219 C 72.402344 49.25 72.582031 48.878906 72.507812 48.429688 C 72.441406 48.050781 72.066406 47.792969 71.714844 47.761719 C 71.636719 47.757812 71.472656 47.757812 71.226562 47.765625 C 71.207031 47.765625 71.195312 47.777344 71.195312 47.796875 L 71.195312 51.214844 C 71.195312 51.242188 71.183594 51.253906 71.15625 51.253906 C 70.984375 51.246094 70.808594 51.246094 70.640625 51.253906 C 70.546875 51.257812 70.460938 51.242188 70.378906 51.203125 C 69.507812 50.789062 68.597656 50.359375 67.65625 49.914062 C 67.632812 49.90625 67.621094 49.886719 67.621094 49.863281 C 67.59375 49.136719 67.5625 48.441406 68.175781 47.949219 C 68.339844 47.816406 68.597656 47.699219 68.953125 47.597656 C 69.488281 47.445312 69.992188 47.292969 70.46875 47.140625 C 70.484375 47.136719 70.496094 47.121094 70.492188 47.109375 L 70.492188 46.773438 C 70.492188 46.75 70.484375 46.738281 70.460938 46.738281 L 66.730469 46.738281 C 66.722656 46.738281 66.714844 46.746094 66.714844 46.753906 L 66.714844 51.214844 C 66.714844 51.234375 66.699219 51.25 66.679688 51.25 L 66.046875 51.25 C 66.023438 51.25 66.011719 51.238281 66.011719 51.214844 L 66.011719 46.773438 C 66.011719 46.75 66 46.738281 65.976562 46.738281 L 63.355469 46.738281 C 63.332031 46.738281 63.316406 46.75 63.316406 46.777344 C 63.320312 47.167969 63.320312 47.597656 63.316406 48.058594 C 63.3125 48.308594 63.449219 48.535156 63.707031 48.578125 C 64.070312 48.640625 64.292969 48.503906 64.367188 48.175781 C 64.386719 48.089844 64.367188 47.988281 64.371094 47.902344 C 64.371094 47.875 64.382812 47.863281 64.410156 47.863281 L 65.039062 47.863281 C 65.058594 47.863281 65.074219 47.878906 65.074219 47.898438 C 65.074219 48.40625 65.074219 48.894531 65.074219 49.363281 C 65.078125 49.914062 64.886719 50.371094 64.503906 50.738281 C 64.121094 51.109375 63.6875 51.257812 63.167969 51.253906 C 62.953125 51.253906 62.757812 51.25 62.578125 51.242188 C 62.1875 51.21875 61.824219 51.050781 61.492188 50.738281 C 61.078125 50.355469 60.914062 49.875 60.921875 49.292969 C 60.929688 48.738281 60.933594 48.199219 60.925781 47.667969 C 60.925781 47.640625 60.9375 47.628906 60.964844 47.628906 L 61.578125 47.628906 C 61.597656 47.628906 61.609375 47.636719 61.609375 47.660156 C 61.617188 48.132812 61.617188 48.628906 61.609375 49.152344 C 61.601562 49.476562 61.636719 49.722656 61.710938 49.890625 C 61.894531 50.304688 62.269531 50.617188 62.738281 50.640625 C 63.027344 50.652344 63.371094 50.671875 63.640625 50.550781 C 64.207031 50.300781 64.421875 49.769531 64.367188 49.15625 C 64.367188 49.132812 64.351562 49.125 64.328125 49.132812 Z M 68.355469 49.546875 L 70.457031 50.539062 C 70.480469 50.550781 70.492188 50.542969 70.492188 50.511719 L 70.492188 47.8125 C 70.496094 47.808594 70.492188 47.804688 70.488281 47.800781 C 70.484375 47.796875 70.476562 47.796875 70.472656 47.800781 C 69.945312 47.960938 69.445312 48.113281 68.976562 48.25 C 68.652344 48.351562 68.367188 48.570312 68.332031 48.921875 C 68.316406 49.089844 68.3125 49.28125 68.324219 49.496094 C 68.324219 49.519531 68.335938 49.539062 68.355469 49.546875 Z M 68.355469 49.546875 "/>
<path style=" stroke:none;fill-rule:nonzero;fill:rgb(13.72549%,12.156863%,12.54902%);fill-opacity:1;" d="M 93.808594 46.539062 L 93.808594 46.152344 C 93.808594 46.128906 93.820312 46.117188 93.839844 46.117188 L 99.613281 46.117188 C 99.621094 46.117188 99.628906 46.125 99.628906 46.136719 L 99.628906 46.722656 C 99.628906 46.734375 99.621094 46.738281 99.613281 46.738281 L 99.058594 46.738281 C 99.039062 46.738281 99.027344 46.75 99.027344 46.773438 L 99.027344 51.214844 C 99.027344 51.238281 99.011719 51.253906 98.988281 51.25 C 98.8125 51.246094 98.636719 51.246094 98.453125 51.253906 C 98.363281 51.257812 98.277344 51.238281 98.191406 51.199219 C 97.289062 50.765625 96.386719 50.339844 95.484375 49.917969 C 95.460938 49.90625 95.441406 49.882812 95.445312 49.851562 C 95.449219 49.675781 95.449219 49.492188 95.441406 49.304688 C 95.421875 48.746094 95.59375 48.238281 96.058594 47.90625 C 96.222656 47.789062 96.496094 47.675781 96.882812 47.566406 C 97.351562 47.433594 97.820312 47.292969 98.296875 47.140625 C 98.3125 47.136719 98.324219 47.121094 98.324219 47.105469 L 98.324219 46.773438 C 98.324219 46.75 98.3125 46.738281 98.289062 46.738281 L 94.527344 46.738281 C 94.515625 46.738281 94.511719 46.742188 94.511719 46.753906 L 94.511719 51.199219 C 94.511719 51.234375 94.492188 51.25 94.460938 51.25 L 93.84375 51.25 C 93.820312 51.25 93.808594 51.238281 93.808594 51.214844 C 93.804688 50.269531 93.804688 49.257812 93.8125 48.183594 C 93.8125 47.933594 93.785156 47.734375 93.730469 47.589844 C 93.554688 47.140625 93.234375 46.867188 92.765625 46.765625 C 92.582031 46.726562 92.390625 46.738281 92.203125 46.742188 C 91.683594 46.753906 91.324219 47.199219 91.351562 47.707031 C 91.351562 47.734375 91.363281 47.746094 91.390625 47.746094 C 91.53125 47.742188 91.675781 47.746094 91.828125 47.757812 C 92.457031 47.808594 92.960938 48.3125 92.917969 48.96875 C 92.878906 49.582031 92.339844 50.078125 91.746094 50.160156 C 91.589844 50.183594 91.3125 50.1875 90.914062 50.171875 C 90.90625 50.171875 90.898438 50.164062 90.898438 50.15625 L 90.898438 49.574219 C 90.898438 49.558594 90.90625 49.554688 90.917969 49.554688 C 91.144531 49.558594 91.355469 49.558594 91.550781 49.550781 C 91.964844 49.535156 92.390625 49.078125 92.160156 48.644531 C 92.046875 48.4375 91.851562 48.359375 91.621094 48.363281 C 91.285156 48.367188 90.976562 48.367188 90.683594 48.363281 C 90.671875 48.363281 90.660156 48.355469 90.660156 48.34375 C 90.671875 48 90.621094 47.570312 90.71875 47.257812 C 90.914062 46.621094 91.425781 46.183594 92.089844 46.128906 C 92.699219 46.078125 93.289062 46.15625 93.769531 46.558594 C 93.796875 46.578125 93.808594 46.574219 93.808594 46.539062 Z M 98.289062 47.800781 C 97.730469 47.96875 97.203125 48.128906 96.707031 48.285156 C 96.339844 48.402344 96.132812 48.710938 96.148438 49.101562 C 96.152344 49.238281 96.152344 49.367188 96.148438 49.488281 C 96.144531 49.515625 96.15625 49.539062 96.183594 49.550781 L 98.292969 50.542969 C 98.300781 50.546875 98.308594 50.546875 98.3125 50.542969 C 98.320312 50.539062 98.324219 50.53125 98.324219 50.523438 L 98.324219 47.828125 C 98.324219 47.820312 98.320312 47.8125 98.3125 47.804688 C 98.304688 47.800781 98.296875 47.800781 98.289062 47.800781 Z M 98.289062 47.800781 "/>
<path style=" stroke:none;fill-rule:nonzero;fill:rgb(13.72549%,12.156863%,12.54902%);fill-opacity:1;" d="M 142.699219 46.738281 L 141.304688 46.738281 C 141.285156 46.738281 141.273438 46.75 141.273438 46.773438 L 141.273438 51.207031 C 141.273438 51.234375 141.257812 51.25 141.230469 51.25 L 140.625 51.25 C 140.597656 51.25 140.585938 51.238281 140.585938 51.210938 C 140.589844 50.585938 140.589844 49.972656 140.582031 49.367188 C 140.574219 48.632812 139.980469 48.066406 139.238281 48.078125 C 138.601562 48.085938 138.207031 48.539062 138.226562 49.160156 C 138.234375 49.359375 138.285156 49.523438 138.378906 49.652344 C 138.605469 49.964844 138.910156 50.027344 139.269531 49.984375 C 139.332031 49.976562 139.367188 50.003906 139.367188 50.070312 L 139.367188 50.550781 C 139.367188 50.597656 139.339844 50.621094 139.292969 50.617188 C 139.199219 50.609375 139.101562 50.609375 139.007812 50.613281 C 138.558594 50.628906 138.121094 50.398438 137.84375 50.0625 C 137.546875 49.703125 137.523438 49.351562 137.542969 48.910156 C 137.574219 48.246094 138.105469 47.664062 138.738281 47.519531 C 139.417969 47.367188 140.015625 47.492188 140.542969 47.898438 C 140.570312 47.921875 140.585938 47.914062 140.585938 47.878906 L 140.585938 46.773438 C 140.585938 46.75 140.574219 46.738281 140.554688 46.738281 L 136.605469 46.738281 C 136.59375 46.738281 136.589844 46.742188 136.589844 46.753906 L 136.589844 51.199219 C 136.589844 51.234375 136.574219 51.25 136.539062 51.25 L 135.941406 51.25 C 135.921875 51.25 135.902344 51.234375 135.902344 51.210938 C 135.90625 50.371094 135.90625 49.542969 135.902344 48.722656 C 135.898438 48.054688 134.964844 47.824219 134.679688 48.421875 C 134.570312 48.652344 134.625 48.964844 134.617188 49.222656 C 134.613281 49.242188 134.601562 49.253906 134.582031 49.253906 L 133.949219 49.253906 C 133.925781 49.253906 133.914062 49.242188 133.914062 49.21875 C 133.910156 49.042969 133.914062 48.863281 133.917969 48.671875 C 133.921875 48.476562 133.820312 48.273438 133.65625 48.179688 C 133.097656 47.867188 132.453125 48.292969 132.488281 48.941406 C 132.5 49.117188 132.464844 49.3125 132.535156 49.476562 C 132.730469 49.9375 133.113281 50.042969 133.566406 49.984375 C 133.628906 49.976562 133.664062 50.003906 133.664062 50.070312 L 133.664062 50.546875 C 133.664062 50.597656 133.636719 50.621094 133.585938 50.617188 C 133.402344 50.601562 133.214844 50.628906 133.039062 50.601562 C 132.558594 50.519531 132.199219 50.273438 131.953125 49.859375 C 131.761719 49.539062 131.777344 49.152344 131.789062 48.792969 C 131.816406 48.011719 132.464844 47.511719 133.21875 47.464844 C 133.628906 47.441406 133.96875 47.5625 134.238281 47.828125 C 134.257812 47.84375 134.273438 47.84375 134.289062 47.828125 C 134.707031 47.417969 135.351562 47.367188 135.875 47.597656 C 135.878906 47.601562 135.886719 47.601562 135.894531 47.597656 C 135.898438 47.59375 135.902344 47.585938 135.902344 47.578125 L 135.902344 46.777344 C 135.902344 46.75 135.890625 46.738281 135.867188 46.738281 C 134.398438 46.738281 132.933594 46.738281 131.476562 46.738281 C 130.730469 46.738281 130.359375 47.546875 130.339844 48.210938 C 130.332031 48.636719 130.328125 49.050781 130.335938 49.453125 C 130.347656 50.074219 130.640625 50.472656 131.222656 50.644531 C 131.230469 50.648438 131.238281 50.65625 131.238281 50.664062 C 131.242188 50.851562 131.238281 51.050781 131.234375 51.253906 C 131.230469 51.261719 131.226562 51.265625 131.222656 51.265625 C 130.457031 51.113281 129.960938 50.695312 129.734375 50.007812 C 129.667969 49.808594 129.636719 49.566406 129.640625 49.28125 C 129.648438 48.9375 129.652344 48.578125 129.652344 48.199219 C 129.65625 47.351562 130.125 46.503906 130.941406 46.210938 C 131.121094 46.148438 131.394531 46.113281 131.769531 46.117188 C 138.964844 46.121094 146.121094 46.121094 153.230469 46.117188 C 153.242188 46.117188 153.246094 46.125 153.246094 46.136719 L 153.246094 46.726562 C 153.246094 46.734375 153.242188 46.738281 153.234375 46.738281 L 152.660156 46.738281 C 152.640625 46.738281 152.628906 46.75 152.628906 46.773438 L 152.628906 51.214844 C 152.628906 51.234375 152.613281 51.25 152.59375 51.25 L 151.960938 51.25 C 151.9375 51.25 151.929688 51.238281 151.929688 51.214844 C 151.921875 50.613281 151.921875 50.027344 151.929688 49.453125 C 151.9375 48.957031 151.75 48.570312 151.351562 48.296875 C 150.988281 48.046875 150.375 47.980469 150.007812 48.246094 C 149.679688 48.484375 149.539062 48.816406 149.585938 49.242188 C 149.636719 49.652344 149.851562 49.894531 150.230469 49.976562 C 150.347656 50 150.488281 50.003906 150.65625 49.984375 C 150.699219 49.980469 150.722656 50 150.722656 50.042969 L 150.722656 50.5625 C 150.722656 50.601562 150.699219 50.621094 150.660156 50.617188 C 150.589844 50.609375 150.523438 50.609375 150.464844 50.613281 C 150.089844 50.632812 149.757812 50.535156 149.472656 50.324219 C 148.953125 49.941406 148.816406 49.402344 148.90625 48.789062 C 149.007812 48.085938 149.613281 47.5625 150.289062 47.480469 C 150.914062 47.402344 151.445312 47.542969 151.886719 47.898438 C 151.914062 47.917969 151.925781 47.914062 151.925781 47.878906 L 151.925781 46.773438 C 151.925781 46.75 151.914062 46.738281 151.894531 46.738281 L 145.203125 46.738281 C 145.179688 46.738281 145.167969 46.75 145.167969 46.773438 L 145.167969 49.101562 C 145.167969 49.109375 145.171875 49.113281 145.179688 49.117188 C 145.1875 49.117188 145.191406 49.117188 145.199219 49.113281 L 146.375 48 C 146.394531 47.984375 146.414062 47.972656 146.441406 47.96875 C 146.945312 47.910156 147.351562 48.070312 147.660156 48.445312 C 147.847656 48.679688 147.945312 48.945312 147.945312 49.246094 C 147.945312 49.859375 147.945312 50.515625 147.945312 51.214844 C 147.945312 51.234375 147.929688 51.25 147.910156 51.25 L 147.277344 51.25 C 147.257812 51.25 147.246094 51.238281 147.246094 51.214844 C 147.238281 50.585938 147.242188 49.953125 147.246094 49.324219 C 147.25 48.976562 147.101562 48.679688 146.75 48.589844 C 146.730469 48.585938 146.714844 48.585938 146.699219 48.597656 C 146.660156 48.621094 146.625 48.652344 146.589844 48.683594 C 146.128906 49.121094 145.664062 49.5625 145.195312 50 C 145.179688 50.015625 145.15625 50.027344 145.132812 50.027344 L 144.515625 50.027344 C 144.496094 50.027344 144.484375 50.015625 144.484375 49.992188 L 144.484375 46.773438 C 144.484375 46.75 144.472656 46.738281 144.449219 46.738281 C 144.085938 46.730469 143.742188 46.710938 143.449219 46.96875 C 143.121094 47.257812 142.945312 47.648438 142.925781 48.140625 C 142.902344 48.6875 142.902344 49.15625 142.921875 49.546875 C 142.953125 50.105469 143.246094 50.472656 143.800781 50.648438 C 143.808594 50.648438 143.8125 50.65625 143.8125 50.660156 C 143.820312 50.863281 143.8125 51.0625 143.800781 51.261719 C 143.800781 51.265625 143.796875 51.265625 143.792969 51.265625 C 143.023438 51.101562 142.53125 50.683594 142.3125 50.015625 C 142.246094 49.804688 142.214844 49.550781 142.21875 49.257812 C 142.226562 48.910156 142.230469 48.566406 142.230469 48.230469 C 142.226562 47.714844 142.390625 47.230469 142.71875 46.78125 C 142.738281 46.753906 142.734375 46.738281 142.699219 46.738281 Z M 142.699219 46.738281 "/>
<path style=" stroke:none;fill-rule:nonzero;fill:rgb(13.72549%,12.156863%,12.54902%);fill-opacity:1;" d="M 85.265625 48.933594 C 85.265625 48.859375 85.242188 48.851562 85.195312 48.90625 C 84.65625 49.507812 83.855469 49.492188 83.398438 48.820312 C 83.179688 48.496094 83.160156 48.007812 83.386719 47.683594 C 83.597656 47.382812 83.917969 47.226562 84.34375 47.222656 C 84.375 47.222656 84.390625 47.238281 84.390625 47.269531 L 84.394531 47.78125 C 84.394531 47.808594 84.371094 47.832031 84.34375 47.835938 C 83.515625 47.929688 84.074219 49.171875 84.671875 48.539062 C 84.855469 48.347656 85.046875 48.152344 85.238281 47.957031 C 85.257812 47.9375 85.28125 47.929688 85.308594 47.929688 L 85.925781 47.929688 C 85.953125 47.929688 85.964844 47.941406 85.964844 47.964844 C 85.964844 48.414062 85.964844 48.878906 85.964844 49.359375 C 85.960938 49.984375 85.71875 50.488281 85.242188 50.871094 C 84.875 51.164062 84.457031 51.273438 83.984375 51.253906 C 83.835938 51.246094 83.6875 51.246094 83.542969 51.25 C 82.507812 51.289062 81.65625 50.449219 81.652344 49.417969 C 81.648438 48.785156 81.648438 48.199219 81.648438 47.664062 C 81.648438 47.640625 81.660156 47.628906 81.6875 47.628906 L 82.316406 47.628906 C 82.339844 47.628906 82.347656 47.636719 82.347656 47.660156 C 82.355469 48.199219 82.355469 48.734375 82.347656 49.265625 C 82.34375 49.519531 82.371094 49.71875 82.433594 49.871094 C 82.570312 50.199219 82.796875 50.429688 83.113281 50.5625 C 83.355469 50.664062 83.640625 50.644531 83.90625 50.648438 C 84.042969 50.648438 84.171875 50.640625 84.296875 50.621094 C 84.753906 50.550781 85.105469 50.15625 85.222656 49.726562 C 85.289062 49.472656 85.253906 49.195312 85.265625 48.933594 Z M 85.265625 48.933594 "/>
<path style=" stroke:none;fill-rule:nonzero;fill:rgb(13.72549%,12.156863%,12.54902%);fill-opacity:1;" d="M 96.933594 51.394531 C 96.933594 51.632812 96.738281 51.828125 96.5 51.828125 C 96.261719 51.828125 96.070312 51.632812 96.070312 51.394531 C 96.070312 51.152344 96.261719 50.960938 96.5 50.960938 C 96.738281 50.960938 96.933594 51.152344 96.933594 51.394531 Z M 96.933594 51.394531 "/>
</g>
</svg>
