<?xml version="1.0" encoding="UTF-8"?>
<svg xmlns="http://www.w3.org/2000/svg" xmlns:xlink="http://www.w3.org/1999/xlink" width="200px" height="126px" viewBox="0 0 200 126" version="1.1">
<g id="surface1">
<path style=" stroke:none;fill-rule:evenodd;fill:rgb(54.509807%,20%,57.254905%);fill-opacity:1;" d="M 148.546875 16.363281 L 119.070312 45.933594 L 121.101562 62.507812 L 126.5625 51.128906 L 143.367188 72.621094 L 166.894531 0 L 88.542969 32.660156 L 109.757812 43.824219 Z M 148.546875 16.363281 "/>
<path style=" stroke:none;fill-rule:nonzero;fill:rgb(54.509807%,20%,57.254905%);fill-opacity:1;" d="M 122.921875 68.199219 C 122.921875 68.199219 97.992188 68.199219 91.902344 68.199219 C 68.234375 71.847656 65.785156 106.335938 91.621094 110.96875 L 122.921875 110.96875 L 122.921875 79.855469 C 133.355469 80.207031 135.523438 93.269531 127.820312 98.046875 C 129.363281 99.871094 135.59375 106.617188 135.59375 106.617188 C 151.910156 92.5 142.597656 69.390625 122.921875 68.199219 Z M 111.578125 99.382812 C 111.578125 99.382812 95.542969 99.382812 94.28125 99.382812 C 83.570312 100.011719 80.070312 82.246094 93.234375 79.925781 C 97.082031 79.925781 111.578125 79.925781 111.578125 79.925781 Z M 111.578125 99.382812 "/>
<path style=" stroke:none;fill-rule:evenodd;fill:rgb(54.509807%,20%,57.254905%);fill-opacity:1;" d="M 187.828125 83.789062 C 182.648438 83.789062 176.414062 83.789062 176.414062 83.789062 L 171.515625 95.238281 C 171.515625 95.238281 184.675781 95.238281 186.007812 95.238281 C 188.949219 95.097656 189.019531 99.382812 186.007812 99.664062 C 182.226562 99.664062 160.941406 99.664062 160.941406 99.664062 L 160.941406 79.925781 L 199.453125 79.925781 L 199.453125 68.265625 C 199.453125 68.265625 194.058594 68.265625 193.78125 68.265625 C 192.097656 44.105469 163.320312 43.40625 155.757812 56.609375 C 157.230469 57.871094 164.300781 64.125 164.300781 64.125 C 168.644531 57.3125 180.6875 57.664062 182.4375 68.265625 L 149.597656 68.265625 L 149.597656 111.039062 L 186.566406 111.039062 C 194.96875 110.898438 198.820312 104.71875 199.730469 99.382812 C 200.292969 90.8125 195.109375 85.125 187.828125 83.789062 Z M 187.828125 83.789062 "/>
<path style=" stroke:none;fill-rule:evenodd;fill:rgb(54.509807%,20%,57.254905%);fill-opacity:1;" d="M 77.199219 68.199219 L 62.214844 68.199219 C 57.453125 74.027344 49.121094 97.625 65.574219 115.394531 C 65.574219 115.394531 72.71875 109.285156 74.117188 108.160156 C 69.007812 103.246094 60.605469 83.15625 77.199219 68.199219 Z M 77.199219 68.199219 "/>
<path style=" stroke:none;fill-rule:evenodd;fill:rgb(54.509807%,20%,57.254905%);fill-opacity:1;" d="M 38.96875 115.886719 C 38.96875 121.082031 34.765625 125.296875 29.585938 125.296875 C 24.402344 125.296875 20.203125 121.082031 20.203125 115.886719 C 20.203125 110.6875 24.402344 106.476562 29.585938 106.476562 C 34.765625 106.476562 38.96875 110.617188 38.96875 115.886719 Z M 38.96875 115.886719 "/>
<path style=" stroke:none;fill-rule:evenodd;fill:rgb(54.509807%,20%,57.254905%);fill-opacity:1;" d="M 18.941406 68.199219 C -4.722656 71.847656 -7.175781 106.335938 18.664062 110.96875 L 18.800781 110.96875 C 20.621094 106.894531 24.753906 104.015625 29.515625 104.015625 C 34.277344 104.015625 38.335938 106.894531 40.226562 110.96875 L 49.960938 110.96875 C 49.960938 109.566406 49.960938 68.199219 49.960938 68.199219 C 49.960938 68.199219 25.035156 68.199219 18.941406 68.199219 Z M 38.617188 99.382812 C 38.617188 99.382812 22.582031 99.382812 21.324219 99.382812 C 10.609375 100.011719 7.109375 82.246094 20.273438 79.925781 C 24.125 79.925781 38.617188 79.925781 38.617188 79.925781 Z M 38.617188 99.382812 "/>
<path style=" stroke:none;fill-rule:evenodd;fill:rgb(54.509807%,20%,57.254905%);fill-opacity:1;" d="M 30.074219 58.082031 C 33.855469 57.453125 35.746094 49.585938 29.585938 47.828125 C 28.886719 47.828125 19.503906 47.828125 19.503906 47.828125 L 19.503906 62.71875 L 23.632812 62.71875 L 23.632812 58.082031 L 28.253906 62.71875 L 34.695312 62.71875 Z M 29.585938 52.816406 C 29.585938 53.378906 29.164062 53.800781 28.605469 53.800781 L 23.703125 53.800781 L 23.703125 51.691406 L 28.675781 51.691406 C 29.234375 51.691406 29.65625 52.113281 29.65625 52.675781 L 29.65625 52.816406 Z M 29.585938 52.816406 "/>
<path style=" stroke:none;fill-rule:evenodd;fill:rgb(54.509807%,20%,57.254905%);fill-opacity:1;" d="M 41.980469 47.617188 C 37.847656 47.617188 34.417969 50.988281 34.417969 55.203125 C 34.417969 59.347656 37.777344 62.789062 41.980469 62.789062 C 46.109375 62.789062 49.539062 59.417969 49.539062 55.203125 C 49.472656 50.988281 46.109375 47.617188 41.980469 47.617188 Z M 41.980469 58.503906 C 40.160156 58.503906 38.6875 57.03125 38.6875 55.203125 C 38.6875 53.378906 40.160156 51.902344 41.980469 51.902344 C 43.800781 51.902344 45.269531 53.378906 45.269531 55.203125 C 45.269531 57.03125 43.800781 58.503906 41.980469 58.503906 Z M 41.980469 58.503906 "/>
<path style=" stroke:none;fill-rule:evenodd;fill:rgb(54.509807%,20%,57.254905%);fill-opacity:1;" d="M 84.691406 51.902344 L 91.480469 51.902344 L 91.480469 47.546875 L 85.742188 47.546875 C 81.257812 47.546875 77.546875 50.988281 77.546875 55.132812 C 77.546875 59.277344 81.257812 62.71875 85.742188 62.71875 L 91.480469 62.71875 L 91.480469 58.363281 L 84.691406 58.363281 C 83.710938 58.363281 82.800781 57.871094 82.238281 57.171875 L 91.480469 57.171875 L 91.480469 53.167969 L 82.238281 53.167969 C 82.800781 52.394531 83.710938 51.902344 84.691406 51.902344 Z M 84.691406 51.902344 "/>
<path style=" stroke:none;fill-rule:evenodd;fill:rgb(54.509807%,20%,57.254905%);fill-opacity:1;" d="M 57.804688 58.292969 C 56.121094 58.292969 54.722656 56.890625 54.722656 55.203125 L 54.722656 55.0625 C 54.722656 53.378906 56.121094 51.972656 57.804688 51.972656 L 64.246094 51.972656 L 64.246094 47.617188 L 58.503906 47.617188 C 54.023438 47.617188 50.3125 51.058594 50.3125 55.203125 C 50.3125 59.347656 54.023438 62.789062 58.503906 62.789062 L 64.246094 62.789062 L 64.246094 58.433594 L 57.804688 58.433594 Z M 57.804688 58.292969 "/>
<path style=" stroke:none;fill-rule:evenodd;fill:rgb(54.509807%,20%,57.254905%);fill-opacity:1;" d="M 107.238281 47.828125 L 92.601562 47.828125 L 92.601562 51.761719 L 97.925781 51.761719 L 97.925781 62.507812 L 101.84375 62.507812 L 101.84375 51.761719 L 107.238281 51.761719 Z M 107.238281 47.828125 "/>
<path style=" stroke:none;fill-rule:nonzero;fill:rgb(54.509807%,20%,57.254905%);fill-opacity:1;" d="M 72.4375 55.132812 L 79.648438 47.828125 L 73.835938 47.828125 L 69.777344 51.902344 L 69.777344 47.828125 L 65.855469 47.828125 L 65.855469 62.507812 L 69.777344 62.507812 L 69.777344 58.292969 L 73.976562 62.507812 L 79.789062 62.507812 Z M 72.4375 55.132812 "/>
<path style=" stroke:none;fill-rule:nonzero;fill:rgb(54.509807%,20%,57.254905%);fill-opacity:1;" d="M 131.253906 118.273438 C 130.621094 118.414062 130.0625 118.835938 129.574219 119.46875 C 129.082031 120.101562 128.871094 120.800781 128.871094 121.433594 C 128.871094 121.855469 128.941406 122.207031 129.152344 122.628906 C 129.363281 123.121094 129.640625 123.332031 129.992188 123.332031 C 130.203125 123.332031 130.414062 123.261719 130.691406 123.050781 L 131.113281 124.105469 C 130.761719 124.3125 130.414062 124.453125 130.0625 124.453125 C 129.574219 124.453125 129.152344 124.3125 128.730469 123.964844 C 128.453125 123.753906 128.242188 123.402344 128.03125 122.769531 C 127.890625 122.488281 127.890625 122.066406 127.890625 121.503906 L 127.890625 121.082031 C 127.890625 120.171875 128.382812 119.1875 129.292969 118.0625 C 129.503906 117.851562 129.851562 117.5 130.273438 117.082031 L 131.742188 117.082031 L 131.742188 118.132812 C 131.464844 118.273438 131.394531 118.273438 131.253906 118.273438 Z M 131.253906 118.273438 "/>
<path style=" stroke:none;fill-rule:nonzero;fill:rgb(54.509807%,20%,57.254905%);fill-opacity:1;" d="M 137.765625 118.273438 L 137.765625 124.453125 L 136.503906 124.453125 L 136.503906 123.683594 C 136.503906 123.402344 136.292969 123.050781 135.875 122.628906 C 135.59375 122.277344 135.242188 121.996094 134.894531 121.785156 C 134.542969 121.503906 134.125 121.363281 133.632812 121.363281 C 133.144531 121.363281 132.863281 121.574219 132.652344 121.925781 C 132.652344 121.996094 132.582031 121.996094 132.582031 122.066406 C 132.582031 122.207031 132.652344 122.347656 132.792969 122.488281 C 132.933594 122.628906 133.144531 122.699219 133.285156 122.699219 C 133.421875 122.699219 133.703125 122.628906 134.195312 122.417969 L 134.542969 123.542969 C 133.984375 123.824219 133.5625 123.964844 133.144531 123.964844 C 132.722656 123.964844 132.375 123.824219 132.023438 123.613281 C 131.671875 123.402344 131.464844 123.050781 131.253906 122.699219 C 131.183594 122.558594 131.183594 122.347656 131.183594 122.066406 C 131.183594 121.363281 131.464844 120.800781 132.023438 120.453125 C 132.441406 120.171875 132.863281 120.03125 133.285156 120.03125 C 133.355469 120.03125 133.355469 120.03125 133.421875 120.03125 C 133.421875 119.820312 133.285156 119.539062 133.074219 119.328125 C 132.863281 119.046875 132.652344 118.90625 132.441406 118.90625 L 131.113281 118.90625 L 131.113281 118.132812 L 130.554688 118.132812 L 130.554688 117.082031 L 138.464844 117.082031 L 138.464844 118.132812 L 137.765625 118.132812 Z M 136.574219 118.273438 L 133.632812 118.273438 C 134.472656 118.835938 134.894531 119.46875 134.894531 120.382812 C 135.382812 120.59375 135.945312 121.011719 136.503906 121.574219 L 136.503906 118.273438 Z M 136.574219 118.273438 "/>
<path style=" stroke:none;fill-rule:nonzero;fill:rgb(54.509807%,20%,57.254905%);fill-opacity:1;" d="M 140.144531 118.273438 L 140.144531 124.453125 L 138.886719 124.453125 L 138.886719 118.273438 L 137.976562 118.273438 L 137.976562 117.222656 L 140.914062 117.222656 L 140.914062 118.273438 Z M 140.144531 118.273438 "/>
<path style=" stroke:none;fill-rule:nonzero;fill:rgb(54.509807%,20%,57.254905%);fill-opacity:1;" d="M 146.097656 118.273438 L 140.566406 118.273438 L 140.566406 117.222656 L 148.199219 117.222656 L 148.199219 118.273438 L 147.355469 118.273438 L 147.355469 124.453125 L 146.308594 124.453125 C 146.238281 124.175781 145.675781 123.683594 144.695312 122.980469 C 144.277344 122.699219 143.785156 122.417969 143.085938 122.207031 C 142.386719 121.925781 141.753906 121.785156 141.335938 121.785156 L 140.984375 120.59375 C 141.265625 120.382812 142.035156 119.960938 143.367188 119.398438 C 143.925781 119.117188 144.835938 118.765625 146.097656 118.273438 Z M 146.167969 119.609375 C 145.957031 119.679688 145.675781 119.75 145.46875 119.890625 C 145.117188 120.03125 144.417969 120.382812 143.367188 120.800781 L 143.15625 120.871094 C 144.136719 121.222656 145.046875 121.714844 145.957031 122.417969 C 146.097656 122.488281 146.167969 122.558594 146.238281 122.628906 L 146.238281 119.609375 Z M 146.167969 119.609375 "/>
<path style=" stroke:none;fill-rule:nonzero;fill:rgb(54.509807%,20%,57.254905%);fill-opacity:1;" d="M 149.738281 118.273438 L 149.738281 124.453125 L 148.476562 124.453125 L 148.476562 118.273438 L 147.636719 118.273438 L 147.636719 117.222656 L 150.578125 117.222656 L 150.578125 118.273438 Z M 149.738281 118.273438 "/>
<path style=" stroke:none;fill-rule:nonzero;fill:rgb(54.509807%,20%,57.254905%);fill-opacity:1;" d="M 150.15625 118.273438 L 150.15625 117.222656 L 153.800781 117.222656 C 153.800781 117.152344 153.800781 117.152344 153.800781 117.152344 C 153.800781 116.589844 153.519531 116.238281 153.027344 116.027344 C 152.957031 116.027344 152.890625 116.027344 152.820312 116.027344 C 152.679688 116.027344 152.539062 116.027344 152.328125 116.097656 C 152.046875 116.167969 151.910156 116.238281 151.839844 116.238281 C 151.628906 116.238281 151.417969 116.308594 151.277344 116.449219 C 151.066406 116.589844 150.859375 116.730469 150.578125 116.800781 L 150.15625 115.886719 C 150.648438 115.535156 151.277344 115.253906 151.980469 115.042969 C 152.328125 114.972656 152.609375 114.902344 152.890625 114.902344 C 153.167969 114.902344 153.519531 115.042969 153.9375 115.253906 C 154.570312 115.675781 154.917969 116.308594 154.988281 117.289062 L 155.691406 117.289062 L 155.691406 118.34375 L 150.15625 118.34375 Z M 154.429688 125.4375 C 153.9375 125.015625 153.378906 124.59375 152.820312 124.175781 C 152.539062 123.964844 152.117188 123.753906 151.488281 123.542969 C 151 123.332031 150.71875 123.261719 150.648438 123.261719 L 150.648438 121.785156 C 150.71875 121.785156 150.929688 121.785156 151.136719 121.785156 C 151.347656 121.785156 151.488281 121.785156 151.628906 121.785156 C 152.1875 121.785156 152.609375 121.714844 152.957031 121.574219 C 153.589844 121.292969 153.9375 120.941406 153.9375 120.59375 C 153.9375 120.3125 153.800781 120.101562 153.589844 119.890625 C 153.378906 119.75 153.097656 119.609375 152.820312 119.46875 C 152.75 119.46875 152.679688 119.398438 152.609375 119.398438 C 152.46875 119.398438 152.328125 119.46875 152.117188 119.539062 C 151.910156 119.609375 151.769531 119.75 151.839844 119.890625 C 151.910156 120.242188 152.1875 120.3125 152.820312 120.3125 L 152.117188 121.363281 C 151.839844 121.363281 151.558594 121.292969 151.277344 121.082031 C 150.789062 120.734375 150.507812 120.3125 150.507812 119.820312 C 150.507812 119.328125 150.789062 118.90625 151.277344 118.695312 C 151.699219 118.484375 152.1875 118.34375 152.75 118.34375 C 152.957031 118.34375 153.167969 118.414062 153.378906 118.484375 C 153.519531 118.554688 153.730469 118.625 153.867188 118.765625 C 154.710938 119.1875 155.128906 119.820312 155.128906 120.734375 C 155.128906 121.363281 154.847656 121.855469 154.359375 122.207031 C 153.9375 122.488281 153.378906 122.699219 152.679688 122.839844 C 152.890625 122.910156 153.238281 123.121094 153.589844 123.332031 C 154.289062 123.894531 154.847656 124.3125 155.269531 124.734375 Z M 154.429688 125.4375 "/>
<path style=" stroke:none;fill-rule:nonzero;fill:rgb(54.509807%,20%,57.254905%);fill-opacity:1;" d="M 163.042969 118.273438 L 163.042969 124.453125 L 161.78125 124.453125 L 161.78125 121.996094 C 161.78125 121.785156 161.710938 121.574219 161.5 121.363281 C 161.292969 121.152344 161.152344 121.011719 160.941406 121.011719 C 160.730469 121.011719 160.589844 121.152344 160.382812 121.363281 C 160.242188 121.574219 160.101562 121.855469 160.101562 122.207031 L 158.839844 122.207031 C 158.839844 121.855469 158.769531 121.574219 158.558594 121.292969 C 158.351562 121.011719 158.210938 120.941406 157.929688 120.941406 C 157.71875 120.941406 157.582031 121.011719 157.371094 121.152344 C 157.160156 121.292969 157.089844 121.433594 157.089844 121.644531 L 157.019531 121.996094 L 157.019531 122.136719 C 157.019531 122.769531 157.441406 123.121094 158.210938 123.121094 C 158.351562 123.121094 158.558594 123.121094 158.839844 123.050781 L 158.421875 124.3125 C 158.140625 124.3125 158 124.382812 157.929688 124.382812 C 157.371094 124.382812 156.808594 124.175781 156.320312 123.753906 C 156.109375 123.613281 155.96875 123.332031 155.828125 122.980469 C 155.691406 122.699219 155.691406 122.417969 155.691406 122.136719 C 155.691406 121.503906 155.898438 120.941406 156.320312 120.523438 C 156.738281 120.101562 157.300781 119.890625 157.929688 119.890625 C 158.558594 119.890625 159.050781 120.171875 159.46875 120.800781 C 159.890625 120.242188 160.382812 119.890625 160.941406 119.890625 C 161.222656 119.890625 161.5 120.03125 161.78125 120.3125 L 161.78125 118.484375 L 155.128906 118.484375 L 155.128906 117.429688 L 163.742188 117.429688 L 163.742188 118.484375 L 163.042969 118.484375 Z M 163.042969 118.273438 "/>
<path style=" stroke:none;fill-rule:nonzero;fill:rgb(54.509807%,20%,57.254905%);fill-opacity:1;" d="M 172.285156 118.273438 L 166.753906 118.273438 L 166.753906 117.222656 L 174.382812 117.222656 L 174.382812 118.273438 L 173.542969 118.273438 L 173.542969 124.453125 L 172.496094 124.453125 C 172.425781 124.175781 171.863281 123.683594 170.882812 122.980469 C 170.464844 122.699219 169.972656 122.417969 169.273438 122.207031 C 168.574219 121.925781 167.941406 121.785156 167.523438 121.785156 L 167.171875 120.59375 C 167.453125 120.382812 168.222656 119.960938 169.554688 119.398438 C 170.113281 119.117188 171.023438 118.765625 172.285156 118.273438 Z M 172.355469 119.609375 C 172.144531 119.679688 171.863281 119.75 171.652344 119.890625 C 171.304688 120.03125 170.605469 120.382812 169.554688 120.800781 L 169.34375 120.871094 C 170.324219 121.222656 171.234375 121.714844 172.144531 122.417969 C 172.285156 122.488281 172.355469 122.558594 172.425781 122.628906 L 172.425781 119.609375 Z M 172.355469 119.609375 "/>
<path style=" stroke:none;fill-rule:nonzero;fill:rgb(54.509807%,20%,57.254905%);fill-opacity:1;" d="M 176.414062 118.273438 C 175.996094 118.835938 175.855469 119.257812 175.855469 119.609375 C 175.855469 119.75 176.066406 120.453125 176.414062 121.574219 C 176.625 122.136719 176.695312 122.628906 176.695312 122.980469 C 176.695312 123.683594 176.273438 124.175781 175.503906 124.453125 C 175.292969 124.523438 174.804688 124.59375 174.175781 124.664062 L 174.316406 123.613281 C 175.015625 123.472656 175.433594 123.191406 175.433594 122.839844 C 175.433594 122.488281 175.292969 121.996094 175.015625 121.292969 C 174.734375 120.59375 174.59375 120.101562 174.59375 119.75 C 174.59375 119.328125 174.734375 118.835938 175.085938 118.203125 L 173.824219 118.203125 L 173.824219 117.152344 L 177.253906 117.152344 L 177.253906 118.203125 L 176.414062 118.203125 Z M 176.414062 118.273438 "/>
<path style=" stroke:none;fill-rule:nonzero;fill:rgb(54.509807%,20%,57.254905%);fill-opacity:1;" d="M 179.074219 118.273438 L 179.074219 124.453125 L 177.816406 124.453125 L 177.816406 118.273438 L 176.90625 118.273438 L 176.90625 117.222656 L 179.847656 117.222656 L 179.847656 118.273438 Z M 179.074219 118.273438 "/>
<path style=" stroke:none;fill-rule:nonzero;fill:rgb(54.509807%,20%,57.254905%);fill-opacity:1;" d="M 181.875 121.152344 C 181.316406 121.152344 180.828125 120.941406 180.476562 120.59375 C 180.125 120.242188 179.984375 119.75 179.984375 119.1875 C 179.984375 118.625 180.195312 118.203125 180.546875 117.851562 C 180.894531 117.5 181.316406 117.289062 181.875 117.289062 C 182.578125 117.289062 183.136719 117.640625 183.417969 118.414062 C 183.558594 118.695312 183.628906 119.046875 183.628906 119.328125 C 183.628906 119.890625 183.488281 120.3125 183.207031 120.664062 C 182.925781 121.011719 182.4375 121.152344 181.875 121.152344 Z M 183.277344 125.15625 C 181.738281 123.824219 180.6875 123.050781 180.125 122.769531 L 180.125 121.082031 C 182.296875 122.628906 183.695312 123.824219 184.328125 124.734375 L 184.328125 126 Z M 182.15625 118.695312 C 182.015625 118.625 181.945312 118.554688 181.808594 118.625 C 181.316406 118.695312 181.105469 118.90625 181.105469 119.328125 C 181.105469 119.539062 181.175781 119.679688 181.316406 119.890625 C 181.457031 120.03125 181.667969 120.171875 181.808594 120.171875 L 181.945312 120.171875 C 182.296875 120.03125 182.4375 119.820312 182.4375 119.539062 C 182.578125 119.117188 182.4375 118.835938 182.15625 118.695312 Z M 182.15625 118.695312 "/>
<path style=" stroke:none;fill-rule:nonzero;fill:rgb(54.509807%,20%,57.254905%);fill-opacity:1;" d="M 192.03125 116.449219 C 190.628906 115.535156 189.4375 115.113281 188.527344 115.113281 C 187.476562 115.113281 186.636719 115.464844 186.148438 116.167969 C 186.007812 116.378906 185.867188 116.730469 185.867188 117.222656 L 186.707031 117.222656 L 186.707031 118.273438 L 185.867188 118.273438 L 185.867188 124.453125 L 184.609375 124.453125 L 184.609375 118.273438 L 183.765625 118.273438 L 183.765625 117.222656 L 184.609375 117.222656 C 184.609375 116.378906 184.886719 115.605469 185.449219 115.113281 C 186.007812 114.550781 186.707031 114.199219 187.6875 114.128906 C 187.757812 114.128906 187.96875 114.128906 188.25 114.058594 L 188.527344 114.058594 C 189.296875 114.058594 190 114.199219 190.769531 114.550781 C 191.1875 114.761719 191.820312 115.113281 192.730469 115.675781 Z M 192.03125 116.449219 "/>
<path style=" stroke:none;fill-rule:nonzero;fill:rgb(54.509807%,20%,57.254905%);fill-opacity:1;" d="M 190.980469 118.273438 C 191.46875 118.34375 192.03125 118.484375 192.589844 118.835938 C 193.359375 119.257812 193.78125 119.820312 193.78125 120.59375 C 193.78125 121.011719 193.640625 121.363281 193.359375 121.714844 C 193.078125 121.996094 192.730469 122.207031 192.308594 122.347656 C 191.890625 122.417969 191.539062 122.488281 191.257812 122.417969 L 191.257812 121.222656 C 191.398438 121.222656 191.539062 121.222656 191.679688 121.222656 C 192.308594 121.222656 192.589844 121.011719 192.589844 120.59375 C 192.589844 120.03125 192.03125 119.75 190.980469 119.609375 L 190.980469 124.523438 L 189.929688 124.523438 C 189.789062 124.175781 189.578125 123.894531 189.4375 123.753906 C 189.367188 123.683594 189.230469 123.472656 188.949219 123.121094 C 188.878906 122.980469 188.738281 122.839844 188.527344 122.699219 C 188.320312 122.558594 188.179688 122.417969 188.109375 122.277344 C 188.039062 122.207031 187.96875 122.136719 187.828125 122.136719 C 187.269531 121.925781 186.847656 121.855469 186.566406 121.855469 L 186.21875 120.664062 C 186.496094 120.453125 187.128906 120.101562 188.039062 119.539062 C 188.109375 119.46875 188.386719 119.328125 188.878906 119.046875 C 189.089844 118.90625 189.367188 118.765625 189.789062 118.484375 L 189.789062 118.414062 L 185.9375 118.414062 L 185.9375 117.359375 L 194.339844 117.359375 L 194.339844 118.414062 L 190.980469 118.414062 Z M 189.789062 119.679688 C 189.578125 119.820312 189.296875 120.03125 188.878906 120.3125 C 188.808594 120.382812 188.667969 120.453125 188.527344 120.59375 C 188.386719 120.734375 188.25 120.871094 188.109375 120.941406 C 188.25 121.082031 188.457031 121.222656 188.738281 121.433594 C 189.019531 121.714844 189.367188 122.136719 189.789062 122.558594 Z M 189.789062 119.679688 "/>
<path style=" stroke:none;fill-rule:nonzero;fill:rgb(54.509807%,20%,57.254905%);fill-opacity:1;" d="M 196.160156 121.152344 C 195.601562 121.152344 195.109375 120.941406 194.761719 120.59375 C 194.410156 120.242188 194.269531 119.75 194.269531 119.1875 C 194.269531 118.625 194.480469 118.203125 194.832031 117.851562 C 195.179688 117.5 195.601562 117.289062 196.160156 117.289062 C 196.859375 117.289062 197.421875 117.640625 197.699219 118.414062 C 197.839844 118.695312 197.910156 119.046875 197.910156 119.328125 C 197.910156 119.890625 197.769531 120.3125 197.492188 120.664062 C 197.140625 121.011719 196.722656 121.152344 196.160156 121.152344 Z M 197.492188 125.15625 C 195.949219 123.824219 194.898438 123.050781 194.339844 122.769531 L 194.339844 121.082031 C 196.511719 122.628906 197.910156 123.824219 198.542969 124.734375 L 198.542969 126 Z M 196.441406 118.695312 C 196.300781 118.625 196.160156 118.554688 196.089844 118.625 C 195.601562 118.695312 195.390625 118.90625 195.390625 119.328125 C 195.390625 119.539062 195.460938 119.679688 195.601562 119.890625 C 195.742188 120.03125 195.949219 120.171875 196.089844 120.171875 L 196.230469 120.171875 C 196.582031 120.03125 196.789062 119.820312 196.789062 119.539062 C 196.789062 119.117188 196.652344 118.835938 196.441406 118.695312 Z M 196.441406 118.695312 "/>
<path style=" stroke:none;fill-rule:nonzero;fill:rgb(54.509807%,20%,57.254905%);fill-opacity:1;" d="M 60.394531 124.945312 L 62.632812 125.71875 L 63.542969 124.945312 L 61.304688 124.175781 Z M 60.394531 124.945312 "/>
<path style=" stroke:none;fill-rule:nonzero;fill:rgb(54.509807%,20%,57.254905%);fill-opacity:1;" d="M 61.09375 118.554688 L 61.09375 117.152344 L 43.097656 117.152344 L 43.097656 118.554688 L 46.109375 118.554688 L 46.109375 121.644531 C 46.109375 121.644531 48.421875 121.644531 48.699219 121.644531 C 48.699219 121.644531 49.472656 121.433594 49.609375 121.011719 C 49.609375 121.433594 49.609375 122.066406 49.609375 122.207031 C 49.609375 122.769531 49.191406 123.261719 48.699219 123.261719 C 48.210938 123.261719 45.128906 123.261719 44.917969 123.261719 C 44.710938 123.261719 44.429688 123.191406 44.429688 122.207031 C 44.429688 121.292969 44.429688 119.328125 44.429688 119.328125 L 43.097656 119.328125 C 43.097656 119.328125 43.097656 122.699219 43.097656 123.050781 C 43.097656 123.332031 43.308594 124.453125 44.289062 124.453125 C 45.269531 124.453125 49.261719 124.453125 49.472656 124.453125 C 50.3125 124.453125 50.871094 123.613281 50.871094 122.910156 C 50.871094 121.433594 50.871094 119.328125 50.871094 119.328125 L 49.679688 119.328125 C 49.539062 119.890625 49.609375 120.242188 49.050781 120.382812 C 48.492188 120.382812 47.511719 120.382812 47.511719 120.382812 L 47.511719 118.484375 L 51.921875 118.484375 L 51.921875 124.382812 L 53.460938 124.382812 L 53.460938 118.484375 L 54.511719 118.484375 L 54.511719 124.382812 C 54.511719 124.382812 59.203125 124.382812 59.554688 124.382812 C 59.902344 124.382812 61.09375 124.105469 61.09375 122.769531 C 61.09375 121.503906 61.09375 119.257812 61.09375 119.257812 L 59.902344 119.257812 C 59.902344 119.609375 59.832031 120.101562 59.273438 120.101562 C 58.714844 120.101562 55.914062 120.101562 55.914062 120.101562 L 55.914062 118.414062 L 61.09375 118.414062 Z M 59.132812 121.503906 C 59.34375 121.574219 59.695312 121.222656 59.902344 120.871094 C 59.902344 121.222656 59.902344 121.785156 59.902344 122.277344 C 59.902344 122.769531 59.484375 123.332031 59.132812 123.332031 C 58.785156 123.332031 55.914062 123.332031 55.914062 123.332031 L 55.914062 121.503906 C 55.914062 121.503906 58.851562 121.503906 59.132812 121.503906 Z M 59.132812 121.503906 "/>
<path style=" stroke:none;fill-rule:nonzero;fill:rgb(54.509807%,20%,57.254905%);fill-opacity:1;" d="M 62.773438 120.242188 L 65.855469 120.242188 L 65.855469 121.855469 L 62.773438 121.855469 Z M 62.773438 120.242188 "/>
<path style=" stroke:none;fill-rule:nonzero;fill:rgb(54.509807%,20%,57.254905%);fill-opacity:1;" d="M 67.535156 117.222656 L 67.535156 118.625 L 72.578125 118.625 L 72.578125 119.46875 L 67.535156 119.46875 C 67.535156 119.46875 67.535156 122.558594 67.535156 122.769531 C 67.675781 123.824219 68.164062 124.59375 69.214844 124.59375 C 70.476562 124.59375 73.765625 124.59375 73.765625 124.59375 L 73.765625 118.695312 L 74.816406 118.695312 L 74.816406 124.59375 L 76.21875 124.59375 L 76.21875 117.289062 L 67.535156 117.289062 Z M 72.578125 123.542969 C 72.578125 123.542969 69.636719 123.542969 69.496094 123.542969 C 69.007812 123.472656 68.726562 122.910156 68.726562 122.347656 C 68.726562 121.714844 68.726562 120.734375 68.726562 120.734375 L 72.507812 120.734375 L 72.507812 123.542969 Z M 72.578125 123.542969 "/>
<path style=" stroke:none;fill-rule:nonzero;fill:rgb(54.509807%,20%,57.254905%);fill-opacity:1;" d="M 82.800781 118.554688 L 89.03125 118.554688 L 89.03125 119.398438 C 88.75 119.398438 87.351562 119.398438 87.210938 119.398438 C 87.140625 119.960938 86.160156 120.3125 86.019531 119.398438 C 84.96875 119.398438 82.871094 119.398438 82.871094 119.398438 C 82.871094 119.398438 82.871094 122.558594 82.871094 122.910156 C 82.871094 123.261719 82.941406 124.382812 83.851562 124.523438 C 84.691406 124.523438 86.371094 124.523438 86.371094 124.523438 L 86.371094 123.332031 C 86.371094 123.332031 84.96875 123.332031 84.691406 123.332031 C 84.339844 123.261719 84.058594 123.050781 84.058594 122.488281 C 84.058594 121.855469 84.058594 120.664062 84.058594 120.664062 L 85.742188 120.664062 L 85.742188 121.714844 L 87.28125 121.714844 L 87.28125 120.871094 C 87.210938 120.523438 88.890625 120.523438 88.960938 120.871094 C 88.960938 121.363281 88.960938 124.523438 88.960938 124.523438 L 90.363281 124.523438 L 90.363281 118.625 L 91.273438 118.625 L 91.273438 124.523438 L 92.671875 124.523438 L 92.671875 117.222656 L 82.941406 117.222656 L 82.941406 118.554688 Z M 82.800781 118.554688 "/>
<path style=" stroke:none;fill-rule:nonzero;fill:rgb(54.509807%,20%,57.254905%);fill-opacity:1;" d="M 80.628906 117.570312 C 80.070312 117.570312 77.410156 117.570312 77.410156 117.570312 C 77.410156 117.570312 77.410156 119.1875 77.410156 119.46875 C 77.546875 120.101562 77.828125 120.800781 78.949219 120.871094 C 80.070312 120.871094 81.539062 120.871094 81.539062 120.871094 L 81.539062 118.484375 C 81.46875 118.203125 81.1875 117.640625 80.628906 117.570312 Z M 79.648438 119.609375 C 79.089844 119.609375 78.597656 119.398438 78.597656 119.117188 C 78.597656 118.835938 79.089844 118.625 79.648438 118.625 C 80.210938 118.625 80.699219 118.835938 80.699219 119.117188 C 80.699219 119.398438 80.277344 119.609375 79.648438 119.609375 Z M 79.648438 119.609375 "/>
<path style=" stroke:none;fill-rule:nonzero;fill:rgb(54.509807%,20%,57.254905%);fill-opacity:1;" d="M 77.617188 121.644531 L 77.617188 122.839844 L 81.539062 124.523438 L 81.539062 123.191406 Z M 77.617188 121.644531 "/>
<path style=" stroke:none;fill-rule:nonzero;fill:rgb(54.509807%,20%,57.254905%);fill-opacity:1;" d="M 113.539062 117.570312 C 112.976562 117.570312 110.316406 117.570312 110.316406 117.570312 C 110.316406 117.570312 110.316406 119.1875 110.316406 119.46875 C 110.457031 120.101562 110.738281 120.800781 111.859375 120.871094 C 112.976562 120.871094 114.449219 120.871094 114.449219 120.871094 L 114.449219 118.484375 C 114.378906 118.203125 114.097656 117.640625 113.539062 117.570312 Z M 112.558594 119.609375 C 111.996094 119.609375 111.507812 119.398438 111.507812 119.117188 C 111.507812 118.835938 111.996094 118.625 112.558594 118.625 C 113.117188 118.625 113.609375 118.835938 113.609375 119.117188 C 113.609375 119.398438 113.117188 119.609375 112.558594 119.609375 Z M 112.558594 119.609375 "/>
<path style=" stroke:none;fill-rule:nonzero;fill:rgb(54.509807%,20%,57.254905%);fill-opacity:1;" d="M 110.527344 121.644531 L 110.527344 122.839844 L 114.449219 124.523438 L 114.449219 123.191406 Z M 110.527344 121.644531 "/>
<path style=" stroke:none;fill-rule:nonzero;fill:rgb(54.509807%,20%,57.254905%);fill-opacity:1;" d="M 121.871094 119.398438 L 121.871094 118.554688 L 124.390625 118.554688 L 124.390625 117.152344 L 115.640625 117.152344 L 115.640625 118.554688 L 120.679688 118.554688 L 120.679688 119.398438 L 115.640625 119.398438 C 115.640625 119.398438 115.640625 122.488281 115.640625 122.699219 C 115.777344 123.753906 116.269531 124.523438 117.320312 124.523438 C 118.578125 124.523438 121.871094 124.523438 121.871094 124.523438 L 121.871094 120.871094 L 123.0625 120.871094 C 123.269531 120.871094 123.339844 120.800781 123.339844 121.082031 C 123.339844 121.433594 123.339844 121.714844 123.339844 121.714844 C 123.269531 121.996094 123.269531 122.207031 123.0625 122.347656 C 122.851562 122.347656 122.640625 122.347656 122.640625 122.347656 L 122.640625 123.542969 L 123.550781 123.542969 C 123.832031 123.542969 124.390625 123.191406 124.460938 122.699219 C 124.460938 121.996094 124.460938 119.398438 124.460938 119.398438 Z M 120.609375 123.542969 C 120.609375 123.542969 117.667969 123.542969 117.527344 123.542969 C 117.039062 123.472656 116.757812 122.910156 116.757812 122.347656 C 116.757812 121.714844 116.757812 120.734375 116.757812 120.734375 L 120.539062 120.734375 L 120.539062 123.542969 Z M 120.609375 123.542969 "/>
<path style=" stroke:none;fill-rule:nonzero;fill:rgb(54.509807%,20%,57.254905%);fill-opacity:1;" d="M 96.664062 117.222656 L 96.664062 118.625 L 101.703125 118.625 L 101.703125 119.46875 L 96.664062 119.46875 C 96.664062 119.46875 96.664062 122.558594 96.664062 122.769531 C 96.804688 123.824219 97.292969 124.59375 98.34375 124.59375 C 99.605469 124.59375 102.894531 124.59375 102.894531 124.59375 L 102.894531 118.695312 L 104.503906 118.695312 L 103.945312 119.890625 L 103.945312 120.734375 C 103.945312 120.734375 104.785156 120.734375 104.996094 120.734375 C 105.554688 120.800781 105.765625 121.152344 105.765625 122.136719 C 105.765625 122.839844 105.625 123.332031 105.066406 123.332031 C 104.714844 123.332031 104.085938 123.332031 104.085938 123.332031 L 104.085938 124.523438 C 104.085938 124.523438 104.855469 124.523438 105.136719 124.523438 C 105.414062 124.523438 106.816406 124.664062 106.957031 123.332031 C 107.097656 120.59375 107.238281 119.890625 105.277344 119.679688 L 105.554688 118.695312 L 107.726562 118.695312 L 107.726562 124.59375 L 109.128906 124.59375 L 109.128906 117.289062 L 96.664062 117.289062 Z M 101.703125 123.542969 C 101.703125 123.542969 98.765625 123.542969 98.625 123.542969 C 98.132812 123.472656 97.855469 122.910156 97.855469 122.347656 C 97.855469 121.714844 97.855469 120.734375 97.855469 120.734375 L 101.636719 120.734375 L 101.636719 123.542969 Z M 101.703125 123.542969 "/>
</g>
</svg>
