<?xml version="1.0" encoding="utf-8"?>
<!-- Generator: Adobe Illustrator 25.0.0, SVG Export Plug-In . SVG Version: 6.00 Build 0)  -->
<svg version="1.1" id="Layer_1" xmlns="http://www.w3.org/2000/svg" xmlns:xlink="http://www.w3.org/1999/xlink" x="0px" y="0px"
	 viewBox="0 0 700 400" style="enable-background:new 0 0 700 400;" xml:space="preserve">
<style type="text/css">
	.st0{fill:#2F2E41;}
	.st1{fill:#FFB7B7;}
	.st2{fill:#069FCF;}
	.st3{fill:#FFB6B6;}
	.st4{fill:#3F3D56;}
	.st5{fill:#A0616A;}
	.st6{fill:#E6E6E6;}
	.st7{fill:#FF6584;}
</style>
<g>
	<g>
		<path class="st0" d="M144.6,191.7l-2.9,0.9c0-0.2-0.1-0.3-0.1-0.5c-0.4-1.2-0.6,1-1.5,0.2c0.1,1.1-1.5-9.8-1.6-8.8
			c-0.1,0.4,0.5,7.7,0.4,8.1l-22.8,0.2c0.1-2.2-1-1.4-2.1-3.3c-0.6,1.8-0.7,0.5-1.7,2.2c-0.4,0.7-0.8,1.4-1.3,2
			c-0.2,0.3-0.5,0.6-0.7,1l-0.3,0.1l-1.5-30.1c0-9.9,8.6-14.7,15.4-8.3c3.6,3.4,12.4-1.1,14.4,2.2c2,3.3,2.8,7.7,2.8,12.7
			L144.6,191.7z"/>
		<g>
			<polygon class="st1" points="108.6,362.7 113.6,362.9 116.3,340.6 109,340.5 			"/>
			<path class="st0" d="M125.6,373.1L125.6,373.1c0,0.8-0.6,1.5-1.3,1.5h-9.8c0,0-1-3.9-4.9-5.6l-0.3,5.6h-5.1l0.6-8.9
				c0,0-1.4-4.8,1.5-7.2c2.8-2.4,0.5-2.1,0.5-2.1l1.1-5.5l7.7,0.9l0.1,8.7l3.7,8.6l5.4,2.7C125.3,371.9,125.6,372.5,125.6,373.1
				L125.6,373.1L125.6,373.1z"/>
		</g>
		<g>
			<polygon class="st1" points="123.7,359.1 128.4,360.5 136.7,339.7 129.7,337.7 			"/>
			<path class="st0" d="M137.5,373.4L137.5,373.4c-0.2,0.8-1,1.3-1.7,1.1l-9.5-2.5c0,0,0.1-4-3.3-6.6l-1.7,5.3l-4.9-1.3l2.9-8.5
				c0,0-0.1-5,3.2-6.6c3.3-1.6,1.1-1.9,1.1-1.9l2.5-5.1l7.2,2.8l-2.1,8.4l1.4,9.3l4.6,4C137.5,372.2,137.6,372.8,137.5,373.4
				L137.5,373.4z"/>
		</g>
		<polygon class="st2" points="135.7,183.6 120.6,185.1 111.1,239.8 140,244.4 		"/>
		<path class="st0" d="M106.8,193.7l1.5,35.6L94.8,253l9.8,8.9c0,0,18.1-35.9,18.7-45.8c0.6-9.8-2.9-30.1-2.9-30.1L106.8,193.7
			L106.8,193.7z"/>
		<path class="st0" d="M149.8,193.7l-1.5,35.6l13.5,23.7l-20.9,9.5c0,0-7.1-36.6-7.7-46.4c-0.6-9.8,2.9-30.1,2.9-30.1L149.8,193.7
			L149.8,193.7z"/>
		<polygon class="st0" points="112.9,236.4 105.9,237.4 101.9,280.1 107.4,344.7 116.5,344.7 123.1,272.7 134.7,299.7 126.2,344.7 
			134.7,345.6 152,298.8 140,244.4 		"/>
		<path class="st3" d="M141.9,275c0.3-1.2,0.9-2.2,1.6-2.9l2.5-11.4l5.4,1.3l-3.1,11.4c0.2,1,0.2,2.1-0.2,3.3
			c-0.8,2.7-2.8,4.5-4.5,4C141.9,280.3,141.2,277.7,141.9,275L141.9,275L141.9,275z"/>
		<path class="st0" d="M142.7,191.4c0,0,10-0.5,10.7,6.1c0.7,6.6,3,44.2,3,44.2l-5.4,25.4l-7.7-1.1l3.4-32.3L142.7,191.4
			L142.7,191.4z"/>
		<path class="st3" d="M57.3,211.2c1.1,0.5,2.1,1.2,2.7,1.9l11.1,3.8l-2,5.2l-11-4.4c-1,0.1-2.1-0.1-3.3-0.6
			c-2.6-1.1-4.1-3.3-3.5-4.9S54.7,210.1,57.3,211.2L57.3,211.2L57.3,211.2z"/>
		<path class="st0" d="M120.6,195.3L120.6,195.3l-25.3,34.1l-29.7-8.2l1.3-7.7l22.6,4.3l12.6-19.4
			C106.2,190.5,114.3,188.9,120.6,195.3z"/>
		<circle class="st1" cx="127" cy="169.4" r="11.1"/>
		<path class="st0" d="M143.4,169h-3.7l-1-1.4c-0.5,0-0.9,1.3-1.3,1.2c-1.4-0.3-2.8-1.1-3.8-2.1c-0.1-0.1-0.2-0.2-0.3-0.3l0,0
			c0.1,1.4-1,2.5-2.4,2.5h-7.2c-2,0-3.4,1.9-2.9,3.8L120,196c0-4.7-21-29-6.8-38.7c3.3-2.2,5.7-1.8,10.4-1.8l0,0
			c7.3-3.9,16.5-0.3,18.9,7.7C143.1,164.9,143.4,166.9,143.4,169z"/>
		<g>
			<path class="st2" d="M55.9,90.2C40.5,90.2,28,102.7,28,118c0,12.9,11.3,29.8,22,38c1,0.7,2,1.3,3.1,1.6l1,3.8
				c0.2,0.8,0.9,1.3,1.7,1.3H56c0.8,0,1.6-0.6,1.8-1.4l0.9-3.9c0.9-0.3,1.8-0.8,2.6-1.4c11.9-9.3,22.4-24.6,22.4-38
				C83.7,102.7,71.2,90.2,55.9,90.2z"/>
			<path class="st4" d="M60.5,159.3c-3.3,8.4-6,6.5-8.4,0v-1.7h8.4C60.5,157.6,60.5,159.3,60.5,159.3z"/>
			<polygon class="st4" points="56.7,158.5 56.5,174.4 56.5,174.9 56.5,230.2 56.5,232.7 56.5,233.5 55.6,233.5 55.6,232.8 
				55.6,230.2 55.7,174.9 55.7,171.1 55.9,158.5 			"/>
			<polygon class="st4" points="56.6,233.5 55.7,233.5 55.6,232.8 55.6,230.2 55.3,174.9 53.5,158.4 54.4,158.3 55.7,171.1 
				56.1,174.9 56.3,230.2 56.3,231 56.5,232.7 			"/>
			<polygon class="st4" points="59,158.4 57.3,174.9 56.8,230.2 56.8,233.5 56,233.5 56.3,231 56.3,230.2 56.5,174.9 56.5,174.4 
				58.2,158.3 			"/>
		</g>
	</g>
	<g>
		<path class="st0" d="M602.7,178.9c-0.5-0.6-0.9-6.7-1.6-7.2c0.3,0.9,0.1,7.5,0.1,8.4c-5.8,4-9.8-6.2-13.9-6.2
			c-7.5,0-16.5-16.8-16.5-24.2c0-7.5,9.4-11.4,16.3-14.3c9.1-3.9,17.4,4.7,18.5,12.1C608.3,166.8,606,175.2,602.7,178.9z"/>
		<circle class="st5" cx="584.8" cy="152.5" r="11.1"/>
		<path class="st0" d="M568.7,150l5.5,0.7l1.4-0.8l0.2,1c0.8,0.1,1.6-0.2,2-0.8c0.4-0.5,0.8-0.9,1.4-1.3c-0.1,0.4-0.1,0.7-0.2,1.1
			c-0.1,0.8,0.5,1.5,1.2,1.6l8.1,1c2,0.2,3.1,2.3,2.4,4.1c0,0,2-4.3,3.7-3c3.9,2.8,15-3.1,5.5-11.4c-3-2.6-5.4-2.5-10.1-3.1l0,0
			c-6.8-4.8-16.3-2.3-19.7,5.3C569.4,146,568.9,147.9,568.7,150L568.7,150z"/>
		<path class="st5" d="M593.1,219.7h-32.4c2.7-6.1,4.4-11.8,1.8-16.4l30.6-1.8C591.6,207.7,591.4,213.8,593.1,219.7z"/>
		<path class="st6" d="M589.1,166l-12.9-0.9l-5.3,6.7l-2.7,0.5c-4,0.7-6.9,4.3-6.7,8.5l1,23.9l30.8,2.2l7.4-31.1l-8.9-3.5L589.1,166
			L589.1,166z"/>
		<g>
			<polygon class="st5" points="594.7,361.3 589.5,361.5 586.5,337.8 594.3,337.6 			"/>
			<path class="st0" d="M576.6,372.3L576.6,372.3c0,0.9,0.6,1.6,1.4,1.6h10.5c0,0,1-4.1,5.2-5.9l0.3,5.9h5.4l-0.7-9.5
				c0,0,1.4-5.1-1.6-7.7s-0.6-2.2-0.6-2.2l-1.2-5.9l-8.2,1l-0.1,9.3l-4,9.2l-5.8,2.9C577,371.1,576.6,371.7,576.6,372.3L576.6,372.3
				L576.6,372.3z"/>
		</g>
		<g>
			<polygon class="st5" points="575.4,360.8 570.2,360.9 567.2,337.2 575,337 			"/>
			<path class="st0" d="M557.4,371.8L557.4,371.8c0,0.9,0.6,1.6,1.4,1.6h10.5c0,0,1-4.1,5.2-5.9l0.3,5.9h5.4l-0.7-9.5
				c0,0,1.4-5.1-1.6-7.7s-0.6-2.2-0.6-2.2l-1.2-5.9l-8.2,1l-0.1,9.3l-4,9.2l-5.8,2.9C557.7,370.6,557.4,371.1,557.4,371.8
				L557.4,371.8L557.4,371.8z"/>
		</g>
		<path class="st0" d="M562,215.3l-4.4,14.3l-1.7,58.4l11.5,54.1l8.8-1.2l2.1-74.6l5.5,74.6l12.4-0.5c0,0,10.4-108-2.7-121.3l-1.2-5
			L562,215.3L562,215.3z"/>
		<g>
			<polygon class="st5" points="553.9,193.2 535.8,206.4 516.4,214 515,209.4 530.9,200 550.7,184.8 			"/>
			
				<ellipse transform="matrix(0.8946 -0.4468 0.4468 0.8946 -41.2225 251.3644)" class="st5" cx="512.3" cy="213.1" rx="5.3" ry="3.2"/>
			<path class="st6" d="M565.6,174.2c0,0,5.6,7.8,1.6,10.8c-4.1,3-16.4,17.4-16.4,17.4l-10.2-11.2L565.6,174.2L565.6,174.2z"/>
		</g>
		<g>
			<path class="st7" d="M655,174.2c-9.2-7.5-22.8-6.1-30.3,3.1c-6.3,7.8-7.7,23.4-5.4,33.6c0.2,0.9,0.6,1.7,1.1,2.5l-1.2,2.8
				c-0.3,0.6-0.1,1.2,0.4,1.6l0.1,0.1c0.5,0.4,1.2,0.4,1.8,0l2.4-1.9c0.7,0.3,1.5,0.4,2.3,0.4c11.7,0.2,25.5-3.9,32-11.9
				C665.6,195.2,664.2,181.7,655,174.2L655,174.2z"/>
			<path class="st4" d="M624,218c-9.1,6-8.6,2.4-5.1-4.1l0.8-1l5.1,4.1L624,218z"/>
			<polygon class="st4" points="622.1,215.7 614.2,225.1 614,225.5 587,258.7 585.7,260.2 585.3,260.7 584.8,260.3 585.2,259.8 
				586.5,258.3 613.5,225 615.3,222.8 621.6,215.2 			"/>
			<polygon class="st4" points="585.4,260.7 584.9,260.3 585.2,259.8 586.4,258.2 613.2,224.8 620.3,214.1 620.8,214.4 615.3,222.8 
				613.7,225.3 586.8,258.6 586.5,259.1 585.7,260.2 			"/>
			<polygon class="st4" points="623.6,216.7 614.4,225.8 587.2,258.8 585.5,260.9 585,260.5 586.5,259.1 586.9,258.6 613.9,225.4 
				614.2,225.1 623.1,216.3 			"/>
		</g>
		<g>
			<path class="st2" d="M483.4,125.5c-11.8,5.8-16.7,20.1-10.9,31.9c4.9,9.9,19.9,18.6,31.2,21c1,0.2,2,0.2,3,0l2.2,2.5
				c0.5,0.5,1.2,0.7,1.8,0.4l0.1,0c0.7-0.3,1-1,0.8-1.8l-0.8-3.3c0.6-0.6,1.1-1.3,1.5-2.1c5.6-11.6,7.9-27.4,2.9-37.6
				C509.5,124.5,495.3,119.7,483.4,125.5L483.4,125.5z"/>
			<path class="st4" d="M513.1,176.9c-0.2,4.4-1.5,6.9-6.5,3.2l-0.6-1.3l6.5-3.2L513.1,176.9L513.1,176.9z"/>
			<polygon class="st4" points="509.8,177.7 515.7,190 515.9,190.4 511.4,235.4 512.4,237.3 512.7,238 512,238.3 511.7,237.7 
				510.8,235.7 515.2,190.7 513.8,187.7 509.2,178 			"/>
			<polygon class="st4" points="512.7,237.9 512.1,238.3 511.7,237.7 510.7,235.7 514.9,190.8 507.4,178.8 508,178.4 513.8,187.7 
				515.6,190.5 511.3,235.5 511.6,236.1 512.4,237.3 			"/>
			<polygon class="st4" points="511.6,176.7 516.5,190.1 511.7,235.2 512.9,237.9 512.3,238.1 511.6,236.1 511.3,235.4 515.8,190.4 
				515.7,190 510.9,177 			"/>
		</g>
		<polygon class="st5" points="604.6,201.6 604.3,224.1 598.7,244.2 594.2,242.5 596.2,224.1 595.9,199.3 		"/>
		
			<ellipse transform="matrix(0.1791 -0.9838 0.9838 0.1791 246.019 788.5804)" class="st5" cx="595.6" cy="246.9" rx="5.3" ry="3.2"/>
		<path class="st6" d="M597.8,174.8c0,0,9.6,0.1,9.6,5.2c0,5.1-1.1,24.1-1.1,24.1l-15.1,1.4L597.8,174.8L597.8,174.8z"/>
	</g>
	<path id="b-1760" class="st6" d="M25.4,375.4h649.2c0.6,0,1.1-0.4,1.1-0.9s-0.5-0.9-1.1-0.9H25.4c-0.6,0-1.1,0.4-1.1,0.9
		S24.8,375.4,25.4,375.4z"/>
	<g>
		<path class="st6" d="M139,57.6L139,57.6c0.3-0.8,1.1-1.4,2-1.3c0.4,0,0.7,0.1,1.1,0.1c9-0.5,20.1,4.6,31.9,11.6l0,0
			c-10.8-8.8-20.7-16.5-32.4-8.5c-0.8,0.6-2,0.4-2.5-0.5c-0.2-0.4-0.3-0.8-0.1-1.2C139,57.7,139,57.6,139,57.6L139,57.6
			C139,57.6,139,57.6,139,57.6z"/>
		<path class="st6" d="M198.9,36.6L198.9,36.6c0.7,0.5,1,1.4,0.8,2.2l0,0.1c-0.2,0.8-0.8,1.5-1.5,1.9c-10.2,6.4,1.6,14.5-17.3,27.6
			v0c9.1-9.8,16.7-32.4,17.8-31.9C198.7,36.5,198.8,36.5,198.9,36.6L198.9,36.6L198.9,36.6z"/>
		<path class="st6" d="M214.5,86.2L214.5,86.2c-0.4,0.8-1.2,1.2-2.1,1l-0.1,0c-0.8-0.2-1.6-0.6-2.1-1.3c-7.5-9.4-14.2,3.3-29.4-13.9
			l0,0C191.6,80,215,84.8,214.6,86C214.6,86.1,214.5,86.2,214.5,86.2L214.5,86.2L214.5,86.2L214.5,86.2z"/>
		<path class="st6" d="M200.8,85.6L200.8,85.6c-0.4,0.2-1,0.2-1.5,0l-0.1,0c-0.5-0.2-0.9-0.6-1.1-0.9c-3.2-5.2-9.9-1.8-16.7-11.7
			l0,0C186.9,78.3,201.3,85.2,200.8,85.6C200.8,85.6,200.8,85.6,200.8,85.6L200.8,85.6L200.8,85.6z"/>
		<path class="st6" d="M203.8,64.9L203.8,64.9c-0.1,0.4-0.5,0.9-1.1,1.1l-0.1,0c-0.5,0.2-1,0.3-1.4,0.2c-6-1-7.9,6.2-19.8,4.8l0,0
			c7.7-0.7,22.4-6.9,22.4-6.3C203.9,64.9,203.9,64.9,203.8,64.9L203.8,64.9L203.8,64.9z"/>
		<path class="st6" d="M143.7,92.1L143.7,92.1c-0.4-0.8-0.3-1.7,0.3-2.3l0.1-0.1c0.6-0.6,1.4-0.9,2.2-1c12-0.8,5.4-13.5,28.2-16.3v0
			c-12.7,4.3-29.9,20.8-30.7,19.8C143.8,92.2,143.7,92.1,143.7,92.1C143.7,92.1,143.7,92.1,143.7,92.1z"/>
		<path class="st6" d="M191.9,91.9L191.9,91.9c-0.4,0.3-1,0.2-1.4-0.1l0,0c-0.4-0.3-0.6-0.8-0.7-1.3c-1-7.4-8.4-2.8-10.9-16.8l0,0
			c3.1,7.7,13.7,17.7,13.1,18.2C192,91.9,191.9,91.9,191.9,91.9L191.9,91.9z"/>
		<path class="st2" d="M178.5,104.1L178.5,104.1c-0.7,0-1.3-0.5-1.4-1.1l0-0.1c-0.2-0.6-0.1-1.3,0.2-1.9c4-8.5-7.1-8.8-0.2-25.3l0,0
			c-1.9,10.3,2.6,28.3,1.6,28.4C178.6,104.1,178.5,104.1,178.5,104.1L178.5,104.1z"/>
		<path class="st2" d="M153.9,92.5L153.9,92.5c-0.4-0.5-0.5-1.3-0.1-1.8l0-0.1c0.4-0.5,0.9-0.9,1.6-1.1c9.1-2.3,2.2-11,19.4-16.3v0
			c-9.1,5.1-20.1,20-20.8,19.4C154,92.6,153.9,92.5,153.9,92.5L153.9,92.5L153.9,92.5z"/>
		<path class="st2" d="M159.4,84.9L159.4,84.9c-0.3-0.3-0.3-0.6,0-0.9l0,0c0.2-0.3,0.6-0.5,1-0.6c5.8-1.6,1.4-6,12.3-9.5l0,0
			C166.9,76.9,159.9,85.3,159.4,84.9C159.5,84.9,159.4,84.9,159.4,84.9L159.4,84.9L159.4,84.9z"/>
		<path class="st6" d="M167.5,90.4L167.5,90.4c-0.3-0.1-0.5-0.5-0.4-0.9l0,0c0.1-0.4,0.4-0.7,0.7-0.9c4.8-3.5-0.8-6.1,8.2-13.2l0,0
			C171.7,80.3,168.1,90.6,167.5,90.4C167.5,90.5,167.5,90.4,167.5,90.4L167.5,90.4L167.5,90.4z"/>
		<polygon class="st2" points="143.9,65.9 144.8,68.6 147.6,68.6 145.3,70.3 146.2,73 143.9,71.3 141.6,73 142.5,70.3 140.2,68.6 
			143,68.6 		"/>
		<polygon class="st6" points="183.1,33.5 184,36.2 186.8,36.2 184.5,37.9 185.4,40.6 183.1,38.9 180.8,40.6 181.7,37.9 179.4,36.2 
			182.2,36.2 		"/>
		<polygon class="st2" points="203.9,62.5 204.8,65.2 207.6,65.2 205.3,66.9 206.2,69.6 203.9,67.9 201.6,69.6 202.5,66.9 
			200.2,65.2 203,65.2 		"/>
		<polygon class="st2" points="161.8,92.1 162.7,94.8 165.5,94.8 163.2,96.4 164.1,99.1 161.8,97.5 159.5,99.1 160.4,96.4 
			158.1,94.8 160.9,94.8 		"/>
		<polygon class="st2" points="177.8,62.5 178.7,65.2 181.5,65.2 179.2,66.9 180.1,69.6 177.8,67.9 175.5,69.6 176.3,66.9 174,65.2 
			176.9,65.2 		"/>
		<polygon class="st6" points="199.7,33.5 200.6,36.2 203.5,36.2 201.2,37.9 202,40.6 199.7,38.9 197.4,40.6 198.3,37.9 196,36.2 
			198.9,36.2 		"/>
		<polygon class="st6" points="142.4,87 143.5,89.6 146.3,89.3 144.2,91.2 145.3,93.8 142.9,92.4 140.7,94.2 141.4,91.5 138.9,90 
			141.8,89.7 		"/>
		<path class="st2" d="M166.7,37L166.7,37c0.5-0.3,1.1-0.1,1.4,0.4l0,0.1c0.3,0.5,0.5,1,0.5,1.6c-0.4,8.5,8.1,4.7,8.1,21h0
			c-1.8-9.2-10.8-22.5-10.1-23C166.6,37,166.7,37,166.7,37L166.7,37L166.7,37z"/>
		<path class="st6" d="M159.3,49.6L159.3,49.6c0.2-0.3,0.6-0.3,0.9-0.1l0,0c0.3,0.2,0.5,0.5,0.7,0.9c2,5.3,5.9,0.9,10.1,10.9l0,0
			C167.6,56,159,50.1,159.3,49.6C159.3,49.6,159.3,49.6,159.3,49.6C159.3,49.6,159.3,49.6,159.3,49.6z"/>
		<path class="st6" d="M152.8,65.1L152.8,65.1c0-0.4,0.3-0.6,0.7-0.6l0,0c0.4,0,0.7,0.1,1.1,0.4c4.6,3.3,5.3-2.5,14.4,3.5l0,0
			C163.2,65.9,152.8,65.7,152.8,65.1C152.8,65.2,152.8,65.1,152.8,65.1C152.8,65.1,152.8,65.1,152.8,65.1z"/>
	</g>
	<path class="st2" d="M407.7,144.6l-25,6.8l3.6,16.2c-1.2-0.8-2.6-1.3-4.1-1.3c-4.1,0-7.4,3.3-7.4,7.4c0,4.1,3.3,7.4,7.4,7.4
		c4.1,0,7.4-3.3,7.4-7.4c0-1.4-0.4-2.7-1.1-3.9l-2.9-12.9l21.6-6.8l2,9.6c-1.2-0.8-2.6-1.3-4.2-1.3c-4.1,0-7.4,3.3-7.4,7.4
		c0,4.1,3.3,7.4,7.4,7.4c4.1,0,7.4-3.3,7.4-7.4c0-1.4-0.4-2.8-1.1-3.9L407.7,144.6z"/>
	<path class="st2" d="M432.2,159.8c-4,0-7.3,3.3-7.3,7.3c0,1.1,0.3,2.2,0.7,3.2l4.2,17.2l2.4-0.6l-3.2-13.3c1,0.5,2.1,0.8,3.3,0.8
		c4,0,7.3-3.3,7.3-7.3S436.3,159.8,432.2,159.8L432.2,159.8z"/>
	<path class="st2" d="M462,197.7l-4.1-16.6l-2.5,0.6l3.2,13c-1-0.5-2.1-0.7-3.3-0.7c-4.3,0-7.8,3.4-7.8,7.5s3.5,7.5,7.8,7.5
		c4.3,0,7.8-3.4,7.8-7.5C463.1,200.2,462.7,198.9,462,197.7L462,197.7z"/>
	<path class="st2" d="M486.8,205.1c-4,0-7.3,3.3-7.3,7.3c0,1.1,0.3,2.2,0.7,3.2l4.2,17.2l2.4-0.6l-3.2-13.3c1,0.5,2.1,0.8,3.3,0.8
		c4,0,7.3-3.3,7.3-7.3S490.8,205.1,486.8,205.1L486.8,205.1z"/>
	<g>
		<g>
			<polygon class="st5" points="335.7,369.8 330,369.8 327.3,347.9 335.7,347.9 			"/>
			<path class="st0" d="M316.2,369.7L316.2,369.7c-0.2,0.3-0.3,1.3-0.3,1.6l0,0c0,1.1,0.9,1.9,1.9,1.9h17.6c0.7,0,1.3-0.6,1.3-1.3
				v-0.7c0,0,0.9-2.2-0.9-4.9c0,0-2.2,2.1-5.6-1.2l-1-1.8l-7.1,5.2l-3.9,0.5C317.4,369.1,316.7,369,316.2,369.7L316.2,369.7
				L316.2,369.7z"/>
		</g>
		<g>
			<polygon class="st5" points="310.2,369.8 304.5,369.8 301.8,347.9 310.2,347.9 			"/>
			<path class="st0" d="M290.7,369.7L290.7,369.7c-0.2,0.3-0.3,1.3-0.3,1.6l0,0c0,1.1,0.9,1.9,1.9,1.9H310c0.7,0,1.3-0.6,1.3-1.3
				v-0.7c0,0,0.9-2.2-0.9-4.9c0,0-2.2,2.1-5.6-1.2l-1-1.8l-7.1,5.2l-3.9,0.5C291.9,369.1,291.2,369,290.7,369.7L290.7,369.7
				L290.7,369.7z"/>
		</g>
		<polygon class="st0" points="336.2,232.3 341.5,245.8 337.3,354.2 325.8,354.2 315.3,256.4 312.9,354.5 301.6,354.2 289.4,245.3 
			297.5,235.6 		"/>
		<path class="st6" d="M311.2,155.4l13.9-1l4.3,6.9l12.9,3.6l-4.8,33.6l5.1,50.1c0,0-18.5-2.6-19.8,2.6c-1.3,5.3-33.7-5.3-33.7-5.3
			l11.1-34.2l-1-26.8l-3-15.5l13.6-6.3L311.2,155.4L311.2,155.4z"/>
		<path class="st6" d="M304.9,165.3c0,0-11.1-0.2-12.6,4.5s-6.5,36.7-6.5,36.7l-3.8,14.1l17-8.4l-3.6-5.6l11.9-22.8L304.9,165.3
			L304.9,165.3z"/>
		<path class="st2" d="M311.7,216.7c1.8,0,3.5-1.1,4.2-2.7c0.5-1.3,0.5-2.5,0.1-3.5c0.1-0.1,0.3-0.1,0.4-0.2
			c-0.2-0.1-0.4-0.2-0.6-0.3c-0.7-1.3-1.9-2.3-3.4-2.5c-1.9-2-3-4.7-3-7.6c0-6.1,4.9-11.1,11-11.3c0,0,0.1,0,0.1,0
			c2.7,0,5.2,1.5,6.6,3.8c0.8,1.4,2.3,2.3,4,2.3c1.3,0,2.5-0.5,3.3-1.4c1.8-1.9,4.1-3.3,6.7-3.7c1.7-0.3,3.5-0.4,5.3-0.3
			c12.3,0.6,23,11.6,23.2,23.9c0.3,13.8-10.8,25-24.5,25c-7.1,0-13.5-3-18-7.9c-2-2.2-4.8-3.4-7.7-3.3c0,0-0.1,0-0.1,0
			c-4.8,0-8.6-3.9-8.6-8.6c0-0.3,0-0.5,0-0.8C310.8,217.1,311.2,216.7,311.7,216.7L311.7,216.7L311.7,216.7z"/>
		<polygon class="st2" points="352.4,209.4 270,193.9 269.7,199.8 351.4,219.4 		"/>
		<path class="st2" d="M271,194.9l-1-1c0,0-4.3-2-4.3-2.3c0-0.2-6.4-2.4-11.1-3.9c-2.7-0.9-5.5,0.9-5.8,3.6l-0.6,4.4
			c-0.4,2.6,1.6,5,4.2,5.1l11.6,0.5l5.6-1.3C269.7,199.8,271,194.9,271,194.9z"/>
		<polygon class="st4" points="352.2,211.3 352.4,210.4 270,194.7 269.9,195.7 		"/>
		<polygon class="st4" points="352,212.8 352.2,211.9 269.9,196.3 269.9,197.4 		"/>
		<polygon class="st4" points="351.8,214.7 351.9,213.2 269.8,197.5 269.9,198.4 		"/>
		<polygon class="st4" points="351.6,216.9 351.6,215.6 269.7,198.7 269.7,199 		"/>
		<polygon class="st4" points="351.6,218.2 351.6,217.2 269.8,199.2 269.8,199.6 		"/>
		<path class="st4" d="M304.3,163.2l4.1-2.3l1.8,36.3l-0.6,4.5C309.5,201.7,299.2,173.1,304.3,163.2z"/>
		<circle class="st5" cx="318.3" cy="141.6" r="10.3"/>
		<path class="st0" d="M309.5,147.7l2.5,2l-2.8-10.6c0,0,7.8-0.2,8.4-4.5c0,0,6.1-0.2,7.8-0.2c1.7,0,2.4,10.9,2.4,10.9
			s3.2-9-0.1-13.6c-3.3-4.6-2.2-1.8-2.8-3.5c-0.7-1.7-7.4-3.2-11.7-1.5c-4.3,1.7-4.5,4.1-5.8,4.1s-6,6.6-1.7,11.9
			C310,148.2,309.5,147.7,309.5,147.7L309.5,147.7z"/>
		<path class="st5" d="M340.9,215c1.2-1,2.1-2.1,2.6-3.3l12.2-8.5l-4.2-5.7l-11.9,9.2c-1.2,0.2-2.6,0.9-3.8,1.8
			c-2.8,2.2-3.9,5.4-2.5,7.2S338.1,217.3,340.9,215L340.9,215z"/>
		<path class="st5" d="M294.3,202.1c-0.9,1.3-1.4,2.6-1.6,3.9l-9.4,11.5l5.6,4.3l8.9-12.2c1.1-0.6,2.2-1.5,3.1-2.8
			c2.1-2.9,2.2-6.3,0.4-7.6S296.3,199.2,294.3,202.1L294.3,202.1L294.3,202.1z"/>
		<path class="st6" d="M337,167.1c0,0,3-5,6-2c2.4,2.4,15.3,17.3,20.6,23.5c1.5,1.7,2.3,3.9,2.3,6.1l0,0c0,3.5-1.9,6.6-5,8.3
			l-16.5,8.8l-4.6-6.9l14.2-10.3L332,182.6L337,167.1L337,167.1z"/>
		<polyline class="st6" points="284.7,212.8 282.1,220.5 289.7,224.5 295.5,220.5 299.1,212.1 288.4,208.9 		"/>
		<path class="st2" d="M268.2,133.6l-25,6.8l3.6,16.2c-1.2-0.8-2.6-1.3-4.1-1.3c-4.1,0-7.4,3.3-7.4,7.4s3.3,7.4,7.4,7.4
			c4.1,0,7.4-3.3,7.4-7.4c0-1.4-0.4-2.7-1.1-3.9l-2.9-12.9l21.6-6.8l2,9.6c-1.2-0.8-2.6-1.3-4.2-1.3c-4.1,0-7.4,3.3-7.4,7.4
			c0,4.1,3.3,7.4,7.4,7.4c4.1,0,7.4-3.3,7.4-7.4c0-1.4-0.4-2.8-1.1-3.9L268.2,133.6z"/>
		<path class="st2" d="M225.1,136.2l-4.1-16.6l-2.5,0.6l3.2,13c-1-0.5-2.1-0.7-3.3-0.7c-4.3,0-7.8,3.4-7.8,7.5s3.5,7.5,7.8,7.5
			c4.3,0,7.8-3.4,7.8-7.5C226.1,138.6,225.8,137.4,225.1,136.2L225.1,136.2z"/>
	</g>
	<g>
		<path class="st6" d="M441.5,51.7L441.5,51.7c0.3-0.9,1.2-1.4,2-1.3c0.4,0,0.7,0.1,1.1,0.1c9-0.5,20.2,4.6,32.1,11.7l0,0
			c-10.9-8.8-20.9-16.6-32.6-8.6c-0.8,0.6-2,0.4-2.5-0.5c-0.2-0.4-0.3-0.8-0.1-1.2C441.5,51.8,441.5,51.7,441.5,51.7L441.5,51.7
			L441.5,51.7z"/>
		<path class="st6" d="M501.7,30.5L501.7,30.5c0.7,0.5,1.1,1.4,0.8,2.2l0,0.1c-0.2,0.8-0.8,1.5-1.5,1.9
			c-10.3,6.4,1.6,14.6-17.4,27.8l0,0c9.2-9.8,16.8-32.6,17.9-32.1C501.6,30.5,501.7,30.5,501.7,30.5
			C501.7,30.5,501.7,30.5,501.7,30.5z"/>
		<path class="st6" d="M517.4,80.5L517.4,80.5c-0.4,0.8-1.2,1.2-2.1,1.1l-0.1,0c-0.8-0.2-1.6-0.6-2.1-1.3c-7.6-9.4-14.3,3.3-29.6-14
			l0,0c10.9,8,34.4,12.8,34,14C517.5,80.4,517.5,80.4,517.4,80.5L517.4,80.5L517.4,80.5z"/>
		<path class="st6" d="M503.6,79.9L503.6,79.9c-0.4,0.2-1,0.2-1.5,0l-0.1,0c-0.5-0.2-0.9-0.6-1.1-0.9c-3.2-5.2-9.9-1.8-16.8-11.7
			l0,0C489.7,72.5,504.2,79.5,503.6,79.9C503.7,79.9,503.7,79.9,503.6,79.9L503.6,79.9L503.6,79.9z"/>
		<path class="st6" d="M506.7,59.1L506.7,59.1c-0.1,0.4-0.5,0.9-1.1,1.1l-0.1,0c-0.5,0.2-1,0.3-1.5,0.2c-6-1-7.9,6.2-19.9,4.8l0,0
			c7.8-0.7,22.6-6.9,22.5-6.3C506.7,59,506.7,59,506.7,59.1L506.7,59.1L506.7,59.1z"/>
		<path class="st6" d="M446.2,86.4L446.2,86.4c-0.4-0.8-0.3-1.7,0.3-2.3l0.1-0.1c0.6-0.6,1.4-0.9,2.2-1c12.1-0.8,5.4-13.6,28.4-16.4
			l0,0c-12.7,4.4-30.1,20.9-30.9,19.9C446.3,86.5,446.2,86.4,446.2,86.4L446.2,86.4L446.2,86.4z"/>
		<path class="st6" d="M494.7,86.2L494.7,86.2c-0.4,0.3-1,0.2-1.4-0.1l0,0c-0.4-0.3-0.6-0.8-0.7-1.3c-1-7.4-8.4-2.8-11-16.9l0,0
			c3.1,7.7,13.8,17.9,13.2,18.4C494.8,86.2,494.8,86.2,494.7,86.2L494.7,86.2L494.7,86.2z"/>
		<path class="st2" d="M481.2,98.4L481.2,98.4c-0.7,0-1.3-0.5-1.4-1.1l0-0.1c-0.2-0.6-0.1-1.3,0.2-1.9c4-8.5-7.1-8.8-0.2-25.5l0,0
			c-1.9,10.3,2.6,28.4,1.6,28.6C481.3,98.4,481.3,98.4,481.2,98.4L481.2,98.4L481.2,98.4z"/>
		<path class="st2" d="M456.5,86.8L456.5,86.8c-0.4-0.5-0.5-1.3-0.1-1.8l0-0.1c0.4-0.5,0.9-0.9,1.6-1.1c9.1-2.3,2.3-11.1,19.5-16.4
			l0,0c-9.2,5.1-20.2,20.2-20.9,19.5C456.5,86.9,456.5,86.8,456.5,86.8L456.5,86.8L456.5,86.8z"/>
		<path class="st2" d="M462,79.2L462,79.2c-0.3-0.3-0.3-0.7,0-1l0,0c0.2-0.3,0.6-0.5,1-0.6c5.8-1.6,1.4-6,12.4-9.6l0,0
			C469.6,71.1,462.6,79.6,462,79.2C462.1,79.2,462,79.2,462,79.2L462,79.2z"/>
		<path class="st6" d="M470.1,84.7L470.1,84.7c-0.4-0.1-0.5-0.5-0.4-0.9l0,0c0.1-0.4,0.4-0.7,0.7-0.9c4.9-3.5-0.8-6.1,8.2-13.3l0,0
			C474.4,74.5,470.8,84.9,470.1,84.7C470.2,84.7,470.2,84.7,470.1,84.7L470.1,84.7L470.1,84.7z"/>
		<polygon class="st2" points="446.4,60.1 447.3,62.8 450.1,62.8 447.8,64.5 448.7,67.2 446.4,65.5 444.1,67.2 445,64.5 442.7,62.8 
			445.5,62.8 		"/>
		<polygon class="st6" points="485.9,27.4 486.7,30.1 489.6,30.1 487.3,31.8 488.2,34.6 485.9,32.9 483.5,34.6 484.4,31.8 
			482.1,30.1 485,30.1 		"/>
		<polygon class="st2" points="506.8,56.7 507.7,59.4 510.6,59.4 508.2,61.1 509.1,63.8 506.8,62.1 504.5,63.8 505.4,61.1 
			503.1,59.4 505.9,59.4 		"/>
		<polygon class="st2" points="464.4,86.4 465.3,89.1 468.2,89.1 465.9,90.8 466.7,93.5 464.4,91.8 462.1,93.5 463,90.8 460.7,89.1 
			463.5,89.1 		"/>
		<polygon class="st2" points="480.5,56.7 481.4,59.4 484.2,59.4 481.9,61.1 482.8,63.8 480.5,62.1 478.2,63.8 479.1,61.1 
			476.7,59.4 479.6,59.4 		"/>
		<polygon class="st6" points="502.6,27.4 503.5,30.1 506.4,30.1 504,31.8 504.9,34.6 502.6,32.9 500.3,34.6 501.2,31.8 498.9,30.1 
			501.7,30.1 		"/>
		<polygon class="st6" points="444.9,81.2 446,83.9 448.9,83.6 446.7,85.5 447.8,88.1 445.4,86.7 443.2,88.5 443.9,85.8 441.4,84.3 
			444.3,84 		"/>
		<path class="st2" d="M469.4,30.9L469.4,30.9c0.5-0.3,1.1-0.1,1.4,0.4l0,0.1c0.3,0.5,0.5,1,0.5,1.6c-0.4,8.6,8.2,4.7,8.2,21.1l0,0
			c-1.8-9.3-10.9-22.7-10.2-23.1C469.3,31,469.3,31,469.4,30.9L469.4,30.9z"/>
		<path class="st6" d="M461.9,43.6L461.9,43.6c0.2-0.3,0.6-0.3,0.9-0.1l0,0c0.3,0.2,0.5,0.5,0.7,0.9c2,5.4,5.9,0.9,10.1,11l0,0
			C470.3,50.1,461.6,44.2,461.9,43.6C461.9,43.7,461.9,43.6,461.9,43.6L461.9,43.6L461.9,43.6z"/>
		<path class="st6" d="M455.3,59.2L455.3,59.2c0-0.4,0.3-0.6,0.7-0.6l0,0c0.4,0,0.7,0.1,1.1,0.4c4.6,3.4,5.4-2.5,14.5,3.5l0,0
			C465.9,60,455.4,59.9,455.3,59.2C455.3,59.3,455.3,59.3,455.3,59.2L455.3,59.2L455.3,59.2z"/>
	</g>
</g>
</svg>
