<?xml version="1.0" encoding="utf-8"?>
<!-- Generator: Adobe Illustrator 25.0.0, SVG Export Plug-In . SVG Version: 6.00 Build 0)  -->
<svg version="1.1" id="Layer_1" xmlns="http://www.w3.org/2000/svg" xmlns:xlink="http://www.w3.org/1999/xlink" x="0px" y="0px"
	 viewBox="0 0 700 400" style="enable-background:new 0 0 700 400;" xml:space="preserve">
<style type="text/css">
	.st0{opacity:0.1;fill:#069FCF;enable-background:new    ;}
	.st1{fill:#E6E6E6;}
	.st2{fill:#FFFFFF;}
	.st3{fill:#069FCF;}
	.st4{fill:#FFFFFF;stroke:#000000;stroke-miterlimit:10;}
	.st5{fill:#FBBEBE;}
	.st6{fill:#3F3D56;}
	.st7{opacity:0.1;enable-background:new    ;}
	.st8{fill:#192534;}
</style>
<g>
	<ellipse class="st0" cx="252.8" cy="367.8" rx="144.8" ry="26.4"/>
	<g>
		<path class="st1" d="M525.1,187h-98.8c-2.2,0-4.4-0.8-6.1-2.3l-40.7-35.9c-1.4-1.2-3.2-1.9-5.1-1.9h-35.1V25.7
			c0-4.8,3.9-8.7,8.7-8.7h168.4c4.8,0,8.7,3.9,8.7,8.7L525.1,187z"/>
		<circle class="st2" cx="379.6" cy="54.8" r="18.5"/>
		<path class="st2" d="M451.4,44.9h-34.3c-1.3,0-2.4,1.1-2.4,2.4c0,1.3,1.1,2.4,2.4,2.4h34.3c1.3,0,2.4-1.1,2.4-2.4
			C453.8,45.9,452.7,44.9,451.4,44.9z"/>
		<path class="st2" d="M501.2,59.9h-84.6c-1.1,0-1.9,1.1-1.9,2.4s0.9,2.4,1.9,2.4h84.6c1.1,0,1.9-1.1,1.9-2.4S502.3,59.9,501.2,59.9
			z"/>
		<path class="st2" d="M494.6,91.7H369.7c-1,0-1.8,1.1-1.8,2.4c0,1.3,0.8,2.4,1.8,2.4h124.9c1,0,1.8-1.1,1.8-2.4
			C496.4,92.8,495.6,91.7,494.6,91.7z"/>
		<path class="st2" d="M494.6,106.5H369.7c-1,0-1.8,1.1-1.8,2.4c0,1.3,0.8,2.4,1.8,2.4h124.9c1,0,1.8-1.1,1.8-2.4
			C496.4,107.6,495.6,106.5,494.6,106.5z"/>
		<path class="st2" d="M494.6,121.3H369.7c-1,0-1.8,1.1-1.8,2.4c0,1.3,0.8,2.4,1.8,2.4h124.9c1,0,1.8-1.1,1.8-2.4
			C496.4,122.4,495.6,121.3,494.6,121.3z"/>
		<path class="st2" d="M494.6,136.1H369.7c-1,0-1.8,1.1-1.8,2.4c0,1.3,0.8,2.4,1.8,2.4h124.9c1,0,1.8-1.1,1.8-2.4
			C496.4,137.1,495.6,136.1,494.6,136.1z"/>
		<path class="st3" d="M606.9,187H426.2c-1.8,0-3.6-0.5-5.1-1.5l-0.1-0.1V62.2c0-4.8,3.9-8.7,8.7-8.7h168.4c4.8,0,8.7,3.9,8.7,8.7
			L606.9,187z"/>
		<circle class="st2" cx="461.4" cy="91.2" r="18.5"/>
		<path class="st2" d="M533.2,81.3h-34.3c-1.3,0-2.4,1.1-2.4,2.4c0,1.3,1.1,2.4,2.4,2.4h34.3c1.3,0,2.4-1.1,2.4-2.4
			S534.6,81.3,533.2,81.3z"/>
		<path class="st2" d="M583.1,96.3h-84.6c-1.1,0-1.9,1.1-1.9,2.4c0,1.3,0.9,2.4,1.9,2.4h84.6c1.1,0,1.9-1.1,1.9-2.4
			C585,97.4,584.1,96.3,583.1,96.3z"/>
		<path class="st2" d="M576.4,128.1H451.5c-1,0-1.8,1.1-1.8,2.4s0.8,2.4,1.8,2.4h124.9c1,0,1.8-1.1,1.8-2.4S577.4,128.1,576.4,128.1
			z"/>
		<path class="st2" d="M576.4,142.9H451.5c-1,0-1.8,1.1-1.8,2.4s0.8,2.4,1.8,2.4h124.9c1,0,1.8-1.1,1.8-2.4S577.4,142.9,576.4,142.9
			z"/>
		<path class="st2" d="M576.4,157.7H451.5c-1,0-1.8,1.1-1.8,2.4c0,1.3,0.8,2.4,1.8,2.4h124.9c1,0,1.8-1.1,1.8-2.4
			C578.3,158.8,577.4,157.7,576.4,157.7z"/>
		<path class="st2" d="M576.4,172.5H451.5c-1,0-1.8,1.1-1.8,2.4c0,1.3,0.8,2.4,1.8,2.4h124.9c1,0,1.8-1.1,1.8-2.4
			C578.3,173.6,577.4,172.5,576.4,172.5z"/>
		<path class="st4" d="M624.6,197v161.6c0,5.7-4.6,10.3-10.3,10.3H335c-5.7,0-10.3-4.6-10.3-10.3V156.3c0-5.5,4.4-9.9,9.9-9.9h44.3
			c1.9,0,3.7,0.7,5.1,2l43.1,38.2h187.2C620,186.7,624.6,191.3,624.6,197z"/>
		<path class="st1" d="M552.3,332.5H397c-4.4,0-7.9-3.5-7.9-7.9V239c0-4.4,3.5-7.9,7.9-7.9h155.2c4.4,0,7.9,3.5,7.9,7.9v85.5
			C560.2,328.9,556.6,332.5,552.3,332.5z M397,232.2c-3.8,0-6.9,3.1-6.9,6.9v85.5c0,3.8,3.1,6.9,6.9,6.9h155.2
			c3.8,0,6.9-3.1,6.9-6.9V239c0-3.8-3.1-6.9-6.9-6.9H397z"/>
		<circle class="st1" cx="422.1" cy="262.8" r="18.5"/>
		<path class="st1" d="M493.9,252.9h-34.3c-1.3,0-2.4,1.1-2.4,2.4c0,1.3,1.1,2.4,2.4,2.4h34.3c1.3,0,2.4-1.1,2.4-2.4
			C496.3,254,495.2,252.9,493.9,252.9z"/>
	</g>
	<path class="st1" d="M543.7,267.9h-84.6c-1.1,0-1.9,1.1-1.9,2.4c0,1.3,0.9,2.4,1.9,2.4h84.6c1.1,0,1.9-1.1,1.9-2.4
		C545.7,269,544.8,267.9,543.7,267.9z"/>
	<path class="st1" d="M537.1,299.7H412.2c-1,0-1.8,1.1-1.8,2.4c0,1.3,0.8,2.4,1.8,2.4h124.9c1,0,1.8-1.1,1.8-2.4
		C538.9,300.8,538.1,299.7,537.1,299.7z"/>
	<path class="st1" d="M537.1,314.5H412.2c-1,0-1.8,1.1-1.8,2.4s0.8,2.4,1.8,2.4h124.9c1,0,1.8-1.1,1.8-2.4S538.1,314.5,537.1,314.5z
		"/>
	<path class="st5" d="M320.6,188.7c0.6-1.3,1.1-2.7,1.5-4.1c0.3-1,0.6-2.1,1.2-3c0.3-0.4,0.6-0.7,1-0.9c0.5-0.2,1,0,1.3,0.4
		c0.1,0.2,0.1,0.5,0.1,0.7l-0.4,1.1c-0.2,0.7-0.4,1.4-0.1,2.1c0.1,0.3,0.3,0.5,0.6,0.7c0.7,0.4,1.3-0.1,1.9-0.5
		c0.7-0.7,1.5-1.2,2.3-1.6c0.7-0.3,1.4-0.3,2.2-0.2c0.2,0.1,0.3,0.3,0.2,0.5c0,0.1-0.1,0.1-0.1,0.2c-1.1,1-3.2,1.1-3.5,2.5
		c0.9-1.1,2.1-1.8,3.5-2c0.8-0.2,1.6,0.4,1.8,1.2c0.1,0.6-0.1,1.1-0.5,1.4c-0.2,0.1-0.4,0.3-0.6,0.4c-1.1,0.6-2.3,1.1-3.5,1.4
		c2.5-0.1,5.3-0.1,6.9,1.8c0.2,0.2,0.2,0.5,0.1,0.8c-0.2,0.3-0.5,0.3-0.9,0.2c-1-0.2-2.1-0.6-3.1-0.5c-2.4,0.2-3.7,2.9-5.4,4.5
		c-2.1,2-5.2,2.6-8.1,2.2c-0.8-0.1-1.6-0.4-2.4-0.8c-1.6-1.1-1.1-3.5,0.3-4.5C318.6,191.6,319.7,190.9,320.6,188.7z"/>
	<path class="st3" d="M287.9,194.3c0.6,0.7,6.2,2,7,2.4c1.3,0.7,3.1,0.7,4.7,0.5c2.1-0.2,4.1-0.8,6-1.5l4.3-1.3
		c2.7-0.8,5.5-1.7,7.7-3.1c0.6-0.4,1.2-0.8,1.9-0.8c0.4,0,0.8,0.1,1.2,0.3c1.9,0.9,3.2,2.3,3.7,4c0.1,0.5,0.2,1,0,1.6
		c-0.2,0.7-1,1.3-1.6,1.8c-3.2,2.5-6.4,5-10.2,6.9c-3.7,1.8-7.8,2.9-11.9,4c-1.5,0.4-3,0.7-4.6,0.9c-3,0.3-5.9-0.3-8.7-1.2
		c-2.7-0.9-5.2-2.3-7.6-3.7c-2.4-1.3-4.5-2.8-6.6-4.4c-3.4-2.8-5.5-6.3-3.8-10.3c1.2-2.8,2-4.4,5.6-4.8
		C277.6,185.4,286,190.7,287.9,194.3z"/>
	<g>
		<path class="st5" d="M275.1,178.6c-0.5,1.8-1,3.7-1.3,5.5c-0.3,1.4-0.4,2.9,0.4,4.1c-3.1-4.6-6.3-9.4-10.9-12.3
			c1.9-2.1,2.9-4.9,2.6-7.7c0-0.3,3.8,1.2,4.1,1.3c1.3,0.7,2.6,1.7,3.9,2.5c0.7,0.4,3.5,1.4,3.5,2c0,0.4-1.1,1.5-1.3,1.9
			C275.7,176.9,275.4,177.7,275.1,178.6z"/>
		<path class="st2" d="M260.9,352.9c1.5-1.1,3.5-1.3,5.3-0.4c1.5,0.8,2.5,2.3,3.9,3.3c2.3,1.7,5.5,1.9,8.2,2.7
			c0.7,0.3,1.5,0.6,1.8,1.3c0.2,0.6,0.1,1.3-0.1,1.9c-0.5,1-1.3,1.9-2.3,2.3c-1.2,0.6-2.7,0.6-4,0.6l-11.9,0.1
			c-3.7,0.1-7.3,0.1-10.9,0.5c-0.9,0.1-1.7,0.2-2.5-0.2c-1.2-0.7-1.3-2.3-1.3-3.7c0.3-3.5,1-6.9,2.3-10.2c0.1-0.3,0.3-0.8,0.7-0.9
			c0.3,0,0.5,0.1,0.8,0.3c3.3,2,7.6,3.1,11.1,1.5"/>
		<path class="st6" d="M254.9,277.1c1.3,7.7,0.5,15.6-1,23.3c-0.3,1.5-0.7,3.1-1.1,4.5c-0.5,1.7-1.3,3.3-1.7,5
			c-1.3,4.3-1.1,8.9-0.9,13.4l0.9,20.5c0.1,1.7,0.1,3.5-0.4,5.1c-0.2,0.7-0.5,1.5,0.1,1.9c0.2,0.1,0.5,0.3,0.7,0.3
			c2.4,0.5,4.8,0.1,6.9-1.1l0.3-20.7c0.1-6.4,0.1-12.8,1.1-19.1c0.8-5,2.1-9.9,2.2-15c0.1-5.3-1.2-10.5-2.5-15.7
			c-0.3-1.1-1.3-1.9-2.2-2.7c-0.3-0.3-0.7-0.5-1.1-0.7C255.8,276.3,255.2,276.8,254.9,277.1z"/>
		<path class="st7" d="M254.9,277.1c1.3,7.7,0.5,15.6-1,23.3c-0.3,1.5-0.7,3.1-1.1,4.5c-0.5,1.7-1.3,3.3-1.7,5
			c-1.3,4.3-1.1,8.9-0.9,13.4l0.9,20.5c0.1,1.7,0.1,3.5-0.4,5.1c-0.2,0.7-0.5,1.5,0.1,1.9c0.2,0.1,0.5,0.3,0.7,0.3
			c2.4,0.5,4.8,0.1,6.9-1.1l0.3-20.7c0.1-6.4,0.1-12.8,1.1-19.1c0.8-5,2.1-9.9,2.2-15c0.1-5.3-1.2-10.5-2.5-15.7
			c-0.3-1.1-1.3-1.9-2.2-2.7c-0.3-0.3-0.7-0.5-1.1-0.7C255.8,276.3,255.2,276.8,254.9,277.1z"/>
		<path class="st6" d="M279.8,253.1c0.5,2-0.5,4.1-0.5,6.2c0.1,1.3,0.5,2.5,0.3,3.7c-0.2,1.2-1.1,2.1-1.6,3.3
			c-0.3,0.9-0.5,1.9-0.5,2.9c-0.1,2.5,0,5,0.1,7.5c0.1,4.1,0.3,8.3-0.3,12.4c-0.5,3.5-1.5,7-2.9,10.3c-0.5,0.9-0.8,1.8-1.1,2.8
			c-0.2,0.9-0.3,1.8-0.3,2.7c-0.3,2.9-1.1,5.8-2.3,8.5c-0.9,1.9-2.3,3.3-2.8,5.3c-0.5,1.9-0.1,3.9-0.5,5.7c-0.3,1.4-0.8,2.7-1.1,4.1
			c-0.4,1.8-0.4,3.7-0.6,5.5c-0.6,5.3-3,10.6-1.6,15.8c0.3,1.1,0.7,2.1,0.5,3.1c-0.1,0.5-0.3,1-0.3,1.5c0.1,0.5,0.4,0.8,0.6,1.2
			c0.3,0.8,0,1.7-0.6,2.3c-0.6,0.5-1.3,1-2.1,1.3c-2.5,1.1-5,2.1-7.6,2.1c-0.3,0-0.7-0.1-0.9-0.2c-0.5-0.3-0.7-0.8-0.9-1.3l-1.3-3.3
			c-0.1-0.4-0.3-0.9-0.1-1.3c0.1-0.2,0.3-0.4,0.6-0.5c1.1-0.9,0.9-2.7,0.5-4.1c-0.7-3.5-1.1-7.2-1.2-10.9
			c-0.1-7.3,1.1-14.5,2.3-21.7c0.4-2.5,0.8-5,1.7-7.4c0.8-2.4,2.1-4.7,1.9-7.1c-0.2-2.7,0.5-5.5,0-8.1s-1.3-5.2-1.7-7.9
			c-0.7-3.4-0.8-6.9-1-10.4c-0.1-1.4-0.2-2.9-0.9-4.1c-0.4-0.7-0.9-1.3-1.4-2.1c-1.1-1.9-1.3-4.1-2.4-6c-0.5-0.9-1.2-1.7-1.6-2.6
			c-0.3-0.7-0.4-1.5-0.4-2.3c-0.1-2,0-4,0.3-6c5.7-2.9,11.9-4.3,18.2-4.2c2.4,0.1,4.9,0.3,7.1,1.1
			C275.5,251.8,277.5,252.9,279.8,253.1z"/>
		<path class="st2" d="M266.2,358.2c1,1.2,0.9,2.9,1.5,4.4c0.7,1.7,2.5,2.9,4.1,3.9l9.9,6.3c0.5,0.3,1.1,0.7,1.3,1.3
			c0.1,0.4,0.1,0.8-0.1,1.2c-0.5,1.7-1.8,3-3.5,3.5c-0.9,0.2-1.8,0.3-2.7,0.3l-4.5,0.1c-1.3,0.1-2.7,0-4.1-0.1
			c-1.3-0.2-2.5-0.5-3.7-0.7c-2.3-0.4-4.5-0.4-6.8-0.7c-1.4-0.3-2.7-0.6-4.1-1.1c-1.6-0.5-3.3-1-4.7-1.9c-0.4-0.2-0.7-0.6-0.9-1
			c-0.3-0.5-0.1-1.2,0-1.7l2.1-9.4c0.1-0.8,0.4-1.5,0.9-2.2c0.5-0.6,1.3-1.1,2.1-0.8c0.3,0.1,0.6,0.3,0.9,0.5
			c1.1,0.7,2.5,0.9,3.8,0.6c0.9-0.1,1.9-0.4,2.6-0.9c0.5-0.4,0.7-1.1,1.1-1.5c1.2-1.2,3.2-1.3,4.4-0.1
			C266.1,358,266.1,358.1,266.2,358.2z"/>
		<circle class="st5" cx="272.7" cy="165.3" r="12"/>
		<path class="st8" d="M281.9,166.1c-1.1-0.7-1.1-2.5-2.3-3.1c-1.2-0.6-2.5,0.5-3.3,1.5c-1.1,1.6-1.9,3.4-2.3,5.3
			c-0.1,0.5-0.2,1.1-0.6,1.5c-0.4,0.4-0.9,0.4-1.5,0.5c-1.5,0.1-3,0.3-4.5,0.4c-1.7,0.1-3.5,0.3-5-0.5c-0.6-0.3-1.1-0.7-1.5-1.3
			c-0.3-0.5-0.5-1.1-0.7-1.7c-0.8-3-1.6-6.1-1.7-9.2c0-1.3,0.1-2.6,0.7-3.7c0.3-0.7,0.9-1.3,1.1-2c0.2-0.7-0.3-1.7-1.1-1.6
			c0.7,0,1.3-0.1,2-0.4c0.6-0.3,1.1-1.1,0.8-1.7c1.7,0.2,2.9-1.5,4.2-2.5c0.2-0.2,0.5-0.3,0.8-0.3c0.2,0.1,0.5,0.1,0.7,0.3
			c0.7,0.2,1.3-0.2,2.1-0.4c1.8-0.5,4.1,0.7,5.5-0.6c-0.1,0.9,0.9,1.4,1.7,1.4c0.9,0,1.7-0.3,2.5-0.1c-0.5,0.8-0.1,1.8,0.7,2.3
			c0.1,0.1,0.2,0.1,0.3,0.1l-0.4,0.9c0.9,0.2,1.5,0.8,1.7,1.6c0.5,1.7,0.3,4.2,0.2,6C282.1,159.6,281.4,165.8,281.9,166.1z"/>
		<path class="st3" d="M271.7,180.8c6,6.7,7.5,16.3,8.8,25.3l1.9,13.2c0.5,3.4,1,6.9,1.4,10.3c0.3,2.3,0.6,4.7,0.3,7.1
			c-0.3,1.9-0.9,3.7-1.4,5.4c-1.3,4.7-2,9.5-2,14.4c-0.4-1.2-1.8-1.7-3-1.9c-10.2-2.2-21-1.1-30.5,3.3c-1.7-4.7-1.3-9.8-1.8-14.8
			c-0.7-7.1-2.9-13.9-3.6-21c-0.3-2.6-0.3-5.3-0.3-7.9c0-1.9-0.1-3.9,0.3-5.8c0.5-2.1,1.4-4.1,2.4-5.9c2.7-5.3,5.7-10.4,9.1-15.4
			c1.7-2.5,3.4-4.9,5.2-7.3c0.9-1.2,1.9-2.4,2.8-3.6c0.9-1.1,1.3-2.1,2.8-1.5C266.9,176,269.7,178.5,271.7,180.8z"/>
		<path class="st5" d="M268.3,237.1c1.5,0.1,2.9,0,4.4-0.1c1.1-0.1,2.2-0.3,3.3,0c0.5,0.1,0.9,0.3,1.3,0.6c0.4,0.3,0.4,0.9,0.1,1.3
			c-0.1,0.2-0.4,0.3-0.6,0.3l-1.1,0.1c-0.7,0.1-1.5,0.1-2,0.7c-0.2,0.2-0.4,0.5-0.4,0.8c-0.1,0.8,0.6,1.2,1.2,1.5
			c0.9,0.4,1.7,0.9,2.3,1.5c0.5,0.5,0.9,1.2,1,2c0,0.2-0.1,0.4-0.4,0.4c-0.1,0-0.1,0-0.2-0.1c-1.3-0.7-2.2-2.6-3.7-2.3
			c1.3,0.4,2.5,1.3,3.2,2.5c0.5,0.7,0.3,1.6-0.4,2.1c-0.5,0.3-1.1,0.3-1.5,0.1c-0.2-0.1-0.4-0.3-0.6-0.4c-1-0.8-1.9-1.7-2.6-2.7
			c1.1,2.3,2.1,4.9,0.9,7.1c-0.1,0.3-0.4,0.4-0.7,0.4c-0.4-0.1-0.5-0.4-0.5-0.7c-0.2-1-0.3-2.1-0.7-3c-1.1-2.1-4.1-2.3-6.2-3.3
			c-2.6-1.2-4.4-3.9-5.1-6.7c-0.3-0.8-0.3-1.7-0.1-2.5c0.5-1.9,2.8-2.3,4.3-1.4C264.9,236.3,265.9,237.1,268.3,237.1z"/>
		<path class="st7" d="M270.6,200c-2.3,3.6-6.3,5.6-9.8,8.1c-0.9,0.5-1.6,1.3-2.2,2.1c-0.9,1.3-1,3.1-0.8,4.7
			c0.2,2.1,0.9,4.1,1.5,6.1l1.5,4.3c0.9,2.7,1.9,5.5,3.6,7.9c0.5,0.6,1,1.2,0.9,1.9c-0.1,0.4-0.2,0.8-0.4,1.2
			c-1.1,1.9-2.9,3.1-5.1,3.6c-0.6,0.1-1.3,0.1-1.9,0c-0.9-0.3-1.6-1-2.2-1.7c-3-3.3-5.9-6.6-8.1-10.5c-2.1-3.8-3.3-7.9-4.5-12.1
			c-0.5-1.5-0.8-3.1-1-4.7c-0.3-3,0.5-5.9,1.8-8.7c1.3-2.7,3.1-5.1,4.9-7.5c1.7-2.3,3.6-4.5,5.7-6.5c3.6-3.4,8-5.3,12.9-3.5
			c3.4,1.3,4.7,4.2,5,7.8C272.6,195.2,271.9,197.8,270.6,200z"/>
		<path class="st3" d="M269.4,199.1c-2.3,3.6-6.3,5.6-9.8,8.1c-0.9,0.5-1.6,1.3-2.1,2.1c-0.9,1.3-1,3.1-0.8,4.7
			c0.2,2.1,0.9,4.1,1.6,6.1l1.5,4.3c0.9,2.7,1.9,5.5,3.6,7.9c0.5,0.6,0.9,1.2,0.9,1.9c-0.1,0.4-0.2,0.8-0.4,1.2
			c-1.1,1.9-2.9,3.1-5.1,3.6c-0.6,0.1-1.3,0.1-1.9,0c-0.9-0.3-1.5-1-2.2-1.7c-3-3.3-5.9-6.6-8.1-10.5c-2.1-3.8-3.3-7.9-4.5-12.1
			c-0.5-1.5-0.8-3.1-1-4.7c-0.3-3,0.5-5.9,1.8-8.7c1.3-2.7,3.1-5.1,4.9-7.5c1.7-2.3,3.6-4.5,5.7-6.5c3.6-3.3,8-5.3,12.9-3.5
			c3.4,1.3,4.7,4.2,5,7.8C271.4,194.3,270.7,196.9,269.4,199.1z"/>
	</g>
</g>
</svg>
