<?xml version="1.0" encoding="utf-8"?>
<!-- Generator: Adobe Illustrator 25.0.0, SVG Export Plug-In . SVG Version: 6.00 Build 0)  -->
<svg version="1.1" id="Layer_1" xmlns="http://www.w3.org/2000/svg" xmlns:xlink="http://www.w3.org/1999/xlink" x="0px" y="0px"
	 viewBox="0 0 700 400" style="enable-background:new 0 0 700 400;" xml:space="preserve">
<style type="text/css">
	.st0{fill:#069FCF;}
	.st1{opacity:0.2;enable-background:new    ;}
	.st2{fill:none;stroke:#E0E0E0;stroke-miterlimit:10;}
	.st3{fill:none;stroke:#E0E0E0;stroke-width:3;stroke-miterlimit:10;}
	.st4{fill:none;stroke:#535461;stroke-width:2;stroke-miterlimit:10;}
	.st5{fill:#E0E0E0;}
	.st6{opacity:0.5;fill:#FFFFFF;enable-background:new    ;}
	.st7{opacity:0.1;}
	.st8{fill:url(#SVGID_1_);}
	.st9{fill:url(#SVGID_2_);}
	.st10{fill:#F7BBC3;}
	.st11{opacity:0.1;enable-background:new    ;}
	.st12{fill:#565171;}
	.st13{fill:#B77983;}
	.st14{fill:#D39999;}
	.st15{fill:#B45181;}
	.st16{fill:#74585E;}
	.st17{fill:url(#SVGID_3_);}
	.st18{fill:none;stroke:#535461;stroke-miterlimit:10;}
	.st19{fill:url(#SVGID_4_);}
	.st20{fill:url(#SVGID_5_);}
</style>
<g>
	<path class="st0" d="M90.4,55.7c1.7,14.3,13.5,25.7,16.3,39.9c0.4,1.9,0.6,3.7,0.6,5.6c0.4,8.1-1.2,16.4-0.4,24.6
		c1.5,15.3,10.8,27.2,22.6,37.6c8.9,7.8,19.3,14.7,28.8,21.3c24.3,16.9,47,38.3,57,66.2c6.6,18.6,7.1,38.8,12,57.9
		c4.9,19.1,16,38.7,34.7,44.8c20.1,6.5,42.3-4.4,63-0.1c22.2,4.6,38,25.6,60,31.6c27.9,7.5,55.7-11,84.3-14.9
		c13.7-1.9,27.7-0.3,41.5-1.5c15.4-1.3,30.3-6.1,43.6-13.9c4.5-2.7,9.1-5.9,11.2-10.8c1.8-4.2,1.5-8.9,1-13.5
		c-2.1-16.8-7.4-35,0.9-49.8c7.7-13.6,26.2-23.4,23.5-38.7c-1.7-9.3-10.8-15-19.2-19.2c-17.4-8.5-35.9-15.2-51.5-26.8
		c-11.1-8.3-20.7-19.8-24.8-32.8c-1.7-5.2-2.4-10.6-2-16.1c0.6-8.6,3.5-18.2-1.6-25.1c-2.2-3-5.7-4.8-9.1-6.2
		c-13-5.3-27.5-5.6-41-9.3c-4.6-1.3-9.1-3.1-13.3-5.5c-8.3-4.8-14.9-11.8-16.5-21c-0.9-5.4-0.1-11.3-2.8-16
		c-4.5-8.1-13.5-11.5-23.5-12.6c-12.4-1.4-26.4,0.8-35.9,1.8l-0.9,0.1c-12.1,1.3-24.1-1.4-35.8-5.4c-12.7-4.3-25.1-10.2-37.2-14.4
		c-1.1-0.4-2.3-0.8-3.4-1.1c-8.8-2.8-17.9-4.9-27-6.3c-12.9-1.9-26-2.4-39-1.5c-6.6,0.5-13.2,1.3-19.7,2.6c-1.9,0.4-3.8,0.8-5.7,1.2
		c-11.1,2.4-22.1,5.3-33.4,5.4c-0.8,0-1.6,0-2.4,0c-13.5-0.2-27.3-3.7-40.1,0.5c-5.8,1.9-11.4,5.6-13.7,11.3
		C90.3,48.8,90,52.4,90.4,55.7z"/>
	<path class="st1" d="M107.4,101.2h11.6c0.4-6.2,4.3-11.5,10.1-13.6c-5.3-2.9-7.2-9.5-4.3-14.8s9.5-7.2,14.8-4.3
		c5.3,2.9,7.2,9.5,4.3,14.8c-1,1.8-2.5,3.3-4.3,4.3c5.8,2.1,9.8,7.5,10.1,13.6h0.1c0.5-6,4.5-11.1,10.1-13.2
		c-5.3-2.9-7.2-9.5-4.3-14.8c2.9-5.3,9.5-7.2,14.8-4.3c2.9,1.6,4.9,4.3,5.5,7.6c1.3-1.1,2.8-1.9,4.5-2.5c-5.3-2.9-7.2-9.5-4.3-14.8
		c2.9-5.3,9.5-7.2,14.8-4.3c5.3,2.9,7.2,9.5,4.3,14.8c-1,1.8-2.5,3.3-4.3,4.3c6.1,2.2,10.2,8,10.2,14.5v12.7h5v-10
		c0-6.5,4.1-12.3,10.2-14.5c-5.3-2.9-7.2-9.5-4.3-14.8s9.5-7.2,14.8-4.3s7.2,9.5,4.3,14.8c-1,1.8-2.5,3.3-4.3,4.3
		c4,1.5,7.2,4.5,8.9,8.4c1.8-2.6,4.4-4.6,7.4-5.6c-5.3-2.9-7.2-9.5-4.3-14.8c2.9-5.3,9.5-7.2,14.8-4.3c5.3,2.9,7.2,9.5,4.3,14.8
		c-1,1.8-2.5,3.3-4.3,4.3c3.3,1.2,6.1,3.5,7.9,6.5V84c0-6.5,4.1-12.3,10.2-14.5c-5.3-2.9-7.2-9.5-4.3-14.8s9.5-7.2,14.8-4.3
		c5.3,2.9,7.2,9.5,4.3,14.8c-1,1.8-2.5,3.3-4.3,4.3c6.1,2.2,10.2,8,10.2,14.5v17.2h5.4c1.7-3.8,4.9-6.7,8.8-8.2
		c-5.3-2.9-7.2-9.5-4.3-14.8s9.5-7.2,14.8-4.3c5.3,2.9,7.2,9.5,4.3,14.8c-1,1.8-2.5,3.3-4.3,4.3c1.1,0.4,2.1,0.9,3.1,1.5
		c0.8-5.7,4.7-10.5,10-12.4c-5.3-2.9-7.2-9.5-4.3-14.8s9.5-7.2,14.8-4.3c5.3,2.9,7.2,9.5,4.3,14.8c-1,1.8-2.5,3.3-4.3,4.3
		c4.6,1.7,8.1,5.5,9.5,10.2c1.7-1.9,3.9-3.4,6.3-4.3c-5.3-2.9-7.2-9.5-4.3-14.8s9.5-7.2,14.8-4.3c5.3,2.9,7.2,9.5,4.3,14.8
		c-1,1.8-2.5,3.3-4.3,4.3c1.7,0.6,3.2,1.5,4.6,2.6c1.7-4,4.9-7.1,9-8.5c-5.3-2.9-7.2-9.5-4.3-14.8c2.9-5.3,9.5-7.2,14.8-4.3
		c5.3,2.9,7.2,9.5,4.3,14.8c-1,1.8-2.5,3.3-4.3,4.3c6.1,2.2,10.2,8,10.2,14.5v4.5h27.4c4.2,2.4,8.6,4.2,13.3,5.5
		c13.5,3.7,28,4,41,9.3c3.5,1.4,6.9,3.2,9.1,6.2c5.2,6.9,2.2,16.5,1.6,25.1c-0.3,5.4,0.4,10.9,2,16.1H129.7
		c-11.8-10.3-21.1-22.3-22.6-37.6C106.2,117.7,107.8,109.4,107.4,101.2z"/>
	<polyline class="st2" points="541.3,59.3 541.3,235.3 532.2,229.4 532.2,59.3 526.8,59.3 524.5,223.5 515.9,217.2 521.8,57 	"/>
	<line class="st2" x1="552.7" y1="72" x2="515.9" y2="74"/>
	<line class="st2" x1="550.4" y1="81" x2="515.9" y2="82.4"/>
	<line class="st2" x1="550.4" y1="91.9" x2="515.9" y2="92.8"/>
	<line class="st2" x1="550.4" y1="101.9" x2="515.9" y2="103.3"/>
	<line class="st2" x1="550.4" y1="113.3" x2="514.6" y2="113.3"/>
	<line class="st2" x1="550.4" y1="124.6" x2="513.6" y2="123.3"/>
	<line class="st2" x1="550.4" y1="135" x2="513.6" y2="133.2"/>
	<line class="st2" x1="550.4" y1="146.4" x2="513.6" y2="143.7"/>
	<line class="st2" x1="551.3" y1="156.4" x2="512.3" y2="152.7"/>
	<line class="st2" x1="551.3" y1="167.7" x2="512.3" y2="161.8"/>
	<line class="st2" x1="551.3" y1="180.9" x2="510.9" y2="173.6"/>
	<line class="st2" x1="551.3" y1="195.9" x2="510.9" y2="184.1"/>
	<line class="st2" x1="552.2" y1="211.3" x2="509.6" y2="194.5"/>
	<line class="st2" x1="552.2" y1="225.4" x2="509.6" y2="204.5"/>
	<polyline class="st2" points="505.9,58.8 498.7,213.6 489.1,213.6 495,58.8 484.6,58.8 477.8,213.6 467.4,213.6 473.3,58.8 
		460.5,58.8 456,213.6 444.7,213.6 449.7,60.2 437.9,60.2 435.1,213.6 424.7,213.6 427.9,58.8 417.4,58.8 415.2,213.6 405.2,213.6 
		407.4,58.8 395.6,58.8 395.6,213.6 383.8,213.6 383.8,58.8 373,58.8 374.8,213.6 365.2,213.6 362.5,58.8 351.6,58.8 355.3,213.6 
		345.7,213.6 341.2,58.8 331.7,58.8 335.3,213.6 326.7,213.6 319.9,58.8 310.8,58.8 318,213.6 309,213.6 299,58.8 288.1,58.8 
		300.8,213.6 292.2,213.6 279.9,58.8 271.3,58.8 284,213.6 274.5,213.6 262.2,57 253.6,57 267.7,213.6 258.6,213.6 244.1,57 	"/>
	<polyline class="st2" points="223.6,59.3 237.3,216.3 230.5,221.7 220,59.3 212.8,59.3 220,227.6 209.6,234.4 205.5,57 	"/>
	<line class="st2" x1="195.5" y1="77" x2="237.3" y2="77"/>
	<line class="st2" x1="195.5" y1="88.3" x2="237.3" y2="88.3"/>
	<line class="st2" x1="195.5" y1="101" x2="237.3" y2="99.7"/>
	<line class="st2" x1="195.5" y1="111.9" x2="239.1" y2="109.6"/>
	<line class="st2" x1="195.5" y1="124.2" x2="239.1" y2="122.3"/>
	<line class="st2" x1="195.5" y1="137.3" x2="240.9" y2="135"/>
	<line class="st2" x1="195.5" y1="150" x2="240.9" y2="145.5"/>
	<line class="st2" x1="195.5" y1="164.5" x2="240.9" y2="153.7"/>
	<line class="st2" x1="195.5" y1="177.3" x2="242.7" y2="161.4"/>
	<line class="st2" x1="195.5" y1="190.4" x2="242.7" y2="172.3"/>
	<line class="st2" x1="194.1" y1="203.1" x2="241.1" y2="183.4"/>
	<line class="st2" x1="194.1" y1="217.6" x2="242.7" y2="193.1"/>
	<line class="st2" x1="194.1" y1="230.8" x2="244.1" y2="203.1"/>
	<line class="st2" x1="515.9" y1="72" x2="237.3" y2="74.2"/>
	<line class="st2" x1="515.7" y1="80.1" x2="237" y2="82.4"/>
	<line class="st2" x1="515.5" y1="88.3" x2="236.8" y2="90.6"/>
	<line class="st2" x1="515.2" y1="96.5" x2="236.6" y2="98.7"/>
	<line class="st2" x1="515" y1="104.6" x2="236.4" y2="106.9"/>
	<line class="st2" x1="514.8" y1="112.8" x2="239.8" y2="115.1"/>
	<line class="st2" x1="514.6" y1="121" x2="239.5" y2="123.3"/>
	<line class="st2" x1="514.3" y1="129.2" x2="239.3" y2="131.4"/>
	<line class="st2" x1="514.1" y1="137.3" x2="239.1" y2="139.6"/>
	<line class="st2" x1="513.9" y1="145.5" x2="241.6" y2="147.8"/>
	<line class="st2" x1="513.6" y1="153.7" x2="241.3" y2="155.9"/>
	<line class="st2" x1="513.4" y1="161.8" x2="241.1" y2="164.1"/>
	<line class="st2" x1="513.2" y1="170" x2="242.7" y2="172.3"/>
	<line class="st2" x1="513" y1="178.2" x2="242.5" y2="180.4"/>
	<line class="st2" x1="512.7" y1="186.3" x2="243.6" y2="188.6"/>
	<line class="st2" x1="512.5" y1="194.5" x2="243.4" y2="196.8"/>
	<line class="st2" x1="512.3" y1="202.7" x2="243.2" y2="204.9"/>
	<polyline class="st3" points="552.2,243.1 510.9,213.6 242.7,213.6 195.5,243.1 	"/>
	<path class="st4" d="M554.8,211.1c0,0,1-31,17.8-48.5c7.1-7.3,11.6-16.7,12.9-26.8c0.6-4.8,0.7-9.6,0.4-14.4"/>
	<path class="st0" d="M596.4,110.4c-1.1,3.5-10.7,11.4-10.7,11.4s-2.9-12.1-1.8-15.6c1.2-3.4,5-5.3,8.4-4.1
		C595.6,103.3,597.4,107,596.4,110.4L596.4,110.4z"/>
	<path class="st0" d="M600.4,133c-2.8,2.3-15.2,3.7-15.2,3.7s4.1-11.8,7-14c2.8-2.3,7-2,9.3,0.8c2.3,2.8,2,7-0.8,9.3
		C600.5,132.8,600.4,132.9,600.4,133L600.4,133z"/>
	<path class="st0" d="M589,165.5c-3.6,0.5-15-4.4-15-4.4s9.5-8.1,13.1-8.6c3.6-0.4,6.9,2.1,7.4,5.7
		C594.9,161.7,592.5,164.9,589,165.5L589,165.5z"/>
	<path class="st0" d="M574.9,188.3c-3.5,1.1-15.6-1.8-15.6-1.8s8-9.6,11.5-10.7c3.4-1.2,7.2,0.6,8.4,4.1c1.2,3.4-0.6,7.2-4.1,8.4
		C575.1,188.2,575,188.2,574.9,188.3L574.9,188.3z"/>
	<path class="st0" d="M571.8,133c1.7,3.2,12.4,9.6,12.4,9.6s1-12.4-0.7-15.7c-1.7-3.2-5.7-4.5-8.9-2.8
		C571.3,125.8,570.1,129.8,571.8,133L571.8,133z"/>
	<path class="st0" d="M555.6,159.8c2.6,2.6,14.7,5.4,14.7,5.4s-2.8-12.1-5.4-14.7c-2.6-2.5-6.8-2.5-9.3,0.1
		C553.1,153.2,553.1,157.2,555.6,159.8z"/>
	<path class="st0" d="M543.5,188c2.1,3,13.6,7.8,13.6,7.8s-0.7-12.4-2.8-15.4c-2.1-3-6.2-3.7-9.2-1.7c-3,2.1-3.7,6.2-1.7,9.2
		C543.4,187.9,543.4,188,543.5,188L543.5,188z"/>
	<path class="st4" d="M561.6,238.8c0,0,1-31,17.8-48.5c7.1-7.3,11.6-16.7,12.9-26.8c0.6-4.8,0.7-9.6,0.4-14.4"/>
	<path class="st0" d="M603.2,138c-1.1,3.5-10.7,11.4-10.7,11.4s-2.9-12.1-1.8-15.6c1.2-3.4,5-5.3,8.4-4.1
		C602.4,131,604.2,134.6,603.2,138L603.2,138z"/>
	<path class="st0" d="M607.2,160.6c-2.8,2.3-15.2,3.7-15.2,3.7s4.1-11.8,7-14c2.8-2.3,7-2,9.3,0.8c2.3,2.8,2,7-0.8,9.3
		C607.3,160.5,607.2,160.6,607.2,160.6L607.2,160.6z"/>
	<path class="st0" d="M595.8,193.2c-3.6,0.5-15-4.4-15-4.4s9.5-8.1,13.1-8.6c3.6-0.4,6.9,2.1,7.4,5.7
		C601.7,189.4,599.3,192.6,595.8,193.2L595.8,193.2z"/>
	<path class="st0" d="M581.7,216c-3.5,1.1-15.6-1.8-15.6-1.8s8-9.6,11.5-10.7c3.4-1.2,7.2,0.6,8.4,4.1c1.2,3.4-0.6,7.2-4.1,8.4
		C581.9,215.9,581.8,215.9,581.7,216L581.7,216z"/>
	<path class="st0" d="M578.6,160.7c1.7,3.2,12.4,9.6,12.4,9.6s1-12.4-0.7-15.7c-1.7-3.2-5.7-4.5-8.9-2.8
		C578.1,153.5,576.9,157.4,578.6,160.7L578.6,160.7z"/>
	<path class="st0" d="M562.4,187.5c2.6,2.6,14.7,5.4,14.7,5.4s-2.8-12.1-5.4-14.7c-2.6-2.5-6.8-2.5-9.3,0.1
		C559.9,180.9,559.9,184.9,562.4,187.5z"/>
	<path class="st0" d="M550.3,215.7c2.1,3,13.6,7.8,13.6,7.8s-0.7-12.4-2.8-15.4c-2.1-3-6.2-3.7-9.2-1.7c-3,2.1-3.7,6.2-1.7,9.2
		C550.2,215.6,550.3,215.6,550.3,215.7L550.3,215.7z"/>
	<path class="st5" d="M188.9,73.3c0.2-8.8,6.3-16.5,14.9-18.4l0.2,0c0.3-0.1,0.7-0.1,1.1-0.1h339.6c5.1,0,9.9,2.6,12.5,7l0.1,0.1
		c0.5,0.9,0.8,1.9,0.8,2.9l3.2,178.4h-10.9l-3.6-174.3c0,0,0-5-4.5-5.4c-0.7-0.1-9.1-0.1-22.9-0.1l-8,150.8h-4.5l8.9-150.8
		c-60.5-0.1-208.6,0-277.3,0.1l8.8,149.8h-4.5l-7.9-149.8l-26.2,0c-3.9,0-7.5,2.1-9.5,5.4L195.5,243h-10.9L188.9,73.3z"/>
	<path class="st4" d="M184.6,246.7c0,0-1.5-24,10.2-38.7c4.9-6.2,7.7-13.7,8-21.6c0.1-3.7-0.2-7.5-0.8-11.2"/>
	<path class="st0" d="M209.2,165.9c-0.6,2.8-7.4,9.6-7.4,9.6s-3.2-9.1-2.5-11.9c0.6-2.8,3.4-4.5,6.1-3.9
		C208.1,160.4,209.9,163.1,209.2,165.9L209.2,165.9L209.2,165.9z"/>
	<path class="st0" d="M214,183c-2,2-11.5,4-11.5,4s2.3-9.4,4.3-11.3c2-2,5.3-1.9,7.2,0.1C216.1,177.8,216,181.1,214,183L214,183
		L214,183z"/>
	<path class="st0" d="M207.6,209c-2.7,0.7-11.9-2.3-11.9-2.3s6.7-6.9,9.5-7.6c2.7-0.7,5.5,1,6.2,3.7S210.4,208.3,207.6,209
		L207.6,209z"/>
	<path class="st0" d="M198.4,227.6c-2.6,1.1-12.1-0.3-12.1-0.3s5.4-8,8.1-9.1c2.6-1.2,5.6-0.1,6.8,2.5c1.2,2.6,0.1,5.6-2.5,6.8
		C198.5,227.6,198.5,227.6,198.4,227.6L198.4,227.6z"/>
	<path class="st0" d="M191.9,185.2c1.5,2.4,10.3,6.5,10.3,6.5s-0.2-9.7-1.7-12c-1.5-2.4-4.7-3-7.1-1.5
		C191.1,179.7,190.4,182.8,191.9,185.2z"/>
	<path class="st0" d="M181.4,207c2.2,1.8,11.7,3.1,11.7,3.1s-3-9.2-5.2-11c-2.2-1.8-5.4-1.5-7.2,0.7S179.2,205.2,181.4,207
		L181.4,207z"/>
	<path class="st0" d="M174.1,229.7c1.8,2.1,11.1,5,11.1,5s-1.4-9.5-3.3-11.7c-1.8-2.1-5.1-2.4-7.2-0.6
		C172.5,224.3,172.3,227.6,174.1,229.7L174.1,229.7z"/>
	<path class="st6" d="M209.2,165.9c-0.6,2.8-7.4,9.6-7.4,9.6s-3.2-9.1-2.5-11.9c0.6-2.8,3.4-4.5,6.1-3.9
		C208.1,160.4,209.9,163.1,209.2,165.9L209.2,165.9L209.2,165.9z"/>
	<path class="st6" d="M214,183c-2,2-11.5,4-11.5,4s2.3-9.4,4.3-11.3c2-2,5.3-1.9,7.2,0.1C216.1,177.8,216,181.1,214,183L214,183
		L214,183z"/>
	<path class="st6" d="M207.6,209c-2.7,0.7-11.9-2.3-11.9-2.3s6.7-6.9,9.5-7.6c2.7-0.7,5.5,1,6.2,3.7S210.4,208.3,207.6,209
		L207.6,209z"/>
	<path class="st6" d="M198.4,227.6c-2.6,1.1-12.1-0.3-12.1-0.3s5.4-8,8.1-9.1c2.6-1.2,5.6-0.1,6.8,2.5c1.2,2.6,0.1,5.6-2.5,6.8
		C198.5,227.6,198.5,227.6,198.4,227.6L198.4,227.6z"/>
	<path class="st6" d="M191.9,185.2c1.5,2.4,10.3,6.5,10.3,6.5s-0.2-9.7-1.7-12c-1.5-2.4-4.7-3-7.1-1.5
		C191.1,179.7,190.4,182.8,191.9,185.2z"/>
	<path class="st6" d="M181.4,207c2.2,1.8,11.7,3.1,11.7,3.1s-3-9.2-5.2-11c-2.2-1.8-5.4-1.5-7.2,0.7S179.2,205.2,181.4,207
		L181.4,207z"/>
	<path class="st6" d="M174.1,229.7c1.8,2.1,11.1,5,11.1,5s-1.4-9.5-3.3-11.7c-1.8-2.1-5.1-2.4-7.2-0.6
		C172.5,224.3,172.3,227.6,174.1,229.7L174.1,229.7z"/>
	<g class="st7">
		
			<linearGradient id="SVGID_1_" gradientUnits="userSpaceOnUse" x1="992.5246" y1="194.9624" x2="992.5246" y2="195.0759" gradientTransform="matrix(-1 0 0 -1 1256.2 349.45)">
			<stop  offset="0" style="stop-color:#808080;stop-opacity:0.25"/>
			<stop  offset="0.54" style="stop-color:#808080;stop-opacity:0.12"/>
			<stop  offset="1" style="stop-color:#808080;stop-opacity:0.1"/>
		</linearGradient>
		<path class="st8" d="M263.7,154.5c-0.1-0.1-0.1-0.1-0.1-0.1L263.7,154.5z"/>
	</g>
	
		<linearGradient id="SVGID_2_" gradientUnits="userSpaceOnUse" x1="873.4795" y1="41.4897" x2="873.4795" y2="219.159" gradientTransform="matrix(-1 0 0 -1 1256.2 349.45)">
		<stop  offset="0" style="stop-color:#808080;stop-opacity:0.25"/>
		<stop  offset="0.54" style="stop-color:#808080;stop-opacity:0.12"/>
		<stop  offset="1" style="stop-color:#808080;stop-opacity:0.1"/>
	</linearGradient>
	<path class="st9" d="M338.8,160.7c-0.1,2.9,1.7,4,1.7,4l16.7,14.8c6.5,2.3,7.3,14.6,7.3,14.6c0.6,1.1,0.9,3.1,0.9,5.4
		c-0.1,7.3-2.1,17.4-2.1,17.4l0.1,0.1l-0.1,0.3l0.1,0.1l-0.1,0.3c0.3,0.5,0.7,1,1,1.5c-1.8,3.7-5.2,9.7-6.7,11
		c-2,1.8-6.1,14.8-6.1,14.8l0.1,0l-0.1,0.4h0.1c-1,1.9-2,4.3-2.2,6.7c-0.1,1.6-0.5,3.1-1,4.6c-0.6,1.7-0.6,3.6-0.1,5.4
		c0.4,1.4,0.7,2.9,0.8,4.4c0.3,2.8,1,5.6,2.1,8.2c1.8,4.4,4.3,10.4,4.4,11.6c0.1,0.7,0.2,1.6,0.4,2.6l-0.1,0l-4.3,9.8
		c0,0-1.2,2.7-3.6,2.7c-0.9,0-1.7,0.7-1.7,1.7c0,0.1,0,0.1,0,0.2c0,0.3,0,0.6,0.1,0.8l0,0v0c0,0,0,0.1,0.1,0.1l0,0.1
		c0,0,0,0.1,0.1,0.1l0.1,0.1l0.1,0.1l0.1,0.1l0.1,0.1l0.1,0.1l0.1,0.1l0.1,0.1l0.2,0.1l0.1,0.1l0.2,0.1l0.1,0.1l0.2,0.1l0.2,0.1
		l0.2,0.1l0.2,0.1l0.2,0.1l0.2,0l0.3,0l0.2,0l0.3,0l0.2,0h0.3h0.2h0.6h0.4h0.2c0.2,0,0.5,0,0.7-0.1c7.9-0.8,13.7-6.8,13.7-6.8v-0.1
		V299l0,0v-0.1l0,0c0,0-0.5-7.8-3.4-9.6c-0.3-1.5-0.4-2.9-0.5-4.4c0-5.4,1.6-10.9-2.8-19.9c0,0-0.2-2.3,1.4-5.8
		c0.9-1.9,2-3.7,3.1-5.5l0.2,0l-0.3,0.4c0,0,5.3-0.4,5.7-3.9c0-0.3,0.1-0.6,0.2-0.9c1.2-3.5,7.1-8.5,9.7-8.9
		c2.8-0.4,8.5,6.2,10.7,10.9c0.1,0.3,0.3,0.5,0.4,0.8c2.2,3.8,4.9,3,4.9,3c-0.1-0.1-0.2-0.2-0.3-0.3c0.1,0,0.2,0,0.3-0.1
		c-0.2-0.3-0.5-0.6-0.7-0.9c2,2.2,4.2,4.2,5.1,5.4c2,2.5,1,4.3,1,5.1c0,3.5-4.6,13.8-3.4,19.5c0.6,2.8-0.1,6.1-0.9,8.7h-0.2
		c-3.4,1.3-3.8,6-3.8,8.3c0,0.1,0,0.1,0,0.2l0,0c0,0.1,0,0.2,0,0.3v0.1c0,0.1,0,0.2,0,0.3v0.1c0,0.1,0,0.2,0,0.3l0,0
		c0,0.1,0,0.2,0,0.2v0v0.1v0v0.1v0c0,0,9.7,4.3,18,5.4c0.3,0,0.6,0.1,0.8,0.1h0.2l0.5,0h0.7h0.2c0.2,0,0.3,0,0.5,0h0.1
		c0.2,0,0.4-0.1,0.5-0.1l0.1,0c0.1,0,0.2-0.1,0.4-0.1l0.1,0l0.3-0.1l0.1-0.1c0.1,0,0.2-0.1,0.2-0.1l0.1-0.1c0.1-0.1,0.2-0.1,0.3-0.2
		l0,0c0.1-0.1,0.2-0.1,0.2-0.2l0.1-0.1c0-0.1,0.1-0.1,0.1-0.2l0.1-0.1c0-0.1,0.1-0.1,0.1-0.2l0-0.1c0-0.1,0-0.1,0.1-0.2V306
		c0-0.1,0-0.2,0-0.3c0,0,0,0,0,0c0-0.1,0-0.1,0-0.2c0,0,0-0.1,0-0.1l0,0c0.1-1.2-0.8-2.4-1.8-2.2c-2,0.4-4.6-2-4.6-2l-5.5-9
		c-0.1-2.1,0.1-4.8,1.5-7c2.6-4.3,5.9-13.5,5.9-13.5s-0.4-5.7,1.2-8.4c1.6-2.7,0-7,0-7l-4.9-9.5c0.6,0,0.9,0,0.9,0l-0.2-0.4h0.2
		c0,0-6.1-13.5-8.5-15c-1.7-1.1-4.2-7.4-5.4-10.9c0.5-0.3,0.8-0.5,0.8-0.5s1.4-17,1.4-27.7s7.3-15,7.3-15l16.8-10
		c4.4-1.8,5.1-6.2,5.1-6.2l0-0.1c0-0.2,0-0.3,0-0.3l0-0.1c0-0.2,0-0.3,0-0.3l-8.1-20.7c0,0.1,0,0.1-0.1,0.2
		c-0.6-3.6-2.3-9.1-7.8-9.5c-8.1-0.6-10.9,3.5-9.3,3.9c1.6,0.4,8.5,3.1,8.5,3.1l2.7,4.4c-0.2-0.1-0.3-0.1-0.3-0.1
		c0.2,0.1,0.3,0.2,0.4,0.3l0.2,0.3c-0.4-0.1-0.6-0.2-0.6-0.2c0,0,0.1,0,0.1,0.1c0,0,0.1,0,0.1,0.1c0,0,0.1,0.1,0.1,0.1
		c0,0,0.1,0.1,0.1,0.1c0,0,0.1,0.1,0.1,0.1l0.1,0.1c-0.2-0.1-0.4-0.1-0.6-0.2c2.1,0.7,3,13.5,3.2,16.8l-10.5,4.7
		c0,0-10.5,0-14.9,2.5c-3.9,2.2-5.8,0.4-6.2-0.1c0.3,0.3,0.5,0.7,0.7,1l0,0l-0.1-0.1l-0.1-0.1l-0.1-0.1l-0.1-0.1l0,0
		c-0.9-1.7-1.5-3.6-1.8-5.5c1-2.4,0.9-5.1-0.1-7.4c0.2,0.1,0.4,0.2,0.6,0.3c-0.5-0.8-0.8-1.8-0.9-2.7c-0.1-1.1,0.2-2.2-0.2-3.2
		c0-0.1-0.1-0.2-0.2-0.3c0,0,0-0.1,0-0.1c-0.5-1-1.6-1.5-2.3-2.4c-0.5-0.6-0.7-1.3-1.1-1.9c-1.1-1.4-3.1-2-4.8-1.3
		c-0.7,0.3-1.3,0.7-2,0.7c-0.4,0-0.7-0.1-1.1-0.2c-2.2-0.5-4.5,0-6.4,1.2c-1.9,1.2-3.3,3-4.2,5c-0.5,1-0.8,2.1-0.9,3.2
		c-0.1,1.2,0,2.3,0.1,3.5c0,1.9-0.2,3.9,0.6,5.6c0,0.1,0.1,0.2,0.2,0.3c0,0,0,0.1,0,0.1c0.8,1.6,2.4,2.7,3.9,3.8l2,1.3l0.2,0.1
		c-0.6-0.1-1.1-0.1-1.7,0c-3,0.2-9.1-2.7-9.1-2.7l-6.3-5.7l3.1-12.6l-0.1,0.1l0.1-0.5l-0.1,0.1l0.1-0.5c-0.1,0-0.1,0.1-0.2,0.1
		l3.2-5.2c0,0,6.9-2.7,8.5-3.1c1.6-0.4-1.2-4.5-9.3-3.9c-5.9,0.4-7.5,7-7.9,10.4c-0.3-0.4-0.6-0.7-0.6-0.7l-5.7,13.4
		c-0.6,1.3-0.9,2.6-0.9,4C338.7,160.4,338.7,160.6,338.8,160.7z M384.5,167.5l0.2,0.2l0,0L384.5,167.5z M368.3,167.5
		c0.5-0.1,0.9-0.4,1.2-0.8c0.5,0.2,1,0.3,1.6,0.5c-0.1,0.5-0.3,1-0.6,1.4c-0.1-0.3-0.1-0.5-0.1-0.5
		C369.7,167.9,369,167.7,368.3,167.5L368.3,167.5z M364.9,252.5c0.5-0.7,0.9-1.4,1.4-2.1C365.9,251.1,365.4,251.8,364.9,252.5z"/>
	<path class="st10" d="M406.2,244.3l5.8,11.6c0,0,1.5,4.2,0,6.9c-1.5,2.7-1.2,8.3-1.2,8.3s-3.1,9.1-5.6,13.3c-2.5,4.2-1,10.4-1,10.4
		l-10,1.2c0,0,3.9-7.5,2.7-13.1c-1.1-5.6,3.3-15.8,3.3-19.3c0-0.8,1-2.5-1-5c-1.9-2.5-9.3-8.9-9.1-12.5L406.2,244.3z"/>
	<path class="st10" d="M355,241.6c0,0-3.7,5.1-4.1,10.1c-0.1,1.6-0.4,3.1-0.9,4.6c-0.6,1.7-0.6,3.6-0.1,5.4c0.4,1.4,0.6,2.9,0.8,4.3
		c0.2,2.8,0.9,5.6,2,8.2c1.8,4.3,4.1,10.3,4.2,11.5c0.2,1.9,1.2,6.6,1.2,6.6l7.7,2.9c0,0-2.3-5.6-2.3-11s1.5-10.8-2.7-19.7
		c0,0-0.2-2.3,1.4-5.8c1.6-3.5,7.5-12.5,7.5-12.5L355,241.6z"/>
	<path class="st11" d="M367.5,248.5c0.6,0.7-2.6,5.1-2.6,5.1s5-0.4,5.4-3.9c0-0.3,0.1-0.6,0.2-0.8c1.2-3.5,6.8-8.4,9.3-8.8
		c2.7-0.4,8.1,6.2,10.2,10.8c0.1,0.3,0.2,0.5,0.4,0.7c2.1,3.8,4.6,2.9,4.6,2.9c-1.4-1.7-1.6-3-1.2-4.1c1.7-4.2,14.3-4,14.3-4
		s-5.8-13.3-8.1-14.9s-6-13.1-6-13.1s-27.6-3.1-27.8-1.7c-0.2,1.3-5.6,12-7.5,13.7c-1.9,1.7-5.8,14.7-5.8,14.7
		C359.5,243.2,366.7,247.9,367.5,248.5L367.5,248.5z"/>
	<path class="st12" d="M367.5,248.1c0.6,0.7-2.6,5.1-2.6,5.1s5-0.4,5.4-3.9c0-0.3,0.1-0.6,0.2-0.8c1.2-3.5,6.8-8.4,9.3-8.8
		c2.7-0.4,8.1,6.2,10.2,10.8c0.1,0.3,0.2,0.5,0.4,0.7c2.1,3.8,4.6,2.9,4.6,2.9c-1.4-1.7-1.6-3-1.2-4.1c1.7-4.2,14.3-4,14.3-4
		s-5.8-13.3-8.1-14.9s-6-13.1-6-13.1s-27.6-3.1-27.8-1.7c-0.2,1.3-5.6,12-7.5,13.7c-1.9,1.7-5.8,14.7-5.8,14.7
		C359.5,242.8,366.7,247.5,367.5,248.1L367.5,248.1z"/>
	<path class="st11" d="M403.8,291.3l5.3,9c0,0,2.5,2.3,4.4,1.9c1.9-0.4,3.9,5.4-4.1,4.2c-7.9-1.2-17.2-5.4-17.2-5.4
		s-0.9-7.8,3.6-9.5L403.8,291.3z"/>
	<path class="st11" d="M357.1,288.2l-4.1,9.7c0,0-1.2,2.7-3.5,2.7s-3.1,4.8,4.4,4.1c7.5-0.8,13.1-6.8,13.1-6.8s-0.6-9.3-4.1-9.8
		C361,287.8,359,287.8,357.1,288.2z"/>
	<path class="st13" d="M403.8,291.7l5.3,9c0,0,2.5,2.3,4.4,1.9c1.9-0.4,3.9,5.4-4.1,4.2c-7.9-1.2-17.2-5.4-17.2-5.4
		s-0.9-7.8,3.6-9.5L403.8,291.7z"/>
	<path class="st13" d="M357.1,288.6l-4.1,9.7c0,0-1.2,2.7-3.5,2.7s-3.1,4.8,4.4,4.1c7.5-0.8,13.1-6.8,13.1-6.8s-0.6-9.3-4.1-9.8
		C361,288.2,359,288.2,357.1,288.6z"/>
	<g class="st7">
		<path d="M367.2,216.4c-0.2,1.4-5.6,12-7.5,13.7c-1.8,1.6-5.2,12.6-5.7,14.4c-0.3,0.1-0.7,0.1-1,0.2c0,0,3.9-12.9,5.8-14.7
			c1.9-1.7,7.3-12.3,7.5-13.7c0-0.3,1.2-0.4,2.9-0.3C368,216.1,367.2,216.1,367.2,216.4z"/>
		<path d="M380.7,239.7c2.7-0.4,8.1,6.2,10.2,10.8c0.1,0.3,0.2,0.5,0.4,0.7c1.2,2.2,2.6,2.8,3.5,3c-0.6,0.1-2.7,0.2-4.5-3
			c-0.1-0.2-0.2-0.5-0.4-0.7c-1.9-4.2-6.6-10.1-9.5-10.8L380.7,239.7z"/>
		<path d="M367.5,248.1L367.5,248.1c-0.7-0.5-5.5-3.7-10.8-3.9c5.7-0.2,11,3.3,11.7,3.8l0,0c0.6,0.6-1.9,4.1-2.5,4.9
			c-0.4,0.1-0.7,0.1-1.1,0.2C364.9,253.2,368.2,248.8,367.5,248.1z"/>
	</g>
	<path class="st10" d="M417.2,143.6c0,0,0-11.8-7.7-12.3c-7.7-0.6-10.4,3.5-8.9,3.9c1.6,0.4,8.1,3.1,8.1,3.1l4.2,7.1L417.2,143.6z"
		/>
	<path class="st10" d="M347.3,146.3c0,0,0-11.8,7.7-12.3c7.7-0.6,10.4,3.5,8.9,3.9s-8.1,3.1-8.1,3.1l-4.2,7.1L347.3,146.3z"/>
	<path class="st10" d="M382.2,158.5c0,0-0.6,7.7,4.2,12.2s-11.2,10-11.2,10l-7.1-8.5c0,0,5.8-3.5,2.7-9.5L382.2,158.5z"/>
	<path class="st11" d="M383.8,167.6c0,0,1.7,2.7,6,0.2c4.2-2.5,14.3-2.5,14.3-2.5l10-4.6c0,0-0.8-16.6-3.1-17.4c0,0,4.6,1.9,6-1.9
		l7.7,20.4c0,0-0.6,4.4-4.8,6.2l-16,9.8c0,0-6.9,4.2-6.9,14.9c0,10.6-1.4,27.4-1.4,27.4s-22.4,13.5-31.4-2.3c0,0,3.7-18.7,1.2-23.3
		c0,0-0.8-12.2-6.9-14.5l-16-14.7c0,0-3.1-1.9-0.8-7.5l5.4-13.3c0,0,3.3,4.6,6,2.3l-3.1,13.1l6.2,5.8c0,0,5.8,2.9,8.7,2.7
		c2.9-0.2,6.2,1.2,6.2,1.2s1.4,7.7,7.5,6.9C378.4,176.4,390.2,175.9,383.8,167.6z"/>
	<path class="st11" d="M383.8,166.8c0,0,1.7,2.7,6,0.2c4.2-2.5,14.3-2.5,14.3-2.5l10-4.6c0,0-0.8-16.6-3.1-17.4c0,0,4.6,1.9,6-1.9
		l7.7,20.4c0,0-0.6,4.4-4.8,6.2l-16,9.8c0,0-6.9,4.2-6.9,14.9s-1.4,27.4-1.4,27.4s-22.4,13.5-31.4-2.3c0,0,3.7-18.7,1.2-23.3
		c0,0-0.8-12.2-6.9-14.5l-16-14.7c0,0-3.1-1.9-0.8-7.5l5.4-13.3c0,0,3.3,4.6,6,2.3l-3.1,13.1l6.2,5.8c0,0,5.8,2.9,8.7,2.7
		c2.9-0.2,6.2,1.2,6.2,1.2s1.4,7.7,7.5,6.9C378.4,175.7,390.2,175.1,383.8,166.8z"/>
	<path class="st14" d="M383.8,167.2l0.1,0.1L383.8,167.2z"/>
	<path class="st15" d="M342.3,164.9l16,14.7c6.2,2.3,6.9,14.5,6.9,14.5c2.5,4.6-1.2,23.3-1.2,23.3c9.1,15.8,31.4,2.3,31.4,2.3
		s0-0.6,0.1-1.5c0.1-0.9,0.1-2,0.2-3.4c0.1-1.8,0.3-4,0.4-6.4c0.3-5.2,0.6-11.3,0.6-16c0-10.6,6.9-14.9,6.9-14.9l12-7.4l4-2.5
		c4.2-1.7,4.8-6.2,4.8-6.2l-7.7-20.4c-1.3,3.6-5.4,2.2-5.9,2c2.3,1,3,17.3,3,17.3l-10,4.6c0,0-10,0-14.3,2.5c-3.6,2.1-5.4,0.5-5.9,0
		c6.1,8.2-5.5,8.7-5.5,8.7c-6.2,0.8-7.5-6.9-7.5-6.9s-3.3-1.4-6.2-1.2c-2.9,0.2-8.7-2.7-8.7-2.7l-6.2-5.8l3.1-13.1
		c-2.7,2.3-6-2.3-6-2.3l-5.4,13.3C339.2,162.9,342.3,164.9,342.3,164.9z"/>
	<path class="st11" d="M382.2,159.3c-0.1,1.2,0,2.4,0.2,3.6c-1.7,4.3-6.4,6.7-10.9,5.7c0.4-1.7,0.2-3.5-0.7-5.1L382.2,159.3z"/>
	<circle class="st10" cx="373.7" cy="158.6" r="9.5"/>
	<path class="st11" d="M373.8,153.2c0.1,1,0.1,2-0.3,2.8c-0.2,0.4-0.6,0.8-0.9,1.2l-2,2c-0.6,0.5-1.1,1.2-1.4,2
		c-0.6,1.9,1.1,3.8,1.1,5.8c-0.6,1-1.8,1.4-2.9,1.1c-0.4-0.2-0.8-0.4-1.2-0.7l-1.9-1.3c-1.5-1-3-2.1-3.8-3.7
		c-0.8-1.7-0.5-3.7-0.5-5.6c-0.1-1.1-0.1-2.3,0-3.4c0.1-1.1,0.4-2.2,0.9-3.1c0.9-2,2.3-3.7,4-4.9c1.8-1.2,4-1.6,6.2-1.2
		c0.3,0.1,0.7,0.2,1,0.2c0.7,0,1.3-0.5,1.9-0.7c1.6-0.6,3.5-0.1,4.6,1.3c0.4,0.6,0.7,1.3,1.1,1.9c0.6,0.9,1.7,1.4,2.1,2.4
		c0.4,1,0.1,2.1,0.2,3.1c0.1,0.9,0.4,1.9,0.9,2.7c-1.1-0.4-1.6-1.5-2.3-2.4c-1.1-1.3-2.7-2.2-4.4-2.2c-0.6,0-1.7-0.1-2.2,0.4
		C373.4,151.3,373.8,152.5,373.8,153.2z"/>
	<path class="st16" d="M373.6,152.8c0.1,1,0.1,2-0.3,2.8c-0.2,0.4-0.6,0.8-0.9,1.2l-2,2c-0.6,0.5-1.1,1.2-1.4,2
		c-0.6,1.9,1.1,3.8,1.1,5.8c-0.6,1-1.8,1.4-2.9,1.1c-0.4-0.2-0.8-0.4-1.2-0.7l-1.9-1.3c-1.5-1-3-2.1-3.8-3.7
		c-0.8-1.7-0.5-3.7-0.5-5.6c-0.1-1.1-0.1-2.3,0-3.4c0.1-1.1,0.4-2.2,0.9-3.1c0.9-2,2.3-3.7,4-4.9c1.8-1.2,4-1.6,6.2-1.2
		c0.3,0.1,0.7,0.2,1,0.2c0.7,0,1.3-0.5,1.9-0.7c1.6-0.6,3.5-0.1,4.6,1.3c0.4,0.6,0.7,1.3,1.1,1.9c0.6,0.9,1.7,1.4,2.1,2.4
		c0.4,1,0.1,2.1,0.2,3.1c0.1,0.9,0.4,1.9,0.9,2.7c-1.1-0.4-1.6-1.5-2.3-2.4c-1.1-1.3-2.7-2.2-4.4-2.2c-0.6,0-1.7-0.1-2.2,0.4
		C373.2,150.9,373.5,152.1,373.6,152.8z"/>
	<g class="st7">
		<path d="M383.9,167.3c-0.1-0.1-0.1-0.1-0.1-0.1L383.9,167.3z"/>
		<path d="M351.2,147c0.6,0,1.3-0.2,1.7-0.6l-0.2,0.8C352.2,147.2,351.7,147.2,351.2,147z"/>
		<path d="M385.4,168.3c4.8,7.4-6,8-6,8c-0.8,0.1-1.7,0.1-2.5-0.2c0.5,0.1,1,0.1,1.5,0c0,0,11.7-0.6,5.5-8.8
			C384.3,167.8,384.8,168.1,385.4,168.3z"/>
		<path d="M365.7,168.1c-0.8,0-1.6-0.1-2.3-0.3c0.4,0.1,0.9,0.1,1.4,0.1c1.2-0.1,2.4,0.1,3.6,0.4
			C367.4,168.2,366.5,168.1,365.7,168.1z"/>
		<path d="M341.5,157.3l5.4-13.3c0.2,0.3,0.5,0.6,0.7,0.8l-5.1,12.6c-2.3,5.6,0.8,7.5,0.8,7.5l16,14.7c6.2,2.3,6.9,14.5,6.9,14.5
			c2.5,4.6-1.2,23.3-1.2,23.3c2.4,4.2,5.8,6.4,9.5,7.2c-4-0.7-7.8-2.8-10.4-7.4c0,0,3.7-18.7,1.2-23.3c0,0-0.8-12.2-6.9-14.5
			l-16-14.6C342.3,164.9,339.2,162.9,341.5,157.3z"/>
		<path d="M411,142.9c0.4,0.2,0.8,0.3,1.2,0.3c2.1,1.9,2.8,17.2,2.8,17.2l-10,4.6c0,0-10,0-14.3,2.5c-2.1,1.2-3.6,1.2-4.5,0.9
			c0.9,0.1,2.1-0.2,3.6-1.1c4.2-2.5,14.3-2.5,14.3-2.5l10-4.6C414.1,160.2,413.3,143.6,411,142.9z"/>
		<path d="M412.7,143.3c1.5,0.2,3.5,0,4.3-2.4l0.5,1.2C416.2,143.9,413.8,143.6,412.7,143.3z"/>
	</g>
	<path class="st11" d="M396.3,208.3c0.3-5.2,0.6-11.3,0.6-16c0-10.6,6.9-14.9,6.9-14.9l12-7.4c-7,1.8-16.3,4.9-17.1,8.6
		c-1.4,6-3.9,6.6-2.9,16.8C396.2,199.7,396.4,204,396.3,208.3z"/>
	<path class="st11" d="M394.5,223c0,0-1.7,5.4,3.1,8.9"/>
	<path class="st11" d="M367.5,223c0,0-0.6,4.1-2.9,5.6"/>
	<path class="st11" d="M392.3,300.7c0,0,9.3,4.2,17.2,5.4c4,0.6,5.5-0.6,5.7-1.9c0.3,1.5-0.9,3.4-5.7,2.7
		c-7.9-1.2-17.2-5.4-17.2-5.4c-0.1-0.6-0.1-1.3-0.1-1.9C392.2,300.2,392.3,300.7,392.3,300.7z"/>
	<path class="st11" d="M353.7,304.7c7.5-0.8,13.1-6.8,13.1-6.8s-0.3-4.6-1.7-7.5c1.5,2.9,1.9,7.9,1.9,7.9s-5.6,6-13.1,6.8
		c-3.8,0.4-5.5-0.7-5.9-1.8C348.6,304.3,350.3,305.1,353.7,304.7z"/>
	
		<linearGradient id="SVGID_3_" gradientUnits="userSpaceOnUse" x1="876.4385" y1="225.517" x2="876.4385" y2="259.5545" gradientTransform="matrix(-1 0 0 -1 1256.2 349.45)">
		<stop  offset="0" style="stop-color:#808080;stop-opacity:0.25"/>
		<stop  offset="0.54" style="stop-color:#808080;stop-opacity:0.12"/>
		<stop  offset="1" style="stop-color:#808080;stop-opacity:0.1"/>
	</linearGradient>
	<path class="st17" d="M362.7,106.9c0,9.4,7.6,17,17,17c9.4,0,17-7.6,17-17c0-9.4-7.6-17-17-17c-5.3,0-10.3,2.4-13.5,6.6
		C364,99.5,362.7,103.2,362.7,106.9z"/>
	<path class="st5" d="M363.4,106.9c0,9.1,7.3,16.4,16.4,16.4c9.1,0,16.4-7.3,16.4-16.4c0-9.1-7.3-16.4-16.4-16.4
		c-5.1,0-9.9,2.4-13,6.4C364.6,99.8,363.4,103.3,363.4,106.9z"/>
	<line class="st18" x1="370.6" y1="98.9" x2="370.6" y2="105.2"/>
	<line class="st18" x1="382.7" y1="104.6" x2="376.1" y2="109"/>
	<line class="st18" x1="376.1" y1="94.9" x2="383.9" y2="98.1"/>
	<line class="st18" x1="389.1" y1="105.8" x2="388.7" y2="115.7"/>
	<line class="st18" x1="383.9" y1="118.6" x2="375.1" y2="114.3"/>
	<line class="st18" x1="370.6" y1="115" x2="370.6" y2="120.5"/>
	<line class="st18" x1="367.3" y1="110.7" x2="363.5" y2="109"/>
	<line class="st18" x1="388.7" y1="97.6" x2="388.4" y2="93"/>
	<line class="st18" x1="391.2" y1="103" x2="395.9" y2="104.3"/>
	<polygon class="st0" points="392.5,103 388.8,96.6 382.7,97.6 382.7,104.6 389.2,108 	"/>
	<path class="st0" d="M366.8,96.9l3.8,1.9c1.3-1.7,6.5-3.7,6.5-3.7l-0.5-4.3C372.7,91.6,369.2,93.8,366.8,96.9z"/>
	<polygon class="st0" points="377.1,108.3 370.4,105.2 366.8,110.4 370.6,116.5 377.1,115.5 	"/>
	<path class="st0" d="M382.7,117.8v5.2c4.3-0.8,8.1-3.3,10.6-6.9l-4.6-1.9L382.7,117.8z"/>
	
		<linearGradient id="SVGID_4_" gradientUnits="userSpaceOnUse" x1="1102.4204" y1="107.7269" x2="1102.4204" y2="136.2821" gradientTransform="matrix(-1 0 0 -1 1256.2 349.45)">
		<stop  offset="0" style="stop-color:#808080;stop-opacity:0.25"/>
		<stop  offset="0.54" style="stop-color:#808080;stop-opacity:0.12"/>
		<stop  offset="1" style="stop-color:#808080;stop-opacity:0.1"/>
	</linearGradient>
	<path class="st19" d="M139.5,227.4c0,7.9,6.4,14.3,14.3,14.3c7.9,0,14.3-6.4,14.3-14.3c0-7.9-6.4-14.3-14.3-14.3
		c-4.4,0-8.6,2.1-11.3,5.6C140.5,221.2,139.5,224.3,139.5,227.4z"/>
	<path class="st5" d="M140,227.4c0,7.6,6.2,13.7,13.8,13.7c7.6,0,13.7-6.2,13.7-13.8c0-7.6-6.2-13.7-13.8-13.7
		c-4.3,0-8.3,2-10.9,5.4C141,221.5,140,224.4,140,227.4z"/>
	<line class="st18" x1="146.1" y1="220.7" x2="146.1" y2="226"/>
	<line class="st18" x1="156.3" y1="225.5" x2="150.7" y2="229.2"/>
	<line class="st18" x1="150.7" y1="217.4" x2="157.2" y2="220.1"/>
	<line class="st18" x1="161.6" y1="226.5" x2="161.2" y2="234.8"/>
	<line class="st18" x1="157.2" y1="237.3" x2="149.9" y2="233.6"/>
	<line class="st18" x1="146.1" y1="234.2" x2="146.1" y2="238.8"/>
	<line class="st18" x1="143.3" y1="230.6" x2="140.1" y2="229.2"/>
	<line class="st18" x1="161.2" y1="219.6" x2="161" y2="215.7"/>
	<line class="st18" x1="163.4" y1="224.1" x2="167.4" y2="225.3"/>
	<polygon class="st0" points="164.4,224.1 161.4,218.8 156.3,219.6 156.3,225.5 161.7,228.4 	"/>
	<path class="st0" d="M142.9,219.1l3.2,1.6c1.1-1.4,5.4-3.1,5.4-3.1l-0.5-3.6C147.8,214.6,144.9,216.4,142.9,219.1z"/>
	<polygon class="st0" points="151.5,228.6 146,226 142.9,230.4 146.1,235.5 151.5,234.7 	"/>
	<path class="st0" d="M156.3,236.6v4.4c3.6-0.7,6.8-2.7,8.9-5.8l-3.9-1.6L156.3,236.6z"/>
	
		<linearGradient id="SVGID_5_" gradientUnits="userSpaceOnUse" x1="1112.9039" y1="90.5675" x2="1112.9039" y2="119.1227" gradientTransform="matrix(-1 0 0 -1 1256.2 349.45)">
		<stop  offset="0" style="stop-color:#808080;stop-opacity:0.25"/>
		<stop  offset="0.54" style="stop-color:#808080;stop-opacity:0.12"/>
		<stop  offset="1" style="stop-color:#808080;stop-opacity:0.1"/>
	</linearGradient>
	<path class="st20" d="M129,244.6c0,7.9,6.4,14.3,14.3,14.3c7.9,0,14.3-6.4,14.3-14.3c0-7.9-6.4-14.3-14.3-14.3
		c-4.4,0-8.6,2.1-11.3,5.6C130.1,238.4,129,241.5,129,244.6z"/>
	<path class="st5" d="M129.5,244.6c0,7.6,6.2,13.7,13.8,13.7s13.7-6.2,13.7-13.8c0-7.6-6.2-13.7-13.8-13.7c-4.3,0-8.3,2-10.9,5.4
		C130.5,238.6,129.5,241.6,129.5,244.6z"/>
	<line class="st18" x1="135.6" y1="237.8" x2="135.6" y2="243.2"/>
	<line class="st18" x1="145.8" y1="242.7" x2="140.2" y2="246.4"/>
	<line class="st18" x1="140.2" y1="234.5" x2="146.7" y2="237.3"/>
	<line class="st18" x1="151.1" y1="243.7" x2="150.8" y2="252"/>
	<line class="st18" x1="146.7" y1="254.4" x2="139.4" y2="250.8"/>
	<line class="st18" x1="135.6" y1="251.4" x2="135.6" y2="256"/>
	<line class="st18" x1="132.9" y1="247.8" x2="129.7" y2="246.4"/>
	<line class="st18" x1="150.8" y1="236.8" x2="150.5" y2="232.9"/>
	<line class="st18" x1="152.9" y1="241.3" x2="156.9" y2="242.4"/>
	<polygon class="st0" points="154,241.3 150.9,236 145.8,236.8 145.8,242.7 151.2,245.6 	"/>
	<path class="st0" d="M132.4,236.2l3.2,1.6c1.1-1.4,5.4-3.1,5.4-3.1l-0.5-3.6C137.3,231.8,134.4,233.6,132.4,236.2z"/>
	<polygon class="st0" points="141,245.8 135.5,243.2 132.4,247.6 135.6,252.7 141,251.8 	"/>
	<path class="st0" d="M145.8,253.7v4.4c3.6-0.7,6.8-2.7,8.9-5.8l-3.9-1.6L145.8,253.7z"/>
</g>
</svg>
