<?xml version="1.0" encoding="utf-8"?>
<!-- Generator: Adobe Illustrator 25.0.0, SVG Export Plug-In . SVG Version: 6.00 Build 0)  -->
<svg version="1.1" id="Layer_1" xmlns="http://www.w3.org/2000/svg" xmlns:xlink="http://www.w3.org/1999/xlink" x="0px" y="0px"
	 viewBox="0 0 690 400" style="enable-background:new 0 0 690 400;" xml:space="preserve">
<style type="text/css">
	.st0{fill:#F2F2F2;}
	.st1{fill:#FFB6B6;}
	.st2{fill:#069FCF;}
	.st3{fill:#E6E6E6;}
	.st4{fill:#FFFFFF;}
	.st5{fill:#2F2E41;}
	.st6{fill:#FFB8B8;}
	.st7{fill:#3F3D56;}
	.st8{fill:#FF6584;}
	.st9{fill:#CCCCCC;}
</style>
<g>
	<path class="st0" d="M553.9,380.3H136.1c-27,0-48.9-21.9-48.9-48.9c0-3.5,0.4-7.1,1.1-10.5L107,236h476l18.7,84.8
		c5.8,26.4-10.9,52.5-37.3,58.3C561,379.9,557.4,380.3,553.9,380.3z M108.1,237.4l-18.4,83.7c-5.6,25.6,10.6,50.9,36.2,56.6
		c3.4,0.7,6.8,1.1,10.2,1.1h417.8c26.2,0,47.5-21.3,47.5-47.5c0-3.4-0.4-6.9-1.1-10.2l-18.4-83.7H108.1z"/>
	<path class="st1" d="M500.8,54.9l21.9-3.3l-3.5-15.2L506.2,43l-27.1-10.2c-1.1-2.8-4.3-4.2-7.1-3.1c-2.8,1.1-4.2,4.3-3.1,7.1
		c1,2.7,3.9,4.1,6.7,3.3L500.8,54.9z"/>
	<path class="st2" d="M545.4,43.5c-1.7,6.4-40.7,13.7-40.7,12.3c0.1-3.9,2.6-12.2,1.1-14.4C505,40.2,516,37,516,37s6.1-2.3,14-5.2
		c4.5-1.7,9.6-1,13.5,1.9C543.5,33.7,547.1,37.1,545.4,43.5z"/>
	<path class="st3" d="M167.7,311h-13.6c-6.3,0-11.4,5.1-11.4,11.4c0,6.3,5.1,11.4,11.4,11.4h13.6c6.3,0,11.4-5.1,11.4-11.4
		C179.1,316.1,174,311,167.7,311z"/>
	<path class="st3" d="M211.3,311h-13.6c-6.3,0-11.4,5.1-11.4,11.4c0,6.3,5.1,11.4,11.4,11.4h13.6c6.3,0,11.4-5.1,11.4-11.4
		C222.7,316.1,217.6,311,211.3,311z"/>
	<path class="st3" d="M254.8,311h-13.6c-6.3,0-11.4,5.1-11.4,11.4c0,6.3,5.1,11.4,11.4,11.4h13.6c6.3,0,11.4-5.1,11.4-11.4
		C266.2,316.1,261.1,311,254.8,311z"/>
	<path class="st3" d="M298.4,311h-13.6c-6.3,0-11.4,5.1-11.4,11.4c0,6.3,5.1,11.4,11.4,11.4h13.6c6.3,0,11.4-5.1,11.4-11.4
		C309.8,316.1,304.7,311,298.4,311z"/>
	<path class="st3" d="M341.9,311h-13.6c-6.3,0-11.4,5.1-11.4,11.4c0,6.3,5.1,11.4,11.4,11.4h13.6c6.3,0,11.4-5.1,11.4-11.4
		C353.4,316.1,348.2,311,341.9,311z"/>
	<path class="st3" d="M385.5,311h-13.6c-6.3,0-11.4,5.1-11.4,11.4c0,6.3,5.1,11.4,11.4,11.4h13.6c6.3,0,11.4-5.1,11.4-11.4
		C396.9,316.1,391.8,311,385.5,311z"/>
	<path class="st3" d="M429.1,311h-13.6c-6.3,0-11.4,5.1-11.4,11.4c0,6.3,5.1,11.4,11.4,11.4h13.6c6.3,0,11.4-5.1,11.4-11.4
		C440.5,316.1,435.4,311,429.1,311z"/>
	<path class="st3" d="M472.6,311H459c-6.3,0-11.4,5.1-11.4,11.4c0,6.3,5.1,11.4,11.4,11.4h13.6c6.3,0,11.4-5.1,11.4-11.4
		C484,316.1,478.9,311,472.6,311z"/>
	<path class="st3" d="M516.2,311h-13.6c-6.3,0-11.4,5.1-11.4,11.4c0,6.3,5.1,11.4,11.4,11.4h13.6c6.3,0,11.4-5.1,11.4-11.4
		C527.6,316.1,522.5,311,516.2,311z"/>
	<path class="st3" d="M167.7,263.1h-13.6c-6.3,0-11.4,5.1-11.4,11.4c0,6.3,5.1,11.4,11.4,11.4h13.6c6.3,0,11.4-5.1,11.4-11.4
		C179.1,268.3,174,263.1,167.7,263.1z"/>
	<path class="st3" d="M211.3,263.1h-13.6c-6.3,0-11.4,5.1-11.4,11.4c0,6.3,5.1,11.4,11.4,11.4h13.6c6.3,0,11.4-5.1,11.4-11.4
		C222.7,268.3,217.6,263.1,211.3,263.1z"/>
	<path class="st2" d="M254.8,263.1h-13.6c-6.3,0-11.4,5.1-11.4,11.4c0,6.3,5.1,11.4,11.4,11.4h13.6c6.3,0,11.4-5.1,11.4-11.4
		C266.2,268.3,261.1,263.1,254.8,263.1z"/>
	<path class="st3" d="M298.4,263.1h-13.6c-6.3,0-11.4,5.1-11.4,11.4c0,6.3,5.1,11.4,11.4,11.4h13.6c6.3,0,11.4-5.1,11.4-11.4
		C309.8,268.3,304.7,263.1,298.4,263.1z"/>
	<path class="st3" d="M341.9,263.1h-13.6c-6.3,0-11.4,5.1-11.4,11.4c0,6.3,5.1,11.4,11.4,11.4h13.6c6.3,0,11.4-5.1,11.4-11.4
		C353.4,268.3,348.2,263.1,341.9,263.1z"/>
	<path class="st3" d="M385.5,263.1h-13.6c-6.3,0-11.4,5.1-11.4,11.4c0,6.3,5.1,11.4,11.4,11.4h13.6c6.3,0,11.4-5.1,11.4-11.4
		C396.9,268.3,391.8,263.1,385.5,263.1z"/>
	<path class="st3" d="M429.1,263.1h-13.6c-6.3,0-11.4,5.1-11.4,11.4c0,6.3,5.1,11.4,11.4,11.4h13.6c6.3,0,11.4-5.1,11.4-11.4
		C440.5,268.3,435.4,263.1,429.1,263.1z"/>
	<path class="st3" d="M472.6,263.1H459c-6.3,0-11.4,5.1-11.4,11.4c0,6.3,5.1,11.4,11.4,11.4h13.6c6.3,0,11.4-5.1,11.4-11.4
		C484,268.3,478.9,263.1,472.6,263.1z"/>
	<path class="st3" d="M516.2,263.1h-13.6c-6.3,0-11.4,5.1-11.4,11.4c0,6.3,5.1,11.4,11.4,11.4h13.6c6.3,0,11.4-5.1,11.4-11.4
		C527.6,268.3,522.5,263.1,516.2,263.1z"/>
	<path class="st3" d="M188,287.8h-13.6c-6.3,0-11.4,5.1-11.4,11.4c0,6.3,5.1,11.4,11.4,11.4H188c6.3,0,11.4-5.1,11.4-11.4
		C199.5,292.9,194.4,287.8,188,287.8z"/>
	<path class="st3" d="M231.6,287.8H218c-6.3,0-11.4,5.1-11.4,11.4c0,6.3,5.1,11.4,11.4,11.4h13.6c6.3,0,11.4-5.1,11.4-11.4
		C243,292.9,237.9,287.8,231.6,287.8z"/>
	<path class="st3" d="M275.2,287.8h-13.6c-6.3,0-11.4,5.1-11.4,11.4c0,6.3,5.1,11.4,11.4,11.4h13.6c6.3,0,11.4-5.1,11.4-11.4
		C286.6,292.9,281.5,287.8,275.2,287.8z"/>
	<path class="st3" d="M318.7,287.8h-13.6c-6.3,0-11.4,5.1-11.4,11.4c0,6.3,5.1,11.4,11.4,11.4h13.6c6.3,0,11.4-5.1,11.4-11.4
		C330.1,292.9,325,287.8,318.7,287.8z"/>
	<path class="st3" d="M362.3,287.8h-13.6c-6.3,0-11.4,5.1-11.4,11.4c0,6.3,5.1,11.4,11.4,11.4h13.6c6.3,0,11.4-5.1,11.4-11.4
		C373.7,292.9,368.6,287.8,362.3,287.8z"/>
	<path class="st3" d="M405.8,287.8h-13.6c-6.3,0-11.4,5.1-11.4,11.4c0,6.3,5.1,11.4,11.4,11.4h13.6c6.3,0,11.4-5.1,11.4-11.4
		C417.3,292.9,412.2,287.8,405.8,287.8z"/>
	<path class="st3" d="M449.4,287.8h-13.6c-6.3,0-11.4,5.1-11.4,11.4c0,6.3,5.1,11.4,11.4,11.4h13.6c6.3,0,11.4-5.1,11.4-11.4
		C460.8,292.9,455.7,287.8,449.4,287.8z"/>
	<path class="st3" d="M493,287.8h-13.6c-6.3,0-11.4,5.1-11.4,11.4c0,6.3,5.1,11.4,11.4,11.4H493c6.3,0,11.4-5.1,11.4-11.4
		C504.4,292.9,499.3,287.8,493,287.8z"/>
	<path class="st3" d="M536.5,287.8H523c-6.3,0-11.4,5.1-11.4,11.4c0,6.3,5.1,11.4,11.4,11.4h13.6c6.3,0,11.4-5.1,11.4-11.4
		C547.9,292.9,542.8,287.8,536.5,287.8z"/>
	<path class="st4" d="M486.3,236.7H204.4c-9.3,0-16.9-7.6-16.9-16.9l0-0.2c10-43.2,10-97.2,0-170.2l0-0.1c0-9.3,7.6-16.9,16.9-16.9
		h281.9c9.3,0,16.9,7.6,16.9,16.9l0,0.1c-12.1,56.1-12.1,114.1,0,170.2l0,0.1C503.1,229.2,495.6,236.7,486.3,236.7z"/>
	<path class="st3" d="M486.3,236.7H204.4c-9.3,0-16.9-7.6-16.9-16.9l0-0.2c10-43.2,10-97.2,0-170.2l0-0.1c0-9.3,7.6-16.9,16.9-16.9
		h281.9c9.3,0,16.9,7.6,16.9,16.9l0,0.1c-12.1,56.1-12.1,114.1,0,170.2l0,0.1C503.1,229.2,495.6,236.7,486.3,236.7z M188.9,219.9
		c0.1,8.5,6.9,15.3,15.4,15.4h281.9c8.5,0,15.4-6.9,15.4-15.4c-12.1-56.2-12.1-114.4,0-170.6c-0.1-8.5-6.9-15.4-15.4-15.4H204.4
		c-8.5,0-15.4,6.9-15.4,15.4C198.9,122.4,198.9,176.6,188.9,219.9z"/>
	<path class="st3" d="M456.7,82.8H228.9c-2.6,0-4.6-2.1-4.6-4.6s2.1-4.6,4.6-4.6h227.8c2.6,0,4.6,2.1,4.6,4.6S459.3,82.8,456.7,82.8
		z"/>
	<path class="st3" d="M456.7,105.3H228.9c-2.6,0-4.6-2.1-4.6-4.6s2.1-4.6,4.6-4.6h227.8c2.6,0,4.6,2.1,4.6,4.6
		S459.3,105.3,456.7,105.3z"/>
	<path class="st3" d="M456.7,127.8H228.9c-2.6,0-4.6-2.1-4.6-4.6c0-2.6,2.1-4.6,4.6-4.6h227.8c2.6,0,4.6,2.1,4.6,4.6
		C461.4,125.7,459.3,127.8,456.7,127.8z"/>
	<path class="st3" d="M456.7,150.3H228.9c-2.6,0-4.6-2.1-4.6-4.6s2.1-4.6,4.6-4.6h227.8c2.6,0,4.6,2.1,4.6,4.6
		S459.3,150.3,456.7,150.3z"/>
	<path class="st3" d="M456.7,172.8H228.9c-2.6,0-4.6-2.1-4.6-4.6s2.1-4.6,4.6-4.6h227.8c2.6,0,4.6,2.1,4.6,4.6
		S459.3,172.8,456.7,172.8z"/>
	<path class="st2" d="M331,195.3H228.9c-2.6,0-4.6-2.1-4.6-4.6s2.1-4.6,4.6-4.6H331c2.6,0,4.6,2.1,4.6,4.6S333.6,195.3,331,195.3z"
		/>
	<path class="st3" d="M344,230.6h-18.8c-0.6,0-1.1-0.3-1.5-0.7c-0.4-0.5-0.6-1.2-0.4-1.9l8.8-40c0.2-1.1,1.2-1.8,2.2-1.6
		c0.8,0.1,1.4,0.7,1.6,1.5l10,40c0.2,0.7,0,1.4-0.4,1.9C345.2,230.4,344.6,230.6,344,230.6z"/>
	<path class="st0" d="M580.3,245.6H110.4c-5.3,0-9.6-4.3-9.6-9.6s4.3-9.6,9.6-9.6h469.9c5.3,0,9.6,4.3,9.6,9.6
		S585.6,245.6,580.3,245.6z"/>
	<polygon class="st1" points="520.8,221.5 513.9,221.5 510.6,195.1 520.8,195.1 	"/>
	<path class="st5" d="M522.5,228.2l-22.1,0v-0.3c0-4.8,3.9-8.6,8.6-8.6h0l4-3.1l7.5,3.1l1.9,0L522.5,228.2z"/>
	<polygon class="st1" points="582.7,212.6 576.6,215.6 561.9,193.4 570.9,188.9 	"/>
	<path class="st5" d="M587.2,217.8l-19.8,9.9l-0.1-0.3c-2.1-4.3-0.4-9.4,3.9-11.5l0,0l2.2-4.5l8.1-0.6l1.7-0.9L587.2,217.8z"/>
	<path class="st5" d="M517.7,101.4l37.8,1.3l2.8,5.3c0,0,3,21.5,1.4,23c-1.5,1.5-2.3,1.5-1.5,4.2c0.8,2.7,2.7,28,2.7,28
		s15.6,32.4,16.4,34.3c0.8,1.9,1.5,1.1,0.8,1.9c-0.7,0.7-1.3,1.5-1.9,2.3h-12.4c0,0-6.7-16.8-12.7-23.3c-5.4-5.7-8.8-13-9.7-20.8
		l-5.1-24.3l-11,37.2c0,0-1.9,36.8-1.5,38.7l0.4,1.9l-14.6,0.2c0,0-1.5-3.2-0.8-4.3c0.8-1.1,0.7-0.8-0.2-2.7s-0.5-5-0.5-5
		s5.5-74.6,5.5-75.7c0-0.6-0.1-1.2-0.3-1.7v-1.5l1.5-5.5L517.7,101.4z"/>
	<path class="st2" d="M534,32.8c-2.5,1.5-3.9,4.2-4.8,6.9c-1.6,5.1-2.5,10.3-2.8,15.6l-0.9,15.8c-0.4,10.2-3.3,20.2-8.3,29.1
		c-1.4,2.5-0.4,5.6,2,6.9c0.4,0.2,0.8,0.4,1.2,0.5c13.7,3.6,39.7-0.9,39.7-0.9s1.1-0.4,0-1.5c-1.1-1.1-3.6-6.6-3.6-6.6l2.9-19.4
		l3.7-39.1c-4.4-5.5-13.3-8.8-13.3-8.8l-2.3-4.1L536,28.2L534,32.8z"/>
	<circle class="st6" cx="541.3" cy="17.4" r="11"/>
	<path class="st5" d="M554.9,16.7c-0.5,2.2-1.4,4.4-2.6,6.3c-0.3,0.7-0.8,1.2-1.4,1.6c-0.6,0.4-1.5,0.3-2-0.2l-0.3-0.2
		c0.5-0.3,1-0.7,1.4-1.2c0.4-0.5,0.5-1.1,0.4-1.7c-0.2-0.6-0.8-1-1.5-0.8c-0.6,0.3-1,1.2-1.7,1c-0.5-0.1-0.7-0.8-0.7-1.4
		c0-3-1.4-7.2-2.5-7c-1.1,0.1-2.2-0.1-3.3-0.4c-1.1-0.4-2.2-0.5-3.3-0.4c-0.1,0-0.2,0-0.2,0c-0.2-0.6-0.4-1.1-0.7-1.6
		c0,0.6,0,1.2-0.1,1.8c-0.9,0.4-1.8,0.7-2.8,0.9c-1,0.1-3.3,3.2-3.4,2.9c-0.2-0.6-0.4-1.1-0.7-1.6c0,0.6,0,1.2-0.1,1.8
		c0,0,0,0,0,0.1c-0.5-0.7-0.8-1.5-0.6-0.9c-1.7-3.8-1-6.5,1.6-9.6c0.5-0.7,1.2-1.2,2-1.6c0.8-0.3,1.7-0.3,2.4,0.2
		c2.2-2,5.3-2.7,8.1-1.7c2.7,0.9,4.8,1.5,5.2,4.4c2.3-0.3,4.6,0.8,5.8,2.8C555,12.1,555.4,14.5,554.9,16.7z"/>
	<path class="st1" d="M185.2,284c-1.5-1.4-1.6-3.8-0.2-5.3c0.1-0.2,0.3-0.3,0.5-0.4l-4.2-12.6l6.7,1.8l3,11.7c1.2,1.7,0.7,4.1-1,5.2
		C188.4,285.3,186.5,285.2,185.2,284z"/>
	<path class="st7" d="M197.3,215.4c1.1,0.6,7.7-0.9,8.9-0.5c-0.7,4.3,3.1,2.7-1,8.3s-12.6,22.6-14.5,29c-1.9,6.3,0,15.3-0.3,18.3
		c-0.1,1.7-0.1,3.5,0,5.2c-2.3,0-4.5,0.4-6.8,0.1c-2.4-6.9-4.1-16.7-5.2-22.1c-1.1-5.4-1.2-3.1-0.6-5.8c0.5-2.7,0.6-0.7,0.1-3.3
		s1.6-5.9,3.6-7.7c0.9-2.5,2-4.8,2.8-7.3C190.7,224.2,191.2,221,197.3,215.4z"/>
	<path class="st1" d="M256,276c-2,0.3-3.9-1.1-4.2-3.2c0-0.2,0-0.4,0-0.7l-12.4-4.8l5.6-4l10.9,5.2c2.1,0.2,3.6,2.1,3.4,4.1
		C259,274.4,257.7,275.8,256,276L256,276z"/>
	<path class="st7" d="M210.7,223.1c1.2-0.5,4.1-6.5,5.3-7.2c2.9,3.3,4.1-0.7,5.8,6.1c1.7,6.8,9.5,24.1,13.2,29.6
		c3.7,5.5,11.8,9.7,13.9,11.9c1.3,1.2,2.6,2.3,4.1,3.3c-1.5,1.7-2.5,3.7-4.2,5.3c-6.9-2.5-15.5-7.5-20.4-10.1
		c-4.9-2.6-3.2-1.1-4.9-3.2c-1.8-2.1-0.2-1-2.5-2.2c-2.3-1.2-3.5-5-3.6-7.7c-1.4-2.2-2.4-4.6-3.8-6.8
		C213.3,233.7,211.1,231.4,210.7,223.1z"/>
	<polygon class="st5" points="220.1,260.6 227.4,288.3 186.6,285.7 197.4,258.6 	"/>
	<polygon class="st1" points="213.5,388 217.9,388 220,370.9 213.5,370.9 	"/>
	<path class="st5" d="M212,385.8l7-0.4v3l6.7,4.6c0.9,0.6,1.1,1.8,0.5,2.6c-0.4,0.5-0.9,0.8-1.6,0.8h-8.4l-1.4-3l-0.6,3h-3.2
		L212,385.8z"/>
	<polygon class="st1" points="171.4,385.8 175.7,386.8 181.4,370.4 175,369 	"/>
	<path class="st5" d="M170.4,383.4l7,1.1l-0.6,2.9l5.6,5.9c0.7,0.8,0.7,2-0.1,2.7c-0.5,0.4-1.1,0.6-1.7,0.5l-8.2-1.8l-0.8-3.2
		l-1.2,2.8l-3.1-0.7L170.4,383.4z"/>
	<path class="st5" d="M227.3,311.3c-3.1,17.2-3.9,24.6-3.9,24.6s2.3,2.7,0.8,4.3s0,4.7,0,4.7l-3.5,37.9l-2.8-0.5l-6.8-1.1l-2.5-0.4
		l1.6-35.5c0,0-1.6-3.1-0.8-3.9c0.8-0.8-0.8-5.5-0.8-5.5l-2-37.1l-12.1,40.6c0,0,1.2,1.6,0,2.7c-1.2,1.2-3.5,7-3.5,7l-7.2,25.2
		l-0.6,2.1l-3.8-0.7l-4.1-0.8l-0.8-0.1l-1.3-0.3l-0.9-0.2l-0.3-0.1l-1.4-0.3l0.4-1.9l0.2-1l6.1-27.1l0.1-0.6l0.1-0.7
		c0,0-0.8-2,0.4-3.1c0.7-0.7,1-1.7,0.8-2.7c0,0-0.1-0.1-0.1-0.1c-0.1-0.2-0.2-0.4-0.3-0.6c-0.1-0.7,0.2-1.5,0.8-2
		c0.2-0.2,0.4-0.5,0.6-0.8c1.2-2.2,1.8-7,1.8-7s1.1-37.7,4.5-43.5c0.2-0.3,3.9-6.1,4-6.2c3.9-2.3,34.3,0.9,34.3,0.9s1.8,4.9,1.9,5.5
		C226.8,286.1,229.9,296.7,227.3,311.3z"/>
	<path class="st7" d="M218,220.4c0,0,0.7-3.4-5.7-9.7c-3.3-1.1-9.1-0.5-11.2,0c-9.3,12.3-7.6,10.1-10.1,17c-0.6,1.5-0.9,3.2-0.7,4.9
		c1.1,5.6,2.9,34.2,2.6,35.7c-0.4,1.5-3,3.3-0.4,3.3c2.6,0,36.2-0.6,35.4-1.7C227.4,268.7,218,220.4,218,220.4z"/>
	<circle class="st1" cx="207.5" cy="197.8" r="10.7"/>
	<path class="st5" d="M198.5,201.9c-0.1,1.3-0.9,2.4-1.5,3.5c-2.2,4.1-2.3,9-0.1,13.2c0.9,1.7,2.1,3.1,2.8,4.9
		c0.7,1.5,0.7,3.2,0,4.7c-1.9-1.8-2.8-0.8-4.9-2.4c0.8,2.3,0.1,2.4,1,4.8c-3.6,1-7.2,2.1-10.8,3.1c4.6-3.7,6.1-10,3.7-15.3
		c-1.3-2.8-3.7-5.2-4.5-8.2c-1.3-4.7,1.4-9.6,6.1-11c2-0.6,4.2-0.4,6.1,0.4C197.4,199.2,198.6,200.6,198.5,201.9z"/>
	<path class="st5" d="M211.9,185.9c-1.4-3.1-5.2-2.5-8.6-2.1c-3.5,0.5-6.5,2.7-8,5.9c-1.5,3.2-1.7,6.7-0.8,10.1
		c0.5,2.3,1.7,4.3,3.5,5.9c1.8,1.5,10.3,4.9,11,1.9c-0.9,3.9-3.2,6.1-0.6,9c1.4-4.1,7.1-8,8.5-12.1c0.2-0.6-0.6-7.9-0.4-8.5
		c0.4-1.3,0.9-2.6,1.2-3.9c0.4-1.7,0.5-3.6-0.5-5c-1-1.4-3.7-1.4-4.2,0.2"/>
	<path class="st8" d="M210.2,198.9l-0.5-2.9c0.3-3.6-0.2-9.4,2.2-10.1l1.4,1.4C212.4,187.6,210.7,193,210.2,198.9z"/>
	<path class="st9" d="M314.1,396.6c0,0.5-0.4,0.8-0.8,0.8c0,0,0,0,0,0H113.1c-0.5,0-0.8-0.4-0.8-0.8s0.4-0.8,0.8-0.8h200.2
		C313.7,395.8,314.1,396.2,314.1,396.6C314.1,396.6,314.1,396.6,314.1,396.6z"/>
	<path class="st3" d="M418.9,343.8H271.8c-6.3,0-11.4,5.1-11.4,11.4s5.1,11.4,11.4,11.4h147.1c6.3,0,11.4-5.1,11.4-11.4
		S425.2,343.8,418.9,343.8z"/>
	<polygon class="st3" points="528.4,82.8 510.3,90 545.8,137.1 558.3,127.6 	"/>
	<path class="st1" d="M566.7,84.9l0-22.2l-15.6,1.2l4.6,14l-14.1,25.3c-3,0.7-4.8,3.6-4.2,6.6s3.6,4.8,6.6,4.2
		c2.8-0.6,4.6-3.3,4.3-6.1L566.7,84.9z"/>
	<path class="st2" d="M562,39.1c6.1,2.6,7.5,42.3,6.1,42.1c-3.9-0.6-11.7-4.4-14.1-3.3c-1.3,0.6-2.8-10.8-2.8-10.8
		s-1.4-6.4-3.1-14.6c-1-4.7,0.4-9.6,3.8-13C552,39.6,555.9,36.5,562,39.1z"/>
</g>
</svg>
