<?xml version="1.0" encoding="utf-8"?>
<!-- Generator: Adobe Illustrator 25.0.0, SVG Export Plug-In . SVG Version: 6.00 Build 0)  -->
<svg version="1.1" id="Layer_1" xmlns="http://www.w3.org/2000/svg" xmlns:xlink="http://www.w3.org/1999/xlink" x="0px" y="0px"
	 viewBox="0 0 700 400" style="enable-background:new 0 0 700 400;" xml:space="preserve">
<style type="text/css">
	.st0{opacity:0.1;fill:#069FCF;enable-background:new    ;}
	.st1{fill:#3F3D56;}
	.st2{fill:#FFFFFF;}
	.st3{fill:#192534;}
	.st4{fill:#FBBEBE;}
	.st5{fill:#F2F2F2;}
	.st6{fill:#069FCF;}
	.st7{opacity:0.1;enable-background:new    ;}
</style>
<g>
	<path class="st0" d="M165.9,160h57.6c2,0,3.7,1.7,3.7,3.7v12.3c0,2-1.7,3.7-3.7,3.7h-57.6c-2,0-3.7-1.7-3.7-3.7v-12.3
		C162.2,161.6,163.8,160,165.9,160z"/>
	<path class="st0" d="M233.9,179.6h57.6c2,0,3.7,1.7,3.7,3.7v12.3c0,2-1.7,3.7-3.7,3.7h-57.6c-2,0-3.7-1.7-3.7-3.7v-12.3
		C230.2,181.3,231.8,179.6,233.9,179.6z"/>
	<path class="st0" d="M301.9,199.3h57.6c2,0,3.7,1.7,3.7,3.7v12.3c0,2-1.7,3.7-3.7,3.7h-57.6c-2,0-3.7-1.7-3.7-3.7V203
		C298.2,200.9,299.8,199.3,301.9,199.3z"/>
	<path class="st0" d="M165.9,130.5h57.6c2,0,3.7,1.7,3.7,3.7v12.3c0,2-1.7,3.7-3.7,3.7h-57.6c-2,0-3.7-1.7-3.7-3.7v-12.3
		C162.2,132.2,163.8,130.5,165.9,130.5z"/>
	<path class="st0" d="M233.9,150.2h57.6c2,0,3.7,1.7,3.7,3.7v12.3c0,2-1.7,3.7-3.7,3.7h-57.6c-2,0-3.7-1.7-3.7-3.7v-12.3
		C230.2,151.8,231.8,150.2,233.9,150.2z"/>
	<path class="st0" d="M301.9,169.8h57.6c2,0,3.7,1.7,3.7,3.7v12.3c0,2-1.7,3.7-3.7,3.7h-57.6c-2,0-3.7-1.7-3.7-3.7v-12.3
		C298.2,171.5,299.8,169.8,301.9,169.8z"/>
	<path class="st0" d="M377.4,160H435c2,0,3.7,1.7,3.7,3.7v12.3c0,2-1.7,3.7-3.7,3.7h-57.6c-2,0-3.7-1.7-3.7-3.7v-12.3
		C373.7,161.6,375.4,160,377.4,160z"/>
	<path class="st0" d="M445.4,179.6H503c2,0,3.7,1.7,3.7,3.7v12.3c0,2-1.7,3.7-3.7,3.7h-57.6c-2,0-3.7-1.7-3.7-3.7v-12.3
		C441.7,181.3,443.4,179.6,445.4,179.6z"/>
	<path class="st0" d="M513.4,199.3H571c2,0,3.7,1.7,3.7,3.7v12.3c0,2-1.7,3.7-3.7,3.7h-57.6c-2,0-3.7-1.7-3.7-3.7V203
		C509.7,200.9,511.4,199.3,513.4,199.3z"/>
	<path class="st0" d="M377.4,130.5H435c2,0,3.7,1.7,3.7,3.7v12.3c0,2-1.7,3.7-3.7,3.7h-57.6c-2,0-3.7-1.7-3.7-3.7v-12.3
		C373.7,132.2,375.4,130.5,377.4,130.5z"/>
	<path class="st0" d="M445.4,150.2H503c2,0,3.7,1.7,3.7,3.7v12.3c0,2-1.7,3.7-3.7,3.7h-57.6c-2,0-3.7-1.7-3.7-3.7v-12.3
		C441.7,151.8,443.4,150.2,445.4,150.2z"/>
	<path class="st0" d="M513.4,169.8H571c2,0,3.7,1.7,3.7,3.7v12.3c0,2-1.7,3.7-3.7,3.7h-57.6c-2,0-3.7-1.7-3.7-3.7v-12.3
		C509.7,171.5,511.4,169.8,513.4,169.8z"/>
	<path class="st0" d="M165.9,91.2h57.6c2,0,3.7,1.7,3.7,3.7v12.3c0,2-1.7,3.7-3.7,3.7h-57.6c-2,0-3.7-1.7-3.7-3.7V94.9
		C162.2,92.9,163.8,91.2,165.9,91.2z"/>
	<path class="st0" d="M233.9,110.9h57.6c2,0,3.7,1.7,3.7,3.7v12.3c0,2-1.7,3.7-3.7,3.7h-57.6c-2,0-3.7-1.7-3.7-3.7v-12.3
		C230.2,112.5,231.8,110.9,233.9,110.9z"/>
	<path class="st0" d="M301.9,130.5h57.6c2,0,3.7,1.7,3.7,3.7v12.3c0,2-1.7,3.7-3.7,3.7h-57.6c-2,0-3.7-1.7-3.7-3.7v-12.3
		C298.2,132.2,299.8,130.5,301.9,130.5z"/>
	<path class="st0" d="M165.9,61.8h57.6c2,0,3.7,1.7,3.7,3.7v12.3c0,2-1.7,3.7-3.7,3.7h-57.6c-2,0-3.7-1.7-3.7-3.7V65.5
		C162.2,63.4,163.8,61.8,165.9,61.8z"/>
	<path class="st0" d="M233.9,81.4h57.6c2,0,3.7,1.7,3.7,3.7v12.3c0,2-1.7,3.7-3.7,3.7h-57.6c-2,0-3.7-1.7-3.7-3.7V85.1
		C230.2,83.1,231.8,81.4,233.9,81.4z"/>
	<path class="st0" d="M301.9,101.1h57.6c2,0,3.7,1.7,3.7,3.7V117c0,2-1.7,3.7-3.7,3.7h-57.6c-2,0-3.7-1.7-3.7-3.7v-12.3
		C298.2,102.7,299.8,101.1,301.9,101.1z"/>
	<path class="st0" d="M377.4,91.2H435c2,0,3.7,1.7,3.7,3.7v12.3c0,2-1.7,3.7-3.7,3.7h-57.6c-2,0-3.7-1.7-3.7-3.7V94.9
		C373.7,92.9,375.4,91.2,377.4,91.2z"/>
	<path class="st0" d="M445.4,110.9H503c2,0,3.7,1.7,3.7,3.7v12.3c0,2-1.7,3.7-3.7,3.7h-57.6c-2,0-3.7-1.7-3.7-3.7v-12.3
		C441.7,112.5,443.4,110.9,445.4,110.9z"/>
	<path class="st0" d="M513.4,130.5H571c2,0,3.7,1.7,3.7,3.7v12.3c0,2-1.7,3.7-3.7,3.7h-57.6c-2,0-3.7-1.7-3.7-3.7v-12.3
		C509.7,132.2,511.4,130.5,513.4,130.5z"/>
	<path class="st0" d="M377.4,61.8H435c2,0,3.7,1.7,3.7,3.7v12.3c0,2-1.7,3.7-3.7,3.7h-57.6c-2,0-3.7-1.7-3.7-3.7V65.5
		C373.7,63.4,375.4,61.8,377.4,61.8z"/>
	<path class="st0" d="M445.4,81.4H503c2,0,3.7,1.7,3.7,3.7v12.3c0,2-1.7,3.7-3.7,3.7h-57.6c-2,0-3.7-1.7-3.7-3.7V85.1
		C441.7,83.1,443.4,81.4,445.4,81.4z"/>
	<path class="st0" d="M513.4,101.1H571c2,0,3.7,1.7,3.7,3.7V117c0,2-1.7,3.7-3.7,3.7h-57.6c-2,0-3.7-1.7-3.7-3.7v-12.3
		C509.7,102.7,511.4,101.1,513.4,101.1z"/>
	<ellipse class="st0" cx="357" cy="336.9" rx="271.9" ry="49.5"/>
	<polygon class="st1" points="204.4,168.2 181.6,308.3 284.9,297.4 280.5,285.5 199.7,292.2 218.6,167.9 	"/>
	<polygon class="st1" points="177.6,9.1 316.7,8.6 357,313.3 217.3,332.2 	"/>
	<polygon class="st2" points="192.7,20.8 305.1,20.8 344.3,304.1 228.5,320 	"/>
	<path class="st1" d="M298.7,291.4c0.7,1.4,1.2,2.8,2.2,4c2.7,3.6,7.8,4.1,11.6,6.5c0.2,0.1,0.3,0.2,0.5,0.4
		c0.2,0.4-0.2,0.8-0.6,1.1c-2.9,2-6.7,2.1-10.2,2.1c-1.2,0-2.4-0.1-3.5-0.3c-1.9-0.5-3.5-1.8-5.3-2.3c-1-0.2-1.9-0.4-2.9-0.4
		l-3.9-0.3c-1,0-2.1-0.2-3-0.6c-1-0.4-1.7-1.2-1.9-2.3c-0.1-0.8,0.2-1.6,0.5-2.4c0.5-1.9,0.3-4.2,1.8-5.5c0.6-0.5,1.3-0.8,2.1-1
		c2.7-0.9,5.5-1.6,8.3-2.2C296.3,287.7,297.7,289.4,298.7,291.4z"/>
	<path class="st1" d="M254.8,302.1c0.1,1.1,0.1,2.3-0.6,3c-0.5,0.4-1.1,0.7-1.7,0.7c-3.7,0.9-7.8,0.9-11-1.1
		c-0.3-0.2-0.6-0.4-0.9-0.7c-0.3-0.4-0.4-0.9-0.4-1.4c-0.1-1.4,0.3-2.8,0.7-4.1c0.9-3.2,1.6-6.5,2.1-9.8c0-0.3,9.4,1.5,10,2.4
		c0.8,1.1,0.8,3.9,1,5.2C254.3,298.3,254.6,300.2,254.8,302.1z"/>
	<path class="st3" d="M289.5,172.8l2.5,23.1c0.5,4.7,1,9.5,0.7,14.2c-0.4,5.5-1.9,10.9-1.3,16.4c0.3,2.1,0.8,4.2,0.9,6.3
		c0,1.4-0.1,2.8-0.2,4.2c-1.1,14,2.4,27.9,4.4,41.9c0.3,1.7,0.4,3.5,0.2,5.2c-0.3,1.8-0.8,4.1,0.8,4.9l-14.8,5.3c-1.9-2.4-0.6-6-1-9
		c-0.3-2.7-1.8-5.1-2.6-7.7c-0.7-2.3-0.9-4.8-1.1-7.2c-1.3-13.2-5.2-26.1-6.2-39.3c0-1.3-0.2-2.5-0.5-3.8c-0.5-1.6-1.5-3.1-2.2-4.6
		c-1.1-2.3-1.7-4.9-2.2-7.4l-3.2-14.8c-3.2,4.8-3.1,10.9-3.7,16.6c-0.9,8-2.9,15.8-4.5,23.6c-0.4,1.7-0.7,3.4-0.8,5.1
		c-0.4,4.6,0.4,9.3,0,13.9c-0.5,5.3-2.7,10.5-2.2,15.9c0.3,3,1.4,5.7,2.2,8.6c0.8,2.9,1.1,6,0,8.7c-4.1-1.5-8.5-2-12.8-1.4
		c-4.7-4.8-5.6-11.6-5.9-18.4s0.5-13.6-0.4-20.3c-0.2-2-0.6-3.9-0.7-5.9c-0.2-6.4,2.8-12.3,4.4-18.5c1.4-5.6,1.5-11.4,0.4-17
		c-0.7-3.7-2-7.3-2.5-11.1c-0.6-5.3,0.4-10.6,1.5-15.8c0.7-3.5,1.4-7,2.2-10.5c0.9-3.8,1.9-7.6,4.2-10.7c3.7-4.9,10.3-7.1,16.4-6.6
		c6.1,0.5,11.9,3.3,16.9,6.7C282.6,166.2,286.2,169.3,289.5,172.8z"/>
	<path class="st4" d="M273,84.3c-0.3,0.4-0.5,0.9-0.6,1.5c-0.1,1,0.5,2,1,2.8c0.6,1.1,1.1,2.4,1.5,3.6c0.2,0.8,0.3,1.6,0.2,2.4
		c-0.1,0.6-0.3,1.2-0.6,1.7c-1,1.8-2.4,3.6-4.3,4.3c-1.5,0.6-3.1,0.6-4.7,0.2c-1.5-0.4-3-1.1-4.3-2c-1.1-0.7-2.1-1.5-2.9-2.5
		c-0.8-1.1-1.5-2.2-2-3.5c-1-2.2-2.1-4.5-1.9-6.8c0-0.2,0.1-0.4,0.1-0.6c0.2-0.4,0.4-0.7,0.7-1c2.1-2.5,3.2-5.7,3-9l7.2,1.6
		c1.6,0.4,3.2,0.7,4.8,1.2c1.3,0.4,3.3,0.9,4.1,2C275.2,81.4,273.6,83.3,273,84.3z"/>
	<circle class="st4" cx="269.2" cy="69.9" r="13.2"/>
	<path class="st5" d="M267,96.5c0.6-1.2,1.8-2,2.9-2.8c1.1-0.8,2.2-1.7,2.4-3.1c0-0.3,0.1-0.6,0.2-0.9c0.4-0.6,1.4-0.3,2,0.1
		c1.5,1.1,2.5,2.8,3.4,4.3c1.3,1.9,2.3,3.9,3.2,6.1c1.4,3.7,1.6,7.7,1.7,11.6c0.1,3.6,0.3,7.2-0.6,10.7c-0.5,2.2-1.5,4.3-1.5,6.6
		c-0.2,8.2-3,16.1-3.2,24.3c0,2.4,0.1,4.7,0.4,7.1l0.5,5.3c-7.2-0.4-14.4-1-21.6-1.9c-0.2-2.5-0.9-4.8-1.6-7.2
		c-2.6-9.7-4.3-19.7-5-29.7c-0.4-5.3-0.8-10.6-1.4-15.9c-0.5-4.8-1.6-9.7-0.9-14.5c0.3-2.2,1-4.3,2-6.3c0.3-0.8,0.9-1.4,1.6-1.9
		c0.4-0.2,0.7-0.3,1.1-0.4c1.1-0.2,2.3-0.4,3.4-0.4c0.3,0,0.6,0,0.8,0.1c0.5,0.2,0.9,0.6,1.1,1.1C260.2,92.3,263.4,94.9,267,96.5z"
		/>
	<path class="st6" d="M260.9,95.4c0.9,1.3,2.9,1.6,3.7,3c0.3,0.6,0.5,1.2,0.7,1.8c0.5,1.7,1.6,3.1,2.2,4.7c0.9,2.3,0.9,4.9,1,7.4
		c0.1,2-0.1,4-0.5,6c-0.3,1.2-0.8,2.4-1.1,3.6c-0.6,2.1-0.8,4.2-0.7,6.4c0,0.5,0.1,0.9,0.4,1.3c0.3,0.4,0.8,0.7,1.3,0.9
		c1.5,0.6,3,1.3,4.6,1.1c0.3,0,0.6-0.1,0.9-0.3c0.2-0.2,0.3-0.4,0.4-0.6l1-1.7c0.9-1.5,1.8-3.3,1.5-5c-0.3-0.9-0.6-1.8-1.1-2.6
		c-0.6-1.3-1.2-2.6-1.6-4c-1.6-4.6-3.2-9.2-3.5-14c-0.2-1.8,0-3.7,0.6-5.4c0.5-1.1,1.1-2.1,1.7-3c-0.3-0.4-0.9-0.6-1.4-0.5
		c-0.5,0.2-1,0.4-1.4,0.6c-1.5,0.6-3.1,0.4-4.6,0c-0.6-0.2-1.5-0.7-2.1-0.7C262.6,94.4,261,95.5,260.9,95.4z"/>
	<path class="st5" d="M272.6,95.4c-0.3-0.2-0.8-0.5-1-0.2c-0.1,0.1-0.2,0.3-0.2,0.4c-0.3,0.7-1,1-1.7,1.3c-0.7,0.3-1.4,0.4-1.9-0.1
		c-0.3-0.4-0.2-0.9,0.1-1.3c0.3-0.4,0.7-0.7,1.1-0.9c2.3-1.6,3.8-4.1,4.3-6.8c0.6,0.5,1.1,1.2,1.2,2.1c0.2,0.8,0.2,1.6,0.3,2.4
		c0.2,1.1,0.8,2.2,0.9,3.3c0.1,0.6,0,1.2,0,1.8c0,0.6,0.1,1.2,0.2,1.8C274.8,97.9,274,96.5,272.6,95.4z"/>
	<path class="st5" d="M262.5,92c-0.5-0.5-1-0.9-1.5-1.4c-2.2-2.1-3.8-4.7-4.8-7.6c-0.6,0.5-1.3,1.2-1.4,2c0.1,0.6,0.3,1.2,0.7,1.6
		c1.9,3,3.1,6.3,3.6,9.7c0.5-0.9,1.5-1.4,2.5-1.3c0.8,0,4.3,2.1,4.6,1.6C266.6,95.7,263.1,92.5,262.5,92z"/>
	<path class="st1" d="M273.6,88c4.7,4.7,10.4,8.1,16.7,10.1c0.6,0.1,1.2,0.4,1.7,0.9c0.4,0.4,0.6,1,0.7,1.5c1.2,4.7,1.6,9.6,2,14.5
		c0.1,0.8,0.1,1.6,0,2.4c-0.3,1.3-1.2,2.4-2.1,3.3c-2.9,3.1-6.1,6.3-6.6,10.4c0,0.8-0.1,1.6-0.3,2.4c-0.2,0.9-0.8,1.7-1.1,2.6
		c-1.7,4.4,2.1,9.8-0.2,13.9c1.2,2.4,2.1,4.9,2.5,7.6c0.1,1,0.3,2,0.7,2.9c0.7,1.4,2.1,2.3,3.2,3.5c3.4,3.4,3.8,8.7,4,13.5
		c0.1,2.7,0.1,5.8-2,7.6c-1.2,1-2.8,1.4-4.4,1.6c-2.1,0.3-4.3,0.6-6.2-0.4c-1.3-0.7-2.2-2-3.1-3.3c-1.6-2.4-3.3-4.7-4.8-7.2
		c-2.4-3.8-4.8-8.2-4-12.7c-0.2,4.6-1.2,9.2-3.4,13.2s-5.9,7.4-10.3,8.7c-4.4,1.3-9.6,0.4-12.8-2.8c-1.1-1.1-2-2.3-2.7-3.7
		c-1.9-3.2-3.2-6.7-4-10.3c-0.2-0.9-0.4-2,0.1-2.8c0.2-0.4,0.6-0.7,0.8-1.1c0.8-1.3,0-3-0.7-4.4c-1.2,0.1-2-1.3-1.9-2.4
		c0.1-1.2,0.8-2.2,1.3-3.2c1.4-3.1,1.1-6.8,0.4-10.1c-0.7-3.4-1.7-6.7-1.7-10.1c0.1-3.6-2.5-6.9-4.5-9.9c-1.1-1.7-2.4-3.3-3.4-5.1
		c-2-3.8-2.5-8.2-1.3-12.3c0.7-2.1,1.6-4.1,2.7-6.1l1.6-3.1c0.6-1.5,1.9-2.6,3.5-3l11.3-4.5c1.5-0.5,2.8-1.2,4.1-2
		c1.4-1,2.4-2.5,3.7-3.6c0.4-0.4,0.9-0.6,1.5-0.7c1.1,0.1,1.4,1.4,1.6,2.5c0.2,2.3,2,4.3,2.6,6.6c3.2,12.6,10,24.2,11.8,37.1
		c2.1-5,4.2-10,6.8-14.8c0.4-0.7,0.8-1.4,1.1-2.1c0.3-1.1,0.4-2.2,0.4-3.3c-0.1-3.2-1-6.4-1.8-9.5C275.8,96.2,274.8,92.2,273.6,88z"
		/>
	<path class="st1" d="M295.2,126.5c0.2,2.1,0.4,4.2,0.8,6.3c0.5,2.4,1.2,4.8,1.8,7.2c0.3,1.3,0.8,2.6,1.4,3.8
		c0.2,0.4,0.4,0.7,0.5,1.1c0.2,1-0.3,2-0.6,3c-0.7,3,1.4,6.3,0.1,9c-0.4,0.8-1.1,1.5-1.4,2.4c-0.3,1,0,2.1,0.2,3.2
		c0.4,3-0.6,6-1.6,8.9l-1.7,4.8c-1.6-2.9-3.1-5.8-5.3-8.3c-0.8-0.9-1.6-1.7-2.3-2.7c-1.1-1.5-1.9-3.1-2.5-4.8
		c-1.5-4.1-2.4-8.4-2.6-12.8c-0.1-1.2,0-2.5,0.4-3.7c0.3-0.7,0.7-1.3,1.1-2c1.3-2.4,1.6-5.2,1.6-8c0-2.7-0.3-5.5,0-8.2
		c0.3-2.3,0.9-4.5,2-6.5c0.6-1.3,1.5-2.5,2.7-3.4c0.9-0.6,1.9-1,3-1c1.6,0.1,1.3,1.5,1.4,2.8L295.2,126.5z"/>
	<path class="st1" d="M222.1,119.8c-1,3-1.9,6-2.7,9c-0.8,3-1.5,6-2.1,9c-0.3,1.3-0.5,2.7-0.5,4c0.1,1.6,0.3,3.2,0.8,4.7
		c3.2,11.5,9,22.2,15.6,32.2c1.9-2.3,4.1-4.4,6.6-6c0.2-0.1,0.4-0.3,0.5-0.5c0.1-0.4,0.1-0.8-0.2-1.2c-1.8-3.7-4.7-7-5.6-11
		c-0.4-1.7-0.4-3.4-0.8-5.1c-0.6-2.2-1.8-4.1-2.1-6.4c-0.3-2.4,0.5-5-0.6-7.2c2.3-0.9,3.6-3.3,4.6-5.6c1-2.3,1.8-4.8,2.2-7.3
		c0.7-4.8-0.3-9.8-2.7-14c-1.2-2.1-2.7-4-4.5-5.6c-0.6-0.5-2-2.1-2.8-2c-1.1,0-1.5,1.9-1.8,2.7C224.6,112.9,223.3,116.3,222.1,119.8
		z"/>
	<path class="st4" d="M242.7,175.4c0.1,0.1,0.3,0.3,0.3,0.4s-0.2,0.2-0.3,0.3c-0.7,0.5-1.2,1.2-1.4,1.9c-0.8,1.9-1.5,3.8-2.2,5.7
		c-1.1-1.7-2.4-3.2-3.9-4.5c-1.1-1-2.4-2-3-3.4c0,0,2.6-2,2.8-2.2c0.7-0.7,1.6-2.5,2.4-2.9c0.9-0.4,1.7,1.3,2.3,2
		C240.7,173.7,241.7,174.6,242.7,175.4z"/>
	<path class="st3" d="M283.1,67.9c0-0.7-0.1-1.4-0.6-1.8c-0.4-0.3-1-0.4-1.5-0.4c-2.9-0.1-5.9,0.4-8.6-0.6c-1.8-0.6-3.3-1.9-5.1-2.6
		s-4-1-5.4,0.3c-1.1,1-1.4,2.5-1.7,3.9c-0.8,3.1-2.3,6-4.3,8.5c-1.3-0.4-2.3-1.6-2.9-2.9c-2.1-4.3-1.1-9.4,0.4-14
		c0.5-1.5,1-3,1.6-4.6l1.2-3.3c1.6-0.2,3.1-0.9,4.2-2.1l0.5,1.3c1.3,0,2.6-0.5,3.7-1.3c0.4,0.8,1.5,1,2.4,0.7c0.9-0.3,1.6-0.7,2.5-1
		c2.3-0.7,4.8,0.4,7.2,0.5c1,0,2.1,0,3.1,0.1c2.9,0.5,4.9,3.2,5.8,5.9c0.6,1.8,1.1,4.1,2.9,4.8c0,0.7-1.2,0.8-1.3,1.5
		c0,0.2,0,0.4,0.1,0.6l1.7,3.6c-0.8,0.2-1.6,0.2-2.4-0.1C285.7,66.7,283.2,69.2,283.1,67.9z"/>
	<path class="st4" d="M367.5,75.6c0.8,2.7,1.5,5.5,2,8.3c0.4,2.1,0.6,4.4-0.6,6.2c4.6-6.9,9.4-14.1,16.4-18.5
		c-2.9-3.1-4.3-7.3-3.9-11.5c0-0.4-5.7,1.8-6.2,2c-2,1.1-3.9,2.5-5.9,3.7c-1,0.6-5.3,2.1-5.3,3c0,0.6,1.7,2.3,2,2.9
		C366.6,73,367.1,74.3,367.5,75.6z"/>
	<path class="st2" d="M388.9,336.7c-2.3-1.6-5.3-1.9-7.9-0.6c-2.3,1.2-3.8,3.4-5.8,4.9c-3.5,2.6-8.2,2.8-12.3,4.1
		c-1.1,0.4-2.3,0.9-2.7,2c-0.3,0.9-0.2,1.9,0.2,2.8c0.7,1.5,1.9,2.8,3.4,3.5c1.8,0.9,4,0.9,6,0.9l17.8,0.2c5.5,0.1,11,0.1,16.4,0.8
		c1.3,0.2,2.6,0.3,3.8-0.3c1.8-1,2-3.5,1.9-5.6c-0.4-5.3-1.5-10.4-3.5-15.3c-0.2-0.5-0.5-1.2-1.1-1.3c-0.4,0-0.8,0.1-1.2,0.4
		c-5,3-11.4,4.7-16.7,2.3"/>
	<path class="st1" d="M397.8,223.2c-2,11.5-0.7,23.4,1.5,34.9c0.4,2.3,1,4.6,1.6,6.8c0.8,2.5,1.9,5,2.6,7.5
		c1.9,6.5,1.6,13.4,1.4,20.1l-1.3,30.7c-0.1,2.6-0.2,5.2,0.6,7.7c0.3,1,0.7,2.2-0.1,2.9c-0.3,0.2-0.7,0.4-1,0.4
		c-3.6,0.7-7.2,0.1-10.4-1.6l-0.4-31c-0.1-9.6-0.2-19.2-1.7-28.6c-1.2-7.5-3.2-14.9-3.3-22.5c-0.1-8,1.8-15.8,3.8-23.5
		c0.4-1.6,2-2.9,3.3-4c0.4-0.4,1-0.8,1.6-1C396.5,221.9,397.4,222.7,397.8,223.2z"/>
	<path class="st7" d="M397.8,223.2c-2,11.5-0.7,23.4,1.5,34.9c0.4,2.3,1,4.6,1.6,6.8c0.8,2.5,1.9,5,2.6,7.5
		c1.9,6.5,1.6,13.4,1.4,20.1l-1.3,30.7c-0.1,2.6-0.2,5.2,0.6,7.7c0.3,1,0.7,2.2-0.1,2.9c-0.3,0.2-0.7,0.4-1,0.4
		c-3.6,0.7-7.2,0.1-10.4-1.6l-0.4-31c-0.1-9.6-0.2-19.2-1.7-28.6c-1.2-7.5-3.2-14.9-3.3-22.5c-0.1-8,1.8-15.8,3.8-23.5
		c0.4-1.6,2-2.9,3.3-4c0.4-0.4,1-0.8,1.6-1C396.5,221.9,397.4,222.7,397.8,223.2z"/>
	<path class="st1" d="M360.5,187.2c-0.7,3,0.8,6.2,0.7,9.3c-0.1,1.9-0.8,3.8-0.5,5.6c0.3,1.8,1.7,3.2,2.4,4.9
		c0.5,1.4,0.8,2.9,0.8,4.4c0.2,3.7,0,7.5-0.1,11.2c-0.2,6.2-0.4,12.5,0.4,18.6c0.7,5.3,2.2,10.5,4.3,15.5c0.7,1.3,1.2,2.7,1.6,4.2
		c0.3,1.3,0.5,2.7,0.5,4c0.5,4.4,1.7,8.7,3.5,12.8c1.3,2.8,3.5,5,4.2,7.9c0.7,2.8,0.2,5.8,0.7,8.6c0.4,2.1,1.2,4.1,1.7,6.2
		c0.6,2.7,0.6,5.5,0.9,8.2c0.9,8,4.5,15.9,2.4,23.6c-0.4,1.6-1.1,3.1-0.8,4.7c0.1,0.8,0.5,1.5,0.4,2.3c-0.1,0.7-0.6,1.2-0.9,1.8
		c-0.5,1.2,0,2.5,0.9,3.4c0.9,0.8,2,1.5,3.2,1.9c3.7,1.6,7.5,3.2,11.4,3.1c0.5,0,1-0.1,1.4-0.3c0.7-0.4,1.1-1.2,1.4-1.9l2-5
		c0.2-0.6,0.5-1.3,0.2-1.9c-0.2-0.3-0.5-0.6-0.9-0.8c-1.6-1.4-1.3-4-0.8-6.1c1.1-5.3,1.7-10.8,1.8-16.3c0.2-10.9-1.6-21.7-3.4-32.5
		c-0.6-3.7-1.2-7.5-2.5-11.1c-1.2-3.6-3.1-7-2.8-10.7c0.3-4-0.7-8.2,0-12.2c0.7-4,1.9-7.8,2.6-11.8c1-5.1,1.2-10.4,1.5-15.6
		c0.1-2.1,0.3-4.3,1.3-6.2c0.6-1.1,1.4-2,2.1-3.1c1.7-2.8,1.9-6.2,3.6-9c0.8-1.3,1.8-2.5,2.4-3.9c0.4-1.1,0.6-2.3,0.6-3.5
		c0.2-3,0-6-0.5-9c-8.5-4.3-17.8-6.5-27.3-6.3c-3.6,0.1-7.3,0.4-10.7,1.7C366.9,185.2,363.9,186.9,360.5,187.2z"/>
	<path class="st2" d="M380.9,344.6c-1.5,1.8-1.4,4.4-2.3,6.6c-1.1,2.6-3.7,4.3-6.1,5.8l-14.9,9.4c-0.8,0.5-1.7,1.1-2,2
		c-0.1,0.6-0.1,1.2,0.1,1.8c0.7,2.5,2.7,4.5,5.2,5.3c1.3,0.3,2.7,0.5,4,0.4l6.7,0.1c2,0.1,4.1,0,6.1-0.2c1.9-0.3,3.7-0.8,5.5-1.1
		c3.4-0.6,6.8-0.6,10.2-1.1c2.1-0.4,4.1-0.9,6.1-1.6c2.4-0.7,4.9-1.5,7-2.9c0.6-0.3,1-0.9,1.3-1.5c0.4-0.8,0.2-1.8,0-2.6l-3.2-14.1
		c-0.2-1.2-0.6-2.3-1.3-3.3c-0.7-0.9-2-1.6-3.1-1.2c-0.5,0.2-0.9,0.5-1.3,0.8c-1.6,1.1-3.7,1.3-5.7,0.9c-1.3-0.2-2.9-0.6-3.9-1.4
		c-0.8-0.6-1-1.6-1.6-2.3c-1.8-1.8-4.8-1.9-6.6-0.1C381.1,344.4,381,344.5,380.9,344.6z"/>
	<circle class="st4" cx="371.2" cy="55.7" r="18"/>
	<path class="st3" d="M357.3,56.8c1.7-1,1.7-3.7,3.5-4.7c1.8-0.9,3.8,0.7,4.9,2.3c1.6,2.4,2.8,5.1,3.4,7.9c0.2,0.8,0.3,1.7,0.9,2.2
		c0.6,0.6,1.4,0.6,2.2,0.7c2.3,0.2,4.5,0.4,6.8,0.6c2.5,0.2,5.2,0.4,7.5-0.7c0.9-0.4,1.7-1.1,2.3-1.9c0.5-0.8,0.8-1.6,1-2.5
		c1.2-4.5,2.4-9.1,2.5-13.8c0-1.9-0.1-3.9-1.1-5.6c-0.5-1-1.3-1.9-1.6-3s0.5-2.5,1.6-2.4c-1,0-2-0.2-3-0.6c-0.9-0.5-1.6-1.6-1.2-2.5
		c-2.5,0.3-4.4-2.2-6.3-3.8c-0.3-0.3-0.8-0.5-1.2-0.5c-0.3,0.1-0.7,0.2-1,0.4c-1,0.3-2-0.3-3.1-0.6c-2.7-0.8-6.2,1.1-8.2-0.9
		c0.2,1.3-1.4,2.1-2.6,2.1c-1.3,0-2.6-0.5-3.8-0.1c0.7,1.2,0.2,2.7-1,3.4c-0.1,0.1-0.3,0.1-0.4,0.2l0.6,1.3
		c-1.3,0.3-2.3,1.2-2.6,2.4c-0.7,2.6-0.5,6.3-0.3,9C357,47.1,358.1,56.4,357.3,56.8z"/>
	<path class="st6" d="M372.7,78.9c-9,10.1-11.3,24.4-13.2,37.9l-2.8,19.8c-0.7,5.1-1.5,10.3-2.1,15.5c-0.4,3.5-0.9,7.1-0.4,10.7
		c0.4,2.8,1.3,5.5,2.1,8.1c2,7,3,14.3,3,21.6c0.6-1.8,2.7-2.5,4.5-2.9c15.3-3.3,31.4-1.6,45.7,4.9c2.5-7,2-14.7,2.7-22.2
		c1-10.6,4.4-20.9,5.4-31.5c0.4-3.9,0.4-7.9,0.5-11.9c0-2.9,0.1-5.8-0.5-8.7c-0.7-3.2-2.1-6.1-3.6-8.9c-4.1-7.9-8.6-15.6-13.6-23.1
		c-2.5-3.7-5.1-7.4-7.8-11c-1.4-1.8-2.8-3.6-4.2-5.4c-1.4-1.7-2-3.2-4.2-2.2C379.9,71.7,375.7,75.5,372.7,78.9z"/>
	<path class="st4" d="M377.8,163.3c-2.2,0.1-4.4,0-6.6-0.2c-1.6-0.2-3.3-0.4-4.9,0c-0.7,0.2-1.3,0.5-1.9,0.9c-0.6,0.5-0.6,1.4-0.1,2
		c0.2,0.3,0.6,0.4,0.9,0.5l1.7,0.1c1.1,0.1,2.2,0.2,3,1c0.3,0.3,0.6,0.7,0.6,1.2c0.1,1.2-0.9,1.8-1.8,2.3c-1.3,0.6-2.5,1.4-3.5,2.3
		c-0.8,0.8-1.3,1.8-1.5,3c0,0.3,0.2,0.6,0.6,0.6c0.1,0,0.2,0,0.3-0.1c2-1,3.3-3.9,5.5-3.4c-2,0.6-3.7,1.9-4.8,3.7
		c-0.7,1-0.4,2.4,0.6,3.1c0.7,0.5,1.6,0.5,2.3,0.1c0.3-0.2,0.6-0.4,0.9-0.6c1.5-1.2,2.8-2.6,3.9-4.1c-1.6,3.4-3.2,7.3-1.4,10.6
		c0.2,0.4,0.6,0.6,1,0.6c0.6-0.1,0.7-0.6,0.8-1.1c0.3-1.5,0.4-3.2,1.1-4.5c1.7-3.2,6.1-3.5,9.3-5c3.9-1.8,6.6-5.8,7.7-10
		c0.4-1.2,0.4-2.5,0.2-3.8c-0.7-2.8-4.2-3.5-6.5-2.1C382.9,162.1,381.3,163.2,377.8,163.3z"/>
	<path class="st7" d="M374.3,107.7c3.5,5.4,9.5,8.4,14.7,12.2c1.3,0.8,2.4,1.9,3.3,3.1c1.3,2,1.5,4.6,1.2,7
		c-0.3,3.1-1.3,6.2-2.3,9.1l-2.2,6.5c-1.4,4.1-2.8,8.3-5.4,11.8c-0.7,0.9-1.5,1.8-1.4,2.9c0.1,0.6,0.3,1.2,0.6,1.8
		c1.7,2.8,4.4,4.7,7.6,5.4c0.9,0.2,1.9,0.2,2.9,0c1.3-0.4,2.4-1.5,3.3-2.5c4.5-4.9,8.9-9.9,12.2-15.7c3.2-5.7,5-11.9,6.8-18.1
		c0.7-2.3,1.2-4.6,1.5-7c0.4-4.5-0.8-8.9-2.7-13c-1.9-4-4.6-7.7-7.3-11.3c-2.6-3.5-5.4-6.8-8.5-9.8c-5.4-5.1-12-8-19.3-5.2
		c-5.1,2-7,6.3-7.5,11.7C371.3,100.4,372.3,104.4,374.3,107.7z"/>
	<path class="st6" d="M376.1,106.3c3.5,5.4,9.5,8.4,14.7,12.2c1.3,0.8,2.4,1.9,3.2,3.1c1.3,2,1.5,4.6,1.2,7
		c-0.3,3.1-1.3,6.2-2.4,9.1l-2.2,6.5c-1.4,4.1-2.8,8.3-5.4,11.8c-0.7,0.9-1.4,1.8-1.4,2.9c0.1,0.6,0.3,1.2,0.6,1.8
		c1.7,2.8,4.4,4.7,7.6,5.4c0.9,0.2,1.9,0.2,2.9,0c1.3-0.4,2.3-1.5,3.3-2.5c4.5-4.9,8.9-9.9,12.2-15.7c3.2-5.7,5-11.9,6.8-18.1
		c0.7-2.3,1.2-4.6,1.5-7c0.4-4.5-0.8-8.9-2.7-13c-1.9-4-4.6-7.7-7.3-11.3c-2.6-3.5-5.4-6.7-8.5-9.7c-5.4-5-12-8-19.3-5.2
		c-5.1,2-7,6.3-7.5,11.7C373.1,99.1,374.1,103,376.1,106.3z"/>
	<path class="st1" d="M486,284.6c0,1.3-0.1,2.6-0.4,3.9c0,0.2-0.1,0.5-0.2,0.7c-1.4,5.7-5.4,9.8-10.1,10.1c-0.2,0-0.3,0-0.5,0
		c-5,0-9.3-4.3-10.7-10.3c0-0.2-0.1-0.3-0.1-0.5c-0.3-1.3-0.4-2.6-0.4-3.9c0-8.1,5-14.6,11.2-14.6S486,276.5,486,284.6z"/>
	<path class="st7" d="M486,284.6c0,1.3-0.1,2.6-0.4,3.9c0,0.2-0.1,0.5-0.2,0.7c-0.2,0-0.3,0-0.5,0c-1.2-0.1-2.5-0.2-3.7-0.5
		c-1.1,0.3-2.2,0.6-3.3,0.7c-0.8,0.1-1.7,0.2-2.6,0.2h-0.9c-1,0-2-0.1-3.1-0.2c-1.6-0.2-3.3-0.6-4.8-1.2c-0.9,0.3-1.7,0.5-2.6,0.7
		c0-0.2-0.1-0.3-0.1-0.5c-0.3-1.3-0.4-2.6-0.4-3.9c0-8.1,5-14.6,11.2-14.6S486,276.5,486,284.6z"/>
	<path class="st6" d="M509.9,257.3c0-3.6-0.8-7.1-2.4-10.2l-13.2,4.1l11.5-6.8c-3.9-5.7-10.2-9.2-17.1-9.7c-0.5-0.8-1.1-1.6-1.8-2.3
		l-18.9,5.9l15.5-9.1c-10-7.6-24.2-5.8-31.9,4.2c-1.8,2.4-3.1,5.1-3.9,7.9l16.2,18.6l-17.5-12.7c-10.2,7.3-12.7,21.5-5.4,31.7
		c5.8,8.2,16.2,11.6,25.7,8.4c4.7,1.7,9.8,1.9,14.6,0.4c12.3,2.7,24.4-5.1,27.1-17.3c0.4-1.6,0.5-3.2,0.5-4.9c0-0.5,0-1,0-1.5
		C509.6,261.8,509.9,259.6,509.9,257.3z"/>
	<path class="st7" d="M509.5,261.5c-6.9-1.3-14.1-1.4-21-0.3c-7.9,1.3-16,4.2-23.7,2.1c-4.5-1.2-8.4-4.1-12.9-5.7
		c-4.3-1.5-8.9-1.8-13.3-0.8c-4.8,11.6,0.6,24.9,12.2,29.8c5.1,2.1,10.7,2.3,16,0.6c4.7,1.7,9.8,1.9,14.6,0.4
		c12.3,2.7,24.4-5.1,27.1-17.3c0.4-1.6,0.5-3.2,0.5-4.9c0-0.5,0-1,0-1.5C509.2,263.2,509.4,262.4,509.5,261.5z"/>
</g>
</svg>
