<?xml version="1.0" encoding="utf-8"?>
<!-- Generator: Adobe Illustrator 25.0.0, SVG Export Plug-In . SVG Version: 6.00 Build 0)  -->
<svg version="1.1" id="Layer_1" xmlns="http://www.w3.org/2000/svg" xmlns:xlink="http://www.w3.org/1999/xlink" x="0px" y="0px"
	 viewBox="0 0 700 400" style="enable-background:new 0 0 700 400;" xml:space="preserve">
<style type="text/css">
	.st0{fill:#E6E6E6;}
	.st1{fill:#FD6584;}
	.st2{fill:#DDDDDD;}
	.st3{fill:#3F3D56;}
	.st4{fill:#2F2E41;}
	.st5{fill:#069FCF;}
	.st6{fill:#FFFFFF;}
	.st7{fill:#FFB6B6;}
	.st8{opacity:0.2;enable-background:new    ;}
</style>
<g>
	<path class="st0" d="M346,35.3c-1-3.3-3.8-5.6-7.2-6c-0.1,0-0.1,0-0.1,0s-0.1,0-0.1,0c-5.7-0.7-12.2,1.1-16.4,5
		c-1.6,1.5-2.9,3.2-3.7,5.2c-1.6-2.2-4.3-3.5-7-3.4c-3.6,0.3-6.6,2.7-7.6,6.1c-0.1,0.4,0.1,0.9,0.5,1.1c0.5,0.5,1.1,0.7,1.8,0.9
		c1.4,0.3,2.9,0.6,4.3,0.8c2.8,0.5,5.7,0.9,8.4,1.2c1.9,0.2,3.7,0.3,5.7,0.5c3.9,0.3,7.8,0.3,11.7,0.2c1.9-0.1,3.8-0.1,5.5-1
		c1.3-0.6,2.4-1.6,3.2-2.8C346.3,40.9,346.7,38,346,35.3z"/>
	<g>
		<circle class="st1" cx="307.5" cy="43.5" r="17.2"/>
		<path class="st0" d="M310.6,60.4c0-0.7-0.1-1.5-0.3-2.1c-1-3.3-3.8-5.6-7.2-6c-0.1,0-0.1,0-0.1,0s-0.1,0-0.1,0
			c-3.2-0.4-6.4-0.1-9.4,1c-4.7,1.5-8.8,4.7-10.7,9.2c-1.6-2.2-4.3-3.5-7-3.4c-3.6,0.3-6.6,2.7-7.6,6.1c-0.1,0.4,0.1,0.9,0.5,1.1
			c0.5,0.5,1.1,0.7,1.8,0.9c1.4,0.3,2.9,0.6,4.3,0.8c2.8,0.5,5.7,0.9,8.4,1.2c5.7,0.6,11.5,0.9,17.3,0.7c1.9-0.1,3.8-0.1,5.5-1
			c1.3-0.6,2.4-1.6,3.2-2.8C310.2,64.4,310.7,62.4,310.6,60.4z"/>
		<path class="st2" d="M437.7,277.1h-15.6V32.7c-1.1-0.8-2.1-1.5-3.2-2.3c-0.2-0.1-0.4-0.3-0.7-0.5c-12.4-8.6-25.8-15.8-39.9-21.2
			l-3.1,41.9l0,0h-19.6V1.8c-1.3-0.3-2.5-0.6-3.9-0.9v49.7h-73.6V-0.4c-1.3,0.3-2.5,0.5-3.9,0.7v50.3h-20.1l0,0l-3.2-43.9
			c-13.7,4.8-26.9,11.1-39.1,19c-0.4,0.3-0.9,0.5-1.3,0.8c-0.9,0.5-1.7,1.1-2.5,1.7V277h-22c-9.5,0-17.2,7.7-17.2,17.2
			c0,2.2,0.4,4.4,1.3,6.5c0.3,0.8,0.7,1.5,1.1,2.3c0.5,0.9,1.2,1.9,1.9,2.7c3.3,3.7,8,5.9,13,5.9h251.5c9.5,0,17.2-7.7,17.2-17.2
			C455,284.8,447.3,277.1,437.7,277.1L437.7,277.1z M371.2,108.8L359,277.1h-88.4l-12.2-168.3H371.2z M375.1,54.5l-3,41.5h-16.2
			V54.5H375.1z M352,54.5V96h-29.3c-1.2-2.3-3.6-3.9-6.3-3.9h-3.9c-2.7,0-5.1,1.5-6.3,3.9h-28.1V54.5H352z M274.4,96h-16.9l-3-41.5
			h19.9V96z"/>
		<path class="st3" d="M170.4,304.9c5.6,6.7,11.6,12.8,18.1,18.6l244.1,0.7c6.5-5.8,12.5-12,18.1-18.6L170.4,304.9z"/>
		<path class="st4" d="M293.6,242.6v66h46.2v-66c0-1-0.7-1.9-1.5-2.1c-0.2-0.1-0.5-0.1-0.7-0.1h-41.8
			C294.6,240.4,293.6,241.4,293.6,242.6L293.6,242.6z M311.7,265.3c0-2.7,2.3-4.9,5-4.9c2.7,0,4.9,2.2,4.9,4.9v7.6
			c0,2.7-2.3,4.9-5,4.9c-2.7,0-4.9-2.2-4.9-4.9L311.7,265.3L311.7,265.3z"/>
		<path class="st3" d="M293.5,306.5v6.4c0,0.7,0.5,1.3,1.3,1.3h44c0.7,0,1.3-0.5,1.3-1.3v-6.4H293.5z"/>
		<path class="st3" d="M221,143.3v120.4c0,3.2,2.6,5.8,5.8,5.8h178.4c3.2,0,5.8-2.6,5.8-5.8V143.3c0-3.2-2.6-5.8-5.8-5.8H226.7
			C223.5,137.5,221,140.1,221,143.3z"/>
		<path class="st5" d="M225.1,144.7v117.4c0,1.7,1.4,3.1,3.1,3.1h175.5c1.7,0,3.1-1.4,3.1-3.1V144.7c0-1.7-1.4-3.1-3.1-3.1H228.3
			C226.5,141.7,225.1,143,225.1,144.7z"/>
		<path class="st4" d="M260.9,315.6c0.3,0.5,0.9,0.7,1.5,0.7h104.4c1.1,0,1.9-0.9,1.9-1.9c0-0.1,0-0.3-0.1-0.4l-1.6-7.7
			c-0.1-0.7-0.6-1.1-1.2-1.4c-0.2-0.1-0.5-0.1-0.7-0.1H264c-0.3,0-0.5,0.1-0.7,0.1c-0.6,0.2-1.1,0.7-1.2,1.4l-1.6,7.7
			C260.5,314.5,260.6,315.1,260.9,315.6z"/>
		<path class="st6" d="M264,306.3L264,306.3c-0.2,0.1-0.3,0.1-0.3,0.2l-1.6,7.7c0,0.1,0,0.2,0.1,0.3l0,0c0.1,0.1,0.1,0.1,0.3,0.1
			h104.4c0.1,0,0.2-0.1,0.3-0.1c0.1-0.1,0.1-0.1,0.1-0.3l-1.6-7.7c0-0.1-0.1-0.2-0.2-0.2c-0.1,0-0.1,0-0.1,0H264z"/>
		<path class="st3" d="M233.9,157.8h164.2c0.3,0,0.7-0.3,0.7-0.7c0-0.3-0.3-0.6-0.7-0.7H233.9c-0.3,0-0.7,0.3-0.7,0.7
			C233.3,157.5,233.5,157.8,233.9,157.8z"/>
		<ellipse class="st3" cx="386.9" cy="149.3" rx="3.9" ry="3.9"/>
		<ellipse class="st3" cx="373.7" cy="149.3" rx="3.9" ry="3.9"/>
		<ellipse class="st3" cx="360.5" cy="149.3" rx="3.9" ry="3.9"/>
		<path class="st3" d="M241.2,147.1c0,0.4,0.3,0.7,0.7,0.7l0,0h9.4c0.4,0,0.7-0.3,0.7-0.7c0-0.4-0.3-0.7-0.7-0.7h-9.4
			C241.4,146.3,241.2,146.7,241.2,147.1z"/>
		<path class="st3" d="M241.2,149.7c0,0.4,0.3,0.7,0.7,0.7l0,0h9.4c0.4,0,0.7-0.3,0.7-0.7c0-0.4-0.3-0.7-0.7-0.7h-9.4
			C241.4,149,241.2,149.3,241.2,149.7z"/>
		<path class="st3" d="M241.2,152.4c0,0.4,0.3,0.7,0.7,0.7h9.4c0.4,0,0.7-0.3,0.7-0.7c0-0.4-0.3-0.7-0.7-0.7h-9.4
			C241.4,151.7,241.2,152,241.2,152.4L241.2,152.4z"/>
		<path class="st3" d="M373.6,177.8H258.3c-3.1,0-5.7,2.5-5.7,5.7v56.1c0,3.1,2.5,5.7,5.7,5.7h115.2c3.1,0,5.7-2.5,5.7-5.7v-56.1
			C379.4,180.3,376.8,177.8,373.6,177.8z M378,183.4v16.4h-40.5V179h36.1C376,179.1,378,181.1,378,183.4L378,183.4z M295.7,222
			v-20.8h40.5V222H295.7z M336.3,223.2V244h-40.5v-20.8H336.3z M294.4,222h-40.5v-20.8h40.5V222z M295.7,199.9v-20.8h40.5v20.8
			H295.7z M337.5,201.1H378V222h-40.5V201.1z M258.3,179.1h36.1v20.8h-40.5v-16.4C253.9,181.1,255.9,179.1,258.3,179.1L258.3,179.1z
			 M253.9,239.6v-16.4h40.5V244h-36.1C255.9,244,253.9,242,253.9,239.6z M373.6,244h-36.1v-20.8H378v16.4C378,242,376,244,373.6,244
			L373.6,244z"/>
		<path class="st6" d="M310.1,192c-1-1.7-2.3-3.5-4.1-4.1c-2.2-0.7-4.5,0.6-6.4,1.9c-5.7,3.7-11.2,7.8-16.5,12.2v0.1l12.3-0.9
			c3-0.2,6.1-0.5,8.6-1.9c1-0.5,2-1.3,3.1-1.3c1.4-0.1,2.6,0.9,3.6,1.9c5.7,6.1,7.3,15.3,13.7,20.6
			C320.4,210.7,315.7,201.1,310.1,192z"/>
		<path class="st6" d="M345,243.3c-0.6-0.8-0.9-1-1.5-1.8c-5.1-6.5-9.8-13.3-14.2-20.2c-3-4.7-5.9-9.6-8.6-14.5
			c-1.3-2.3-2.5-4.7-3.8-7c-0.9-1.9-1.9-3.7-2.8-5.6c-0.3-0.5-0.5-1.1-0.7-1.6c-0.6-1.3-1.2-2.5-1.8-3.8c-0.7-1.5-1.6-2.8-2.9-3.9
			c-0.6-0.5-1.3-0.7-2.1-0.8c-1.1,0-2.1,0.3-2.9,0.9c-6.7,3.5-13,7.8-18.8,12.9c-5.7,5-10.8,10.7-15.2,16.9c-0.1,0.2-0.5,0-0.3-0.2
			c0.5-0.7,1.1-1.5,1.7-2.3c6.9-9.2,15.4-17.1,25-23.3c1.6-1.1,3.3-2.1,5-3c0.9-0.5,1.7-0.9,2.6-1.4c0.8-0.5,1.8-0.8,2.7-0.9
			c3.3-0.1,5,3.7,6.2,6.2c0.4,0.8,0.7,1.6,1.1,2.4c1.4,3,2.9,5.9,4.5,8.9c0.9,1.8,1.9,3.6,2.9,5.4c3.1,5.6,6.4,11,9.8,16.4
			c4.6,7.1,9.2,13.4,14.4,20C345.4,243.2,345.2,243.5,345,243.3z"/>
		<path class="st6" d="M284.7,196.2c-0.2-0.2-0.4-0.4-0.6-0.7c-1.5-1.7-3.1-3.3-5.3-4.3c-1-0.5-2.1-0.7-3.2-0.7
			c-1.1,0-2.3,0.3-3.3,0.7c-0.5,0.2-1,0.4-1.5,0.7c-0.5,0.3-1.1,0.6-1.6,0.9c-1,0.5-2,1.1-3,1.7c-1.9,1.2-3.9,2.5-5.7,3.9
			c-0.9,0.7-1.9,1.5-2.8,2.3c-0.9,0.7-1.7,1.5-2.5,2.2c-0.2,0.1-0.5-0.1-0.3-0.3c0.2-0.2,0.4-0.4,0.7-0.6c0.6-0.5,1.3-1.1,1.9-1.6
			c1.1-1,2.3-1.9,3.5-2.8c1.9-1.4,3.9-2.7,5.9-3.9c1-0.6,2-1.2,3.1-1.7c0.3-0.2,0.6-0.3,0.9-0.5c0.7-0.3,1.5-0.7,2.3-0.9
			c1.1-0.3,2.3-0.5,3.4-0.3s2.2,0.5,3.1,1.1c2.1,1.1,3.7,2.9,5.2,4.7C285.1,196,284.9,196.3,284.7,196.2z"/>
		<path class="st6" d="M326.8,213.6l4.9-1.8l2.5-0.9c0.8-0.3,1.6-0.6,2.4-0.8c0.7-0.2,1.5-0.2,2.2,0c0.7,0.3,1.2,0.6,1.7,1.1
			c0.5,0.5,1,0.9,1.4,1.5c0.5,0.7,1.1,1.3,1.6,1.9c2.2,2.7,4.3,5.3,6.5,8c2.1,2.7,4.3,5.4,6.4,8c2.1,2.7,4.3,5.5,6.3,8.2
			c0.3,0.3,0.5,0.7,0.8,1c0.1,0.2,0.5,0,0.3-0.2c-2.1-2.8-4.3-5.5-6.4-8.2s-4.3-5.5-6.5-8.2c-2.2-2.7-4.4-5.5-6.6-8.1
			c-0.5-0.7-1.1-1.3-1.7-2c-0.5-0.6-0.9-1.1-1.5-1.7c-0.9-1.1-2.1-1.7-3.5-1.9c-0.8,0-1.6,0.2-2.4,0.5c-0.8,0.3-1.7,0.6-2.5,0.9
			l-5,1.8l-1.3,0.5C326.5,213.3,326.6,213.6,326.8,213.6L326.8,213.6z"/>
		<path class="st6" d="M278.2,193.3c-2.6-1.3-5.7-1.1-8,0.6c4.4,0.7,8.7,1.8,13,3.1C281.4,195.8,280.1,194.2,278.2,193.3z"/>
		<path class="st6" d="M270.2,193.8l-0.5,0.4C269.9,194.1,270,194,270.2,193.8L270.2,193.8z"/>
		<path class="st6" d="M340.3,213.6c-0.4-0.7-1.1-1.1-1.7-1.5h-0.7c5.1,9.1,12.1,17,20.4,23.3L340.3,213.6z"/>
		<circle class="st6" cx="337.1" cy="199.7" r="3.9"/>
		<path class="st3" d="M393.7,243c1.6,0,2.9-1.3,2.9-2.9v-59.8c0-1.6-1.3-2.9-2.9-2.9c-1.6,0-2.9,1.3-2.9,2.9v59.8
			C390.7,241.8,392.1,243,393.7,243z"/>
		<path class="st4" d="M393.7,243c1.6,0,2.9-1.3,2.9-2.9v-12.7c-1.2-1.6-3.4-1.9-5-0.8c-0.3,0.2-0.5,0.5-0.8,0.8v12.7
			C390.7,241.8,392.1,243,393.7,243z"/>
		<path class="st5" d="M393.7,230.8c1.7,0,3.1-1.4,3.1-3.1V214c-1.3-1.7-3.7-2.1-5.4-0.8c-0.3,0.2-0.6,0.5-0.8,0.8v13.6
			C390.5,229.4,391.9,230.8,393.7,230.8z"/>
		<path class="st3" d="M393.7,228.3c1.3,0,2.3-1,2.3-2.3v-10c-0.9-1.3-2.7-1.5-3.9-0.6c-0.2,0.2-0.5,0.4-0.6,0.6v10
			C391.4,227.3,392.4,228.3,393.7,228.3z"/>
		<path class="st5" d="M304.3,310.2c-1.1-0.9-1.1-2.6-0.2-3.7l25.3-28.3c0.9-1.1,2.6-1.1,3.7-0.2c1.1,0.9,1.1,2.6,0.2,3.7L308,310
			C307.1,311.1,305.4,311.2,304.3,310.2z"/>
		<path class="st0" d="M514.1,356.8c0,4.7-1.1,8.2-1,11.2c-7.6,3.3-15.4,6.1-23.3,8.4c-0.9,0.3-1.8,0.5-2.7,0.7
			c-4.9-15-9.8-28.8-11.8-30.3c-4.5-3.3-6.7,10.4-6.7,7.1s2.2-3.3-3.3-7.8c-5.5-4.5-2.2-24.4-2.2-24.4l-7.8-20L464,270l11.2-41.3
			h11.1c0,0,0.3,0.3,0.9,0.7c2.8,2.3,11.1,9.8,10.2,18.2c-0.3,2.5,0.3,9.7,1.4,19.3c3.3,29,10.8,60.5,10.8,68.9
			C509.7,346.8,514.1,350.2,514.1,356.8z"/>
		<path class="st3" d="M504.8,266.8L504.8,266.8c-0.3-0.7-0.5-1.4-0.9-2c-1.9-3.5,0.1-8.9-2-14.9c-3.4-9.6-7.6-15.4-13.6-20.5
			c-0.2-0.1-0.3-0.3-0.5-0.5l0,0c-4.1-3.3-9-6.5-15-10.3c-1.3-0.8-2.6-1.7-4-2.5c-1.8-1.1-1.7-4.9-1.6-9c0.1-4.5,0.3-9-1.9-12
			l-0.1-0.2l-0.2-0.1c-7.5-1.5-15.2-2.1-22.8-1.7l0,0c-3.3,0.1-6.5,0.6-9.6,1.4c-0.2,0.1-0.5,0.1-0.7,0.2c-0.2,0.1-0.3,0.1-0.5,0.1
			l-0.1,0.1l-0.1,0.1c-2.1,2.1-2.6,5.9-2.9,9.8l0,0c-0.1,0.7-0.1,1.5-0.1,2.1c-0.2,3.9-0.3,7.4-1.7,9c-3.1,3.6-7,6.5-11.2,8.6
			c-6.7,3.3-11.9,3.2-12,3.2h-0.6l-0.1,0.6c-4.4,8.4-4.3,30.1-4.4,53.3c0,1.3,0,2.6,0,3.9c-0.1,10.8-0.3,21.8-1.1,31.9
			c-0.3,4.3-0.8,8.4-1.4,12.3c-3,18.8-16.4,3.2-22.9,15.7c0.2,1.2,0.6,2.4,1.1,3.6c0.7,0.5,1.5,0.9,2.3,1.3
			c3.3,1.9,6.7,3.6,10.2,5.2c0.2,0.1,0.4,0.2,0.6,0.3c6.3,2.9,12.9,5.5,19.6,7.4c1.3,0.4,2.6,0.8,3.9,1.1c11.6,3.2,23.7,5,35.8,5.4
			c0.1,0,0.1,0,0.1,0c14.3-0.4,28.5-2.5,42.4-6.1c0.2-0.1,0.4-0.1,0.6-0.1c0.9-0.3,1.8-0.5,2.7-0.7c8-2.3,15.8-5.1,23.3-8.4
			c0,0.3,0.1,0.5,0.1,0.9c0,0.1,0,0.2,0.1,0.3c0-0.1,0-0.2,0-0.3c0.1-0.3,0.1-0.6,0.1-0.9C519.3,315.9,511.1,283.3,504.8,266.8z"/>
		<path class="st7" d="M416.4,172.7c9.5,17.4,31.4,23.9,48.9,14.3c17.4-9.5,23.9-31.4,14.3-48.9c-9.5-17.4-31.4-23.9-48.9-14.3
			c-7.3,4-13,10.4-16.2,18.2c-0.1,0.4-0.3,0.8-0.5,1.3C410.7,153,411.5,163.7,416.4,172.7z"/>
		<path class="st4" d="M411.3,143.3c1.5-4.3,0.9-2.1,2.5-6.4c-1,3.8,0.6,6,0.5,6.4H457v-24.9c-12.6-5-24.8-9.2-32.3,0
			c-13.8,0-24.9,11.2-24.9,24.9H411.3z"/>
		<path class="st4" d="M426.4,212.6c0-0.5,0.1-0.9,0.1-1.4c0.5-3.4,1.6-6.7,2.8-9.9c1.3-3.5,2.5-7,3.7-10.4c-1.6,6.3-1.1,13,1.4,19
			c7.2-5.7,2.7-18.6,12.1-18.6c22.7,0,46.2-18.4,46.2-41.2c0-22.7-9.8-39.8-32.5-39.8c-22.7,0-41.2,10.4-41.7,33.2
			C446.7,150.1,421.2,210.2,426.4,212.6z"/>
		
			<ellipse transform="matrix(0.3827 -0.9239 0.9239 0.3827 191.3791 526.8631)" class="st4" cx="489.9" cy="120.2" rx="26.4" ry="26.4"/>
		<path class="st4" d="M531.1,271.4c-0.1,1.3-0.2,2.8-0.3,4.3c-1.4,28.9-0.2,67.7-9.4,88.8c-2.1,1.1-4.1,2.2-6.3,3.3
			c-0.1,0.1-0.1,0.1-0.2,0.1c-0.6,0.3-1.1,0.5-1.7,0.8c0,0-0.1,0-0.1,0.1c-6.2,2.9-12.6,5.5-19.2,7.5c-0.8,0.3-1.6,0.5-2.4,0.7
			c-0.2,0.1-0.3,0.1-0.5,0.1c-12.4,3.7-25.1,5.7-38,6.1c-0.7,0-1.3,0-1.9,0.1c-0.2,0-0.5,0-0.7,0c-0.7,0-1.5,0-2.1,0
			c-1.5,0-2.9,0-4.3-0.1c-12.1-0.3-24.1-2.1-35.8-5.4c-1.3-0.3-2.6-0.7-3.9-1.1c-6.7-2.1-13.2-4.5-19.6-7.4
			c-0.2-0.1-0.4-0.2-0.6-0.3c-3.5-1.6-6.8-3.3-10.2-5.2c-0.7-0.4-1.5-0.9-2.3-1.3c-0.5-1.1-0.9-2.3-1.1-3.6c-1.5-7-2.7-2.3-3.5-16.9
			c-0.8-13.4-1.3-26.8-1.5-34.4c-0.1-2.1-0.1-3.7-0.1-4.8c0.7-4.9,11.6-10.4,27.6-15.6c1.5-0.5,3.1-1,4.7-1.5
			c4.3-1.3,8.9-2.7,13.8-3.9c12.3-3.2,25.9-6.2,39.4-8.6c6.7-1.2,13.4-2.3,19.8-3.2c11.3-1.6,22.1-2.7,31.3-3.2
			c0.9-0.1,1.7-0.1,2.6-0.1c0.9-0.1,1.8-0.1,2.7-0.1C520.7,266.4,529.7,267.8,531.1,271.4z"/>
		<path class="st8" d="M531.1,271.4c-0.1,1.3-0.2,2.8-0.3,4.3c-10-10.8-118,37.4-163.7,66.4c-0.8-13.4-1.3-26.8-1.5-34.4
			c-0.1-2.1-0.1-3.7-0.1-4.8c0.7-4.9,11.6-10.4,27.6-15.6c1.5-0.5,3.1-1,4.7-1.5c4.3-1.3,8.9-2.7,13.8-3.9
			c12.3-3.2,25.9-6.2,39.4-8.6c6.7-1.2,13.4-2.3,19.8-3.2c11.3-1.6,22.1-2.7,31.3-3.2c0.9-0.1,1.7-0.1,2.6-0.1
			c0.9-0.1,1.8-0.1,2.7-0.1C520.7,266.4,529.7,267.8,531.1,271.4z"/>
		<path class="st7" d="M311.6,304.9c3.8,4.8,10.8,5.7,15.6,1.8c0.5-0.4,1-0.9,1.4-1.3l36.6,15l-3.9-20.2L327.2,289
			c-4.9-3.8-11.9-2.9-15.7,2C308.3,295.2,308.3,300.9,311.6,304.9z"/>
		<path class="st3" d="M433.4,220.8h-0.2l-21.3,1.5c-5.5,0.4-10.5,3.1-13.8,7.5c-0.8,1-1.4,2.1-2,3.2l0,0c-1.9,3.8-2.4,8-1.6,12.2
			l10,50.6l-24.2-2.2l-8.8,1.5l-10.4-4.2l-21.4,0.3l-0.5,1.7l-4.5,14.9l-0.3,1.2l32.7,20.5l9.4-2.9l4.5,3.5h0.2l8.8,0.2l37.7,0.7
			l10.3-18.3l1.6-2.9c12-26.8,14.9-45.6,14-58.5c-0.5-6.8-2.1-12-4-15.9C443.7,223.5,433.8,221,433.4,220.8z"/>
		<path class="st5" d="M493.3,143.6c-10.2-2.3-18.4-9.6-21.9-19.4c-1.5-4.5-2.1-9.4-4.7-13.4c3.9-5.5,7.1-11.4,9.4-17.7
			c0.9-2.5,3-6.9-0.5-8.2c-2.8-1.1-6,1.5-7.6,3.5c-1.3,1.5-2.2,3.3-2.7,5.3c-0.6-2.5-1.1-5.1-1.7-7.6c-0.1-0.5-0.7-0.8-1.2-0.7
			c-4.7,0.8-8.1,5.2-8.7,9.8c-0.3,2.4,0.2,4.8,1.5,6.8c1.5,2.3,3.7,3.9,5.9,5.7c2.3,1.8,4.1,3.8,5.3,6.5c1.3,2.8,1.8,5.8,2.7,8.7
			c3.2,11.4,12.4,20.1,23.9,22.7C494,145.7,494.5,143.9,493.3,143.6z M466.7,97.5c-0.1-2.4,0.5-4.9,1.8-6.8c0.7-1,1.5-1.9,2.5-2.7
			c0.9-0.7,2.3-1.7,3.5-1.4c1.6,0.3,0.9,2.1,0.6,3.2c-0.5,1.4-0.9,2.8-1.5,4.2c-1.1,2.7-2.3,5.3-3.6,7.8c-0.7,1.3-1.5,2.6-2.3,3.9
			c-0.5-2.4-1.1-4.8-1.7-7.2C466.5,98.3,466.7,97.9,466.7,97.5z M455.4,97.9c-0.7-4.5,2-8.8,6.3-10.4c1.5,6.8,3.1,13.5,4.6,20.3
			c-0.3,0.5-0.7,0.9-1,1.4c-0.1-0.1-0.1-0.2-0.3-0.3C461.9,105.4,456.3,103,455.4,97.9z"/>
	</g>
</g>
</svg>
